%FSLAX23Y23*%
%MOIN*%
G70*
G01*
G75*
%ADD10C,0.010*%
%ADD11C,0.012*%
%ADD12C,0.015*%
%ADD13C,0.025*%
%ADD14R,0.030X0.030*%
%ADD15R,0.100X0.070*%
%ADD16R,0.030X0.030*%
%ADD17R,0.050X0.030*%
%ADD18O,0.067X0.014*%
%ADD19R,0.070X0.100*%
%ADD20R,0.098X0.079*%
%ADD21R,0.091X0.020*%
%ADD22O,0.012X0.071*%
%ADD23O,0.071X0.012*%
%ADD24R,0.039X0.094*%
%ADD25R,0.130X0.094*%
%ADD26R,0.083X0.051*%
%ADD27O,0.087X0.024*%
%ADD28R,0.087X0.055*%
%ADD29C,0.008*%
%ADD30C,0.001*%
%ADD31R,0.188X0.076*%
%ADD32R,0.107X0.104*%
%ADD33C,0.004*%
%ADD34C,0.006*%
%ADD35C,0.001*%
%ADD36C,0.098*%
%ADD37C,0.024*%
%ADD38R,0.059X0.059*%
%ADD39C,0.059*%
%ADD40C,0.039*%
%ADD41R,0.039X0.039*%
%ADD42C,0.020*%
%ADD43C,0.020*%
%ADD44R,0.283X0.202*%
%ADD45C,0.024*%
%ADD46C,0.010*%
%ADD47C,0.003*%
%ADD48C,0.005*%
%ADD49C,0.002*%
%ADD50C,0.004*%
%ADD51C,0.008*%
G36*
X10455Y8280D02*
X10455Y8280D01*
X10456Y8280D01*
X10457Y8280D01*
X10458Y8279D01*
X10459Y8279D01*
X10459Y8278D01*
X10460Y8278D01*
X10461Y8277D01*
X10461Y8277D01*
Y8277D01*
X10461Y8277D01*
X10461Y8277D01*
X10462Y8276D01*
X10462Y8276D01*
X10462Y8276D01*
X10462Y8275D01*
X10462Y8275D01*
X10463Y8274D01*
X10463Y8273D01*
X10464Y8271D01*
X10464Y8270D01*
X10464Y8269D01*
Y8269D01*
Y8269D01*
Y8269D01*
X10464Y8269D01*
Y8268D01*
X10464Y8268D01*
X10463Y8267D01*
X10463Y8266D01*
Y8266D01*
X10463Y8266D01*
X10463Y8266D01*
X10463Y8265D01*
X10463Y8265D01*
X10463Y8264D01*
X10463Y8264D01*
X10463Y8263D01*
X10458D01*
Y8263D01*
Y8263D01*
X10458Y8263D01*
X10459Y8264D01*
X10459Y8264D01*
X10459Y8264D01*
X10459Y8265D01*
X10459Y8266D01*
Y8266D01*
X10459Y8266D01*
X10459Y8266D01*
X10459Y8267D01*
X10459Y8267D01*
X10459Y8268D01*
X10460Y8269D01*
Y8269D01*
Y8269D01*
Y8269D01*
X10459Y8270D01*
X10459Y8271D01*
X10459Y8271D01*
X10459Y8272D01*
X10459Y8272D01*
Y8272D01*
X10459Y8272D01*
X10459Y8273D01*
X10459Y8273D01*
X10458Y8274D01*
X10458Y8274D01*
X10458Y8274D01*
X10458Y8274D01*
X10457Y8274D01*
X10457Y8274D01*
X10457Y8274D01*
X10457Y8275D01*
X10456Y8275D01*
X10455Y8275D01*
X10455D01*
X10455Y8275D01*
X10455D01*
X10454Y8275D01*
X10454Y8275D01*
X10453D01*
X10453Y8275D01*
X10431D01*
Y8268D01*
X10428D01*
Y8280D01*
X10454D01*
X10455Y8280D01*
D02*
G37*
G36*
X10432Y8300D02*
X10463D01*
Y8295D01*
X10432D01*
Y8283D01*
X10428D01*
Y8312D01*
X10432D01*
Y8300D01*
D02*
G37*
G36*
X10463Y8336D02*
X10453Y8333D01*
Y8320D01*
X10463Y8316D01*
Y8312D01*
X10428Y8324D01*
Y8329D01*
X10463Y8341D01*
Y8336D01*
D02*
G37*
G36*
X9309Y7812D02*
X9310D01*
X9311Y7812D01*
X9312Y7812D01*
X9313Y7812D01*
X9314Y7812D01*
X9314D01*
X9314Y7812D01*
X9315Y7811D01*
X9316Y7811D01*
X9316Y7811D01*
X9317Y7811D01*
X9319Y7810D01*
Y7804D01*
X9319D01*
X9318Y7804D01*
X9318Y7805D01*
X9318Y7805D01*
X9317Y7805D01*
X9317Y7806D01*
X9316Y7806D01*
X9315Y7807D01*
X9314Y7807D01*
X9314D01*
X9314Y7807D01*
X9314Y7807D01*
X9313Y7807D01*
X9313Y7808D01*
X9312Y7808D01*
X9311Y7808D01*
X9310Y7808D01*
X9309Y7808D01*
X9308D01*
X9308Y7808D01*
X9307Y7808D01*
X9306Y7808D01*
X9305Y7808D01*
X9304Y7807D01*
X9303Y7807D01*
X9303Y7807D01*
X9303Y7806D01*
X9303Y7806D01*
X9302Y7806D01*
X9302Y7805D01*
X9302Y7804D01*
X9301Y7803D01*
X9301Y7803D01*
Y7802D01*
Y7802D01*
X9301Y7802D01*
X9302Y7801D01*
X9302Y7801D01*
X9302Y7800D01*
X9302Y7800D01*
X9303Y7799D01*
X9303Y7799D01*
X9303Y7799D01*
X9303Y7799D01*
X9303Y7798D01*
X9304Y7798D01*
X9304Y7798D01*
X9305Y7797D01*
X9306Y7797D01*
X9306D01*
X9306Y7797D01*
X9307Y7797D01*
X9307Y7797D01*
X9308Y7797D01*
X9308Y7796D01*
X9309Y7796D01*
X9310Y7796D01*
X9310D01*
X9310Y7796D01*
X9310Y7796D01*
X9311Y7796D01*
X9311Y7796D01*
X9312Y7795D01*
X9313Y7795D01*
X9313Y7795D01*
X9313D01*
X9313Y7795D01*
X9314Y7795D01*
X9314Y7795D01*
X9315Y7795D01*
X9315Y7794D01*
X9316Y7794D01*
X9317Y7793D01*
X9318Y7793D01*
X9319Y7792D01*
X9319Y7792D01*
X9319Y7791D01*
X9319Y7791D01*
X9320Y7790D01*
X9320Y7789D01*
X9320Y7788D01*
X9320Y7787D01*
X9320Y7786D01*
Y7786D01*
Y7786D01*
X9320Y7785D01*
X9320Y7785D01*
X9320Y7784D01*
X9320Y7784D01*
X9320Y7783D01*
X9319Y7782D01*
X9319Y7782D01*
X9319Y7782D01*
X9319Y7781D01*
X9319Y7781D01*
X9318Y7780D01*
X9318Y7780D01*
X9318Y7779D01*
X9317Y7779D01*
X9317Y7779D01*
X9317Y7778D01*
X9316Y7778D01*
X9316Y7778D01*
X9315Y7777D01*
X9315Y7777D01*
X9314Y7777D01*
X9313Y7776D01*
X9313Y7776D01*
X9313Y7776D01*
X9312Y7776D01*
X9312Y7776D01*
X9311Y7776D01*
X9310Y7776D01*
X9309Y7776D01*
X9308Y7775D01*
X9307D01*
X9306Y7776D01*
X9306Y7776D01*
X9304Y7776D01*
X9303Y7776D01*
X9302Y7776D01*
X9301Y7776D01*
X9301D01*
X9301Y7776D01*
X9301Y7776D01*
X9300Y7777D01*
X9300Y7777D01*
X9299Y7777D01*
X9298Y7777D01*
X9296Y7778D01*
Y7784D01*
X9296D01*
X9297Y7784D01*
X9297Y7784D01*
X9297Y7783D01*
X9298Y7783D01*
X9299Y7782D01*
X9300Y7782D01*
X9301Y7781D01*
X9302Y7781D01*
X9302D01*
X9302Y7781D01*
X9302Y7781D01*
X9302Y7781D01*
X9303Y7780D01*
X9304Y7780D01*
X9304Y7780D01*
X9305Y7780D01*
X9306Y7780D01*
X9307Y7780D01*
X9308D01*
X9308Y7780D01*
X9309Y7780D01*
X9310Y7780D01*
X9311Y7780D01*
X9312Y7780D01*
X9313Y7781D01*
X9313Y7781D01*
X9313Y7781D01*
X9314Y7781D01*
X9314Y7782D01*
X9314Y7782D01*
X9315Y7783D01*
X9315Y7784D01*
X9315Y7785D01*
X9315Y7785D01*
Y7786D01*
Y7786D01*
X9315Y7786D01*
X9315Y7787D01*
X9315Y7787D01*
X9315Y7788D01*
X9315Y7788D01*
X9314Y7789D01*
X9314Y7789D01*
X9314Y7789D01*
X9314Y7789D01*
X9314Y7790D01*
X9313Y7790D01*
X9312Y7790D01*
X9312Y7791D01*
X9311Y7791D01*
X9311D01*
X9311Y7791D01*
X9310Y7791D01*
X9310Y7791D01*
X9310Y7791D01*
X9309Y7791D01*
X9308Y7792D01*
X9308D01*
X9308Y7792D01*
X9307Y7792D01*
X9307Y7792D01*
X9307Y7792D01*
X9306Y7792D01*
X9305Y7792D01*
X9305Y7793D01*
X9304D01*
X9304Y7793D01*
X9304Y7793D01*
X9303Y7793D01*
X9303Y7793D01*
X9302Y7793D01*
X9301Y7794D01*
X9301Y7794D01*
X9301Y7794D01*
X9301Y7794D01*
X9300Y7794D01*
X9300Y7795D01*
X9299Y7796D01*
X9299Y7796D01*
X9299Y7796D01*
X9298Y7796D01*
X9298Y7796D01*
X9298Y7797D01*
X9298Y7797D01*
X9297Y7798D01*
Y7798D01*
X9297Y7799D01*
X9297Y7799D01*
X9297Y7799D01*
X9297Y7800D01*
X9297Y7801D01*
X9296Y7801D01*
Y7802D01*
Y7802D01*
Y7802D01*
Y7803D01*
X9296Y7803D01*
X9297Y7803D01*
X9297Y7804D01*
X9297Y7805D01*
X9297Y7806D01*
X9297Y7806D01*
X9298Y7807D01*
X9298Y7808D01*
X9299Y7808D01*
X9299Y7809D01*
X9300Y7809D01*
X9300Y7809D01*
X9300Y7809D01*
X9300Y7810D01*
X9300Y7810D01*
X9301Y7810D01*
X9301Y7810D01*
X9302Y7811D01*
X9302Y7811D01*
X9303Y7811D01*
X9303Y7811D01*
X9304Y7812D01*
X9305Y7812D01*
X9306Y7812D01*
X9307Y7812D01*
X9308Y7812D01*
X9309D01*
X9309Y7812D01*
D02*
G37*
G36*
X9293Y7807D02*
X9275D01*
Y7798D01*
X9292D01*
Y7794D01*
X9275D01*
Y7780D01*
X9293D01*
Y7776D01*
X9270D01*
Y7812D01*
X9293D01*
Y7807D01*
D02*
G37*
G36*
X9347D02*
X9330D01*
Y7798D01*
X9346D01*
Y7794D01*
X9330D01*
Y7780D01*
X9347D01*
Y7776D01*
X9325D01*
Y7812D01*
X9347D01*
Y7807D01*
D02*
G37*
G36*
X9378D02*
X9366D01*
Y7776D01*
X9361D01*
Y7807D01*
X9349D01*
Y7812D01*
X9378D01*
Y7807D01*
D02*
G37*
G36*
X10439Y7945D02*
X10440Y7944D01*
X10440Y7944D01*
X10441Y7944D01*
X10442Y7944D01*
X10443Y7944D01*
X10443Y7944D01*
X10443Y7944D01*
X10443Y7943D01*
X10444Y7943D01*
X10444Y7943D01*
X10445Y7942D01*
X10446Y7942D01*
X10446Y7941D01*
X10446Y7941D01*
X10447Y7941D01*
X10447Y7941D01*
X10447Y7940D01*
X10448Y7940D01*
X10448Y7939D01*
X10449Y7938D01*
X10449Y7937D01*
X10449Y7937D01*
X10449Y7937D01*
X10449Y7936D01*
X10449Y7935D01*
X10450Y7934D01*
X10450Y7933D01*
X10450Y7932D01*
X10450Y7931D01*
Y7927D01*
X10463D01*
Y7922D01*
X10428D01*
Y7931D01*
Y7931D01*
Y7931D01*
Y7931D01*
Y7932D01*
Y7932D01*
X10428Y7933D01*
X10428Y7934D01*
X10428Y7935D01*
X10428Y7936D01*
X10428Y7936D01*
Y7936D01*
X10428Y7937D01*
X10428Y7937D01*
X10429Y7938D01*
X10429Y7938D01*
X10429Y7939D01*
X10429Y7940D01*
X10430Y7940D01*
X10430Y7940D01*
X10430Y7941D01*
X10430Y7941D01*
X10431Y7941D01*
X10431Y7942D01*
X10432Y7942D01*
X10433Y7943D01*
X10433Y7943D01*
X10433Y7944D01*
X10434Y7944D01*
X10434Y7944D01*
X10435Y7944D01*
X10435Y7944D01*
X10436Y7944D01*
X10437Y7945D01*
X10438Y7945D01*
X10439D01*
X10439Y7945D01*
D02*
G37*
G36*
X10463Y7980D02*
Y7975D01*
X10434Y7967D01*
X10463Y7960D01*
Y7955D01*
X10428Y7946D01*
Y7951D01*
X10457Y7958D01*
X10428Y7965D01*
Y7970D01*
X10457Y7977D01*
X10428Y7984D01*
Y7989D01*
X10463Y7980D01*
D02*
G37*
G36*
Y8015D02*
X10449Y8003D01*
Y7998D01*
X10463D01*
Y7993D01*
X10428D01*
Y8002D01*
Y8002D01*
Y8002D01*
Y8003D01*
Y8003D01*
Y8003D01*
X10428Y8004D01*
Y8005D01*
X10428Y8006D01*
X10428Y8007D01*
X10428Y8007D01*
Y8008D01*
X10428Y8008D01*
X10428Y8008D01*
X10428Y8009D01*
X10428Y8009D01*
X10429Y8010D01*
X10429Y8011D01*
X10429Y8011D01*
X10430Y8011D01*
X10430Y8012D01*
X10430Y8012D01*
X10430Y8012D01*
X10431Y8013D01*
X10431Y8013D01*
X10432Y8014D01*
X10433Y8014D01*
X10433Y8014D01*
X10433Y8014D01*
X10433Y8015D01*
X10434Y8015D01*
X10435Y8015D01*
X10435Y8015D01*
X10436Y8015D01*
X10437Y8015D01*
X10438D01*
X10438Y8015D01*
X10438D01*
X10439Y8015D01*
X10440Y8015D01*
X10441Y8015D01*
X10442Y8015D01*
X10443Y8014D01*
X10444Y8013D01*
X10444Y8013D01*
X10444Y8013D01*
X10445Y8013D01*
X10445Y8012D01*
X10446Y8011D01*
X10447Y8010D01*
X10447Y8009D01*
X10448Y8008D01*
X10463Y8021D01*
Y8015D01*
D02*
G37*
G36*
X10446Y8639D02*
X10447D01*
X10447Y8639D01*
X10448Y8639D01*
X10448Y8639D01*
X10450Y8639D01*
X10451Y8638D01*
X10453Y8638D01*
X10454Y8637D01*
X10454D01*
X10454Y8637D01*
X10455Y8637D01*
X10455Y8637D01*
X10455Y8637D01*
X10456Y8636D01*
X10456Y8636D01*
X10457Y8635D01*
X10458Y8634D01*
X10459Y8633D01*
X10460Y8632D01*
Y8632D01*
X10460Y8632D01*
X10461Y8632D01*
X10461Y8631D01*
X10461Y8630D01*
X10462Y8629D01*
X10462Y8629D01*
X10462Y8628D01*
X10463Y8626D01*
Y8626D01*
Y8626D01*
X10463Y8626D01*
X10463Y8626D01*
Y8626D01*
X10463Y8625D01*
X10463Y8625D01*
X10463Y8624D01*
X10463Y8622D01*
X10463Y8621D01*
Y8619D01*
Y8611D01*
X10428D01*
Y8619D01*
Y8619D01*
Y8620D01*
Y8620D01*
Y8620D01*
Y8621D01*
X10428Y8621D01*
X10428Y8622D01*
X10428Y8623D01*
X10428Y8625D01*
X10428Y8626D01*
X10428Y8627D01*
Y8627D01*
X10428Y8627D01*
X10428Y8628D01*
X10429Y8628D01*
X10429Y8629D01*
X10429Y8630D01*
X10430Y8630D01*
X10430Y8631D01*
X10430Y8632D01*
Y8632D01*
X10431Y8632D01*
X10431Y8632D01*
X10431Y8633D01*
X10431Y8633D01*
X10432Y8634D01*
X10433Y8635D01*
X10434Y8636D01*
X10435Y8637D01*
X10436Y8637D01*
X10437D01*
X10437Y8637D01*
X10437Y8638D01*
X10437Y8638D01*
X10437Y8638D01*
X10438Y8638D01*
X10438Y8638D01*
X10439Y8638D01*
X10440Y8638D01*
X10440Y8639D01*
X10442Y8639D01*
X10444Y8639D01*
X10445Y8639D01*
X10446D01*
X10446Y8639D01*
D02*
G37*
G36*
X10461Y8371D02*
X10461Y8371D01*
X10461Y8371D01*
X10461Y8371D01*
X10461Y8370D01*
X10461Y8370D01*
X10462Y8369D01*
X10462Y8369D01*
Y8369D01*
X10462Y8369D01*
X10462Y8368D01*
X10462Y8368D01*
X10462Y8368D01*
X10463Y8367D01*
X10463Y8366D01*
Y8366D01*
X10463Y8366D01*
X10463Y8365D01*
X10463Y8365D01*
X10463Y8365D01*
X10463Y8364D01*
X10464Y8363D01*
Y8363D01*
X10464Y8363D01*
X10464Y8362D01*
Y8362D01*
X10464Y8361D01*
X10464Y8361D01*
X10464Y8360D01*
Y8360D01*
Y8359D01*
Y8359D01*
Y8359D01*
Y8359D01*
X10464Y8359D01*
Y8358D01*
X10464Y8357D01*
X10464Y8356D01*
X10463Y8355D01*
X10463Y8354D01*
X10463Y8353D01*
Y8353D01*
X10463Y8353D01*
X10463Y8352D01*
X10463Y8352D01*
X10462Y8352D01*
X10462Y8351D01*
X10461Y8350D01*
X10461Y8349D01*
X10460Y8348D01*
X10459Y8347D01*
X10459Y8347D01*
X10459Y8347D01*
X10458Y8346D01*
X10458Y8346D01*
X10457Y8345D01*
X10456Y8345D01*
X10455Y8344D01*
X10453Y8344D01*
X10453D01*
X10453Y8344D01*
X10453Y8344D01*
X10453Y8344D01*
X10452Y8344D01*
X10452Y8343D01*
X10452Y8343D01*
X10451Y8343D01*
X10450Y8343D01*
X10449Y8343D01*
X10447Y8343D01*
X10445Y8343D01*
X10445D01*
X10444Y8343D01*
X10444D01*
X10443Y8343D01*
X10442Y8343D01*
X10440Y8343D01*
X10439Y8343D01*
X10438Y8344D01*
X10438D01*
X10438Y8344D01*
X10437Y8344D01*
X10437Y8344D01*
X10436Y8344D01*
X10436Y8345D01*
X10435Y8345D01*
X10434Y8346D01*
X10433Y8346D01*
X10432Y8347D01*
X10432Y8347D01*
X10431Y8348D01*
X10431Y8348D01*
X10431Y8349D01*
X10430Y8350D01*
X10429Y8350D01*
X10429Y8351D01*
X10428Y8353D01*
Y8353D01*
X10428Y8353D01*
X10428Y8353D01*
X10428Y8353D01*
X10428Y8353D01*
X10428Y8354D01*
X10428Y8355D01*
X10427Y8356D01*
X10427Y8357D01*
X10427Y8358D01*
X10427Y8360D01*
Y8360D01*
Y8360D01*
Y8360D01*
X10427Y8361D01*
Y8361D01*
X10427Y8362D01*
X10427Y8363D01*
Y8363D01*
X10427Y8363D01*
X10427Y8364D01*
X10427Y8364D01*
X10428Y8364D01*
X10428Y8365D01*
X10428Y8366D01*
Y8366D01*
X10428Y8366D01*
X10428Y8367D01*
X10428Y8367D01*
X10428Y8367D01*
X10429Y8368D01*
X10429Y8369D01*
Y8369D01*
X10429Y8369D01*
X10429Y8369D01*
X10429Y8370D01*
X10430Y8370D01*
X10430Y8371D01*
X10436D01*
Y8371D01*
X10436Y8371D01*
X10436Y8371D01*
X10435Y8370D01*
X10435Y8370D01*
X10435Y8370D01*
X10434Y8369D01*
X10434Y8369D01*
X10434Y8369D01*
X10434Y8369D01*
X10434Y8368D01*
X10434Y8368D01*
X10433Y8367D01*
X10433Y8367D01*
X10433Y8366D01*
X10433Y8366D01*
X10433Y8366D01*
X10432Y8366D01*
X10432Y8365D01*
X10432Y8365D01*
X10432Y8364D01*
X10432Y8364D01*
X10432Y8363D01*
Y8363D01*
X10432Y8363D01*
X10431Y8362D01*
X10431Y8362D01*
X10431Y8361D01*
X10431Y8361D01*
X10431Y8360D01*
Y8359D01*
Y8359D01*
Y8359D01*
Y8359D01*
X10431Y8358D01*
X10431Y8358D01*
X10431Y8357D01*
X10431Y8357D01*
X10432Y8356D01*
X10432Y8355D01*
X10432Y8355D01*
X10432Y8354D01*
X10433Y8353D01*
X10433Y8353D01*
X10434Y8352D01*
X10434Y8351D01*
X10435Y8351D01*
X10435Y8351D01*
X10435Y8351D01*
X10435Y8350D01*
X10436Y8350D01*
X10436Y8350D01*
X10437Y8350D01*
X10437Y8349D01*
X10438Y8349D01*
X10438Y8349D01*
X10439Y8349D01*
X10440Y8348D01*
X10441Y8348D01*
X10442Y8348D01*
X10443Y8348D01*
X10444Y8348D01*
X10445Y8348D01*
X10446D01*
X10447Y8348D01*
X10447Y8348D01*
X10448Y8348D01*
X10449Y8348D01*
X10450Y8348D01*
X10452Y8348D01*
X10452D01*
X10452Y8348D01*
X10452Y8349D01*
X10452Y8349D01*
X10453Y8349D01*
X10454Y8349D01*
X10455Y8350D01*
X10455Y8350D01*
X10456Y8351D01*
X10456Y8351D01*
X10456Y8351D01*
X10457Y8351D01*
X10457Y8352D01*
X10458Y8352D01*
X10458Y8353D01*
X10458Y8354D01*
X10459Y8354D01*
X10459Y8355D01*
X10459Y8355D01*
X10459Y8355D01*
X10459Y8356D01*
X10459Y8357D01*
X10460Y8357D01*
X10460Y8358D01*
X10460Y8359D01*
Y8359D01*
Y8360D01*
Y8360D01*
X10460Y8361D01*
Y8361D01*
X10460Y8362D01*
X10459Y8363D01*
Y8363D01*
X10459Y8364D01*
X10459Y8364D01*
X10459Y8364D01*
X10459Y8365D01*
X10459Y8366D01*
X10459Y8367D01*
X10449D01*
Y8359D01*
X10445D01*
Y8371D01*
X10461D01*
Y8371D01*
D02*
G37*
G36*
X10454Y8562D02*
X10454Y8562D01*
X10455Y8562D01*
X10456Y8562D01*
X10456Y8562D01*
X10457Y8561D01*
X10457Y8561D01*
X10457Y8561D01*
X10458Y8561D01*
X10458Y8561D01*
X10459Y8560D01*
X10459Y8560D01*
X10460Y8560D01*
X10461Y8559D01*
X10461Y8559D01*
X10461Y8559D01*
X10461Y8558D01*
X10461Y8558D01*
X10462Y8557D01*
X10462Y8557D01*
X10463Y8556D01*
X10463Y8555D01*
X10463Y8555D01*
X10463Y8555D01*
X10463Y8554D01*
X10463Y8554D01*
X10464Y8553D01*
X10464Y8552D01*
X10464Y8551D01*
X10464Y8550D01*
Y8550D01*
Y8550D01*
Y8549D01*
Y8549D01*
Y8549D01*
X10464Y8548D01*
X10464Y8547D01*
X10464Y8546D01*
X10463Y8545D01*
X10463Y8544D01*
X10463Y8543D01*
Y8543D01*
X10463Y8543D01*
X10463Y8543D01*
X10463Y8542D01*
X10462Y8542D01*
X10462Y8541D01*
X10462Y8540D01*
X10461Y8538D01*
X10455D01*
Y8538D01*
X10455Y8538D01*
X10455Y8539D01*
X10456Y8539D01*
X10456Y8540D01*
X10457Y8541D01*
X10457Y8542D01*
X10458Y8543D01*
X10458Y8544D01*
Y8544D01*
X10459Y8544D01*
X10459Y8544D01*
X10459Y8544D01*
X10459Y8545D01*
X10459Y8546D01*
X10459Y8546D01*
X10459Y8547D01*
X10460Y8548D01*
X10460Y8549D01*
Y8549D01*
Y8550D01*
Y8550D01*
Y8550D01*
X10460Y8550D01*
X10460Y8551D01*
X10459Y8552D01*
X10459Y8553D01*
X10459Y8554D01*
X10459Y8555D01*
X10458Y8555D01*
X10458Y8555D01*
X10458Y8556D01*
X10457Y8556D01*
X10457Y8556D01*
X10456Y8557D01*
X10456Y8557D01*
X10455Y8557D01*
X10454Y8557D01*
X10453D01*
X10453Y8557D01*
X10453Y8557D01*
X10452Y8557D01*
X10451Y8557D01*
X10451Y8557D01*
X10450Y8556D01*
X10450Y8556D01*
X10450Y8556D01*
X10450Y8556D01*
X10450Y8556D01*
X10449Y8555D01*
X10449Y8554D01*
X10449Y8554D01*
X10448Y8553D01*
Y8553D01*
X10448Y8553D01*
X10448Y8552D01*
X10448Y8552D01*
X10448Y8552D01*
X10448Y8551D01*
X10448Y8550D01*
Y8550D01*
X10448Y8550D01*
X10447Y8549D01*
X10447Y8549D01*
X10447Y8549D01*
X10447Y8548D01*
X10447Y8547D01*
X10447Y8547D01*
Y8546D01*
X10447Y8546D01*
X10447Y8546D01*
X10446Y8545D01*
X10446Y8545D01*
X10446Y8544D01*
X10446Y8543D01*
X10445Y8543D01*
X10445Y8543D01*
X10445Y8543D01*
X10445Y8542D01*
X10444Y8542D01*
X10444Y8541D01*
X10444Y8541D01*
X10443Y8541D01*
X10443Y8540D01*
X10443Y8540D01*
X10442Y8540D01*
X10442Y8539D01*
X10441Y8539D01*
X10441D01*
X10441Y8539D01*
X10440Y8539D01*
X10440Y8539D01*
X10439Y8539D01*
X10439Y8538D01*
X10438Y8538D01*
X10437D01*
X10436Y8538D01*
X10436Y8538D01*
X10436Y8539D01*
X10435Y8539D01*
X10433Y8539D01*
X10433Y8539D01*
X10432Y8540D01*
X10432Y8540D01*
X10431Y8541D01*
X10430Y8541D01*
X10430Y8542D01*
X10430Y8542D01*
X10430Y8542D01*
X10430Y8542D01*
X10429Y8542D01*
X10429Y8543D01*
X10429Y8543D01*
X10429Y8543D01*
X10428Y8544D01*
X10428Y8545D01*
X10428Y8545D01*
X10428Y8546D01*
X10427Y8547D01*
X10427Y8548D01*
X10427Y8549D01*
X10427Y8550D01*
Y8550D01*
Y8550D01*
Y8551D01*
Y8551D01*
X10427Y8551D01*
Y8552D01*
X10427Y8553D01*
X10427Y8554D01*
X10427Y8555D01*
X10428Y8556D01*
Y8556D01*
Y8556D01*
X10428Y8556D01*
X10428Y8557D01*
X10428Y8558D01*
X10428Y8558D01*
X10429Y8559D01*
X10429Y8561D01*
X10435D01*
Y8561D01*
X10435Y8560D01*
X10435Y8560D01*
X10434Y8560D01*
X10434Y8559D01*
X10434Y8559D01*
X10433Y8558D01*
X10433Y8557D01*
X10432Y8556D01*
Y8556D01*
X10432Y8556D01*
X10432Y8556D01*
X10432Y8555D01*
X10432Y8555D01*
X10431Y8554D01*
X10431Y8553D01*
X10431Y8552D01*
X10431Y8551D01*
Y8551D01*
Y8550D01*
Y8550D01*
Y8550D01*
X10431Y8550D01*
X10431Y8549D01*
X10431Y8548D01*
X10432Y8547D01*
X10432Y8546D01*
X10433Y8545D01*
X10433Y8545D01*
X10433Y8545D01*
X10433Y8545D01*
X10434Y8544D01*
X10434Y8544D01*
X10435Y8544D01*
X10436Y8543D01*
X10437Y8543D01*
X10437D01*
X10437Y8543D01*
X10438Y8543D01*
X10439Y8544D01*
X10439Y8544D01*
X10440Y8544D01*
X10440Y8544D01*
X10440Y8545D01*
X10441Y8545D01*
X10441Y8545D01*
X10441Y8545D01*
X10441Y8546D01*
X10442Y8546D01*
X10442Y8547D01*
X10442Y8548D01*
Y8548D01*
X10442Y8548D01*
X10442Y8549D01*
X10442Y8549D01*
X10443Y8550D01*
X10443Y8550D01*
X10443Y8551D01*
X10443Y8552D01*
Y8552D01*
X10443Y8552D01*
X10443Y8552D01*
X10443Y8553D01*
X10444Y8553D01*
X10444Y8554D01*
X10444Y8555D01*
X10444Y8555D01*
Y8555D01*
X10444Y8555D01*
X10444Y8556D01*
X10444Y8556D01*
X10444Y8556D01*
X10445Y8557D01*
X10445Y8558D01*
X10446Y8559D01*
X10447Y8560D01*
X10447Y8561D01*
X10448Y8561D01*
X10448Y8561D01*
X10448Y8561D01*
X10449Y8561D01*
X10450Y8562D01*
X10451Y8562D01*
X10452Y8562D01*
X10453Y8562D01*
X10453D01*
X10454Y8562D01*
D02*
G37*
G36*
X10463Y8598D02*
Y8593D01*
X10434Y8586D01*
X10463Y8578D01*
Y8573D01*
X10428Y8564D01*
Y8569D01*
X10457Y8576D01*
X10428Y8583D01*
Y8588D01*
X10457Y8595D01*
X10428Y8602D01*
Y8607D01*
X10463Y8598D01*
D02*
G37*
G36*
X9251Y7812D02*
X9252D01*
X9253Y7812D01*
X9254Y7811D01*
X9254Y7811D01*
X9255D01*
X9255Y7811D01*
X9255Y7811D01*
X9256Y7811D01*
X9256Y7811D01*
X9257Y7811D01*
X9258Y7810D01*
X9258Y7810D01*
X9258Y7810D01*
X9259Y7810D01*
X9259Y7809D01*
X9259Y7809D01*
X9260Y7808D01*
X9260Y7808D01*
X9261Y7807D01*
X9261Y7807D01*
X9261Y7807D01*
X9261Y7806D01*
X9262Y7806D01*
X9262Y7805D01*
X9262Y7805D01*
X9262Y7804D01*
X9262Y7803D01*
X9262Y7802D01*
Y7802D01*
Y7802D01*
Y7802D01*
X9262Y7801D01*
Y7801D01*
X9262Y7801D01*
X9262Y7800D01*
X9262Y7799D01*
X9262Y7798D01*
X9261Y7796D01*
X9260Y7795D01*
X9260Y7795D01*
X9260Y7795D01*
X9260Y7795D01*
X9259Y7794D01*
X9258Y7793D01*
X9257Y7793D01*
X9256Y7792D01*
X9255Y7792D01*
X9268Y7776D01*
X9262D01*
X9250Y7790D01*
X9245D01*
Y7776D01*
X9240D01*
Y7812D01*
X9250D01*
X9251Y7812D01*
D02*
G37*
G36*
X9937Y7995D02*
X9938Y7995D01*
X9939Y7995D01*
X9939Y7995D01*
X9940Y7995D01*
X9941Y7994D01*
X9941Y7994D01*
X9941Y7994D01*
X9942Y7994D01*
X9942Y7994D01*
X9943Y7993D01*
X9943Y7993D01*
X9944Y7992D01*
X9944Y7992D01*
X9944Y7992D01*
X9945Y7991D01*
X9945Y7991D01*
X9945Y7990D01*
X9946Y7990D01*
X9946Y7989D01*
X9946Y7988D01*
X9947Y7987D01*
Y7987D01*
X9947Y7987D01*
X9947Y7986D01*
X9947Y7986D01*
X9947Y7985D01*
X9947Y7984D01*
X9947Y7983D01*
X9947Y7981D01*
Y7971D01*
X9912D01*
Y7981D01*
Y7981D01*
Y7981D01*
Y7981D01*
Y7981D01*
Y7982D01*
X9912Y7983D01*
Y7984D01*
X9912Y7985D01*
X9912Y7986D01*
X9912Y7986D01*
Y7986D01*
X9912Y7987D01*
X9912Y7987D01*
X9912Y7987D01*
X9912Y7988D01*
X9912Y7989D01*
X9913Y7989D01*
X9913Y7990D01*
X9913Y7990D01*
X9913Y7990D01*
X9913Y7991D01*
X9914Y7991D01*
X9914Y7991D01*
X9915Y7992D01*
X9915Y7992D01*
X9916Y7993D01*
X9916Y7993D01*
X9916Y7993D01*
X9916Y7993D01*
X9917Y7993D01*
X9917Y7993D01*
X9918Y7994D01*
X9919Y7994D01*
X9920Y7994D01*
X9920D01*
X9921Y7994D01*
X9921Y7994D01*
X9922Y7993D01*
X9923Y7993D01*
X9923Y7993D01*
X9924Y7992D01*
X9924Y7992D01*
X9924Y7992D01*
X9925Y7992D01*
X9925Y7991D01*
X9926Y7991D01*
X9926Y7990D01*
X9927Y7990D01*
X9927Y7989D01*
X9927D01*
Y7989D01*
X9927Y7989D01*
X9928Y7989D01*
X9928Y7989D01*
X9928Y7990D01*
X9928Y7990D01*
X9929Y7991D01*
X9929Y7992D01*
X9930Y7993D01*
X9931Y7994D01*
X9931Y7994D01*
X9931Y7994D01*
X9931Y7994D01*
X9932Y7994D01*
X9933Y7995D01*
X9934Y7995D01*
X9935Y7995D01*
X9936Y7995D01*
X9937D01*
X9937Y7995D01*
D02*
G37*
G36*
X9945Y8027D02*
X9945Y8027D01*
X9945Y8026D01*
X9945Y8026D01*
X9945Y8026D01*
X9945Y8025D01*
X9946Y8025D01*
X9946Y8024D01*
Y8024D01*
X9946Y8024D01*
X9946Y8024D01*
X9946Y8023D01*
X9946Y8023D01*
X9947Y8023D01*
X9947Y8021D01*
Y8021D01*
X9947Y8021D01*
X9947Y8021D01*
X9947Y8020D01*
X9947Y8020D01*
X9947Y8019D01*
X9948Y8018D01*
Y8018D01*
X9948Y8018D01*
X9948Y8018D01*
Y8017D01*
X9948Y8017D01*
X9948Y8016D01*
X9948Y8016D01*
Y8015D01*
Y8015D01*
Y8015D01*
Y8015D01*
Y8014D01*
X9948Y8014D01*
Y8014D01*
X9948Y8013D01*
X9948Y8012D01*
X9947Y8010D01*
X9947Y8009D01*
X9947Y8008D01*
Y8008D01*
X9947Y8008D01*
X9947Y8008D01*
X9947Y8007D01*
X9946Y8007D01*
X9946Y8006D01*
X9945Y8005D01*
X9945Y8004D01*
X9944Y8004D01*
X9943Y8003D01*
X9943Y8003D01*
X9943Y8002D01*
X9942Y8002D01*
X9942Y8001D01*
X9941Y8001D01*
X9940Y8000D01*
X9939Y8000D01*
X9937Y7999D01*
X9937D01*
X9937Y7999D01*
X9937Y7999D01*
X9937Y7999D01*
X9936Y7999D01*
X9936Y7999D01*
X9936Y7999D01*
X9935Y7999D01*
X9934Y7998D01*
X9933Y7998D01*
X9931Y7998D01*
X9929Y7998D01*
X9929D01*
X9928Y7998D01*
X9928D01*
X9927Y7998D01*
X9926Y7998D01*
X9924Y7999D01*
X9923Y7999D01*
X9922Y7999D01*
X9922D01*
X9922Y7999D01*
X9921Y7999D01*
X9921Y7999D01*
X9920Y8000D01*
X9920Y8000D01*
X9919Y8001D01*
X9918Y8001D01*
X9917Y8002D01*
X9916Y8003D01*
X9916Y8003D01*
X9915Y8003D01*
X9915Y8004D01*
X9915Y8004D01*
X9914Y8005D01*
X9913Y8006D01*
X9913Y8007D01*
X9912Y8008D01*
Y8008D01*
X9912Y8008D01*
X9912Y8008D01*
X9912Y8009D01*
X9912Y8009D01*
X9912Y8009D01*
X9912Y8010D01*
X9911Y8011D01*
X9911Y8012D01*
X9911Y8014D01*
X9911Y8015D01*
Y8015D01*
Y8015D01*
Y8016D01*
X9911Y8016D01*
Y8017D01*
X9911Y8017D01*
X9911Y8018D01*
Y8018D01*
X9911Y8019D01*
X9911Y8019D01*
X9911Y8019D01*
X9912Y8020D01*
X9912Y8020D01*
X9912Y8022D01*
Y8022D01*
X9912Y8022D01*
X9912Y8022D01*
X9912Y8022D01*
X9912Y8023D01*
X9913Y8023D01*
X9913Y8024D01*
Y8024D01*
X9913Y8024D01*
X9913Y8025D01*
X9913Y8025D01*
X9914Y8026D01*
X9914Y8027D01*
X9920D01*
Y8026D01*
X9920Y8026D01*
X9920Y8026D01*
X9919Y8026D01*
X9919Y8026D01*
X9919Y8025D01*
X9918Y8024D01*
X9918Y8024D01*
X9918Y8024D01*
X9918Y8024D01*
X9918Y8024D01*
X9918Y8023D01*
X9917Y8023D01*
X9917Y8022D01*
X9917Y8022D01*
X9917Y8022D01*
X9917Y8021D01*
X9916Y8021D01*
X9916Y8021D01*
X9916Y8020D01*
X9916Y8020D01*
X9916Y8019D01*
X9916Y8018D01*
Y8018D01*
X9916Y8018D01*
X9915Y8018D01*
X9915Y8017D01*
X9915Y8017D01*
X9915Y8016D01*
X9915Y8015D01*
Y8014D01*
Y8014D01*
Y8014D01*
Y8014D01*
X9915Y8014D01*
X9915Y8013D01*
X9915Y8013D01*
X9915Y8012D01*
X9916Y8011D01*
X9916Y8011D01*
X9916Y8010D01*
X9916Y8009D01*
X9917Y8009D01*
X9917Y8008D01*
X9918Y8007D01*
X9918Y8007D01*
X9919Y8006D01*
X9919Y8006D01*
X9919Y8006D01*
X9919Y8006D01*
X9920Y8006D01*
X9920Y8005D01*
X9921Y8005D01*
X9921Y8005D01*
X9922Y8005D01*
X9922Y8004D01*
X9923Y8004D01*
X9924Y8004D01*
X9925Y8004D01*
X9926Y8003D01*
X9927Y8003D01*
X9928Y8003D01*
X9929Y8003D01*
X9930D01*
X9931Y8003D01*
X9931Y8003D01*
X9932Y8003D01*
X9933Y8003D01*
X9934Y8004D01*
X9936Y8004D01*
X9936D01*
X9936Y8004D01*
X9936Y8004D01*
X9936Y8004D01*
X9937Y8004D01*
X9938Y8005D01*
X9939Y8005D01*
X9939Y8006D01*
X9940Y8006D01*
X9940Y8006D01*
X9940Y8006D01*
X9941Y8007D01*
X9941Y8007D01*
X9942Y8008D01*
X9942Y8008D01*
X9942Y8009D01*
X9943Y8010D01*
X9943Y8010D01*
X9943Y8010D01*
X9943Y8011D01*
X9943Y8011D01*
X9943Y8012D01*
X9944Y8013D01*
X9944Y8014D01*
X9944Y8015D01*
Y8015D01*
Y8015D01*
Y8015D01*
X9944Y8016D01*
Y8017D01*
X9944Y8017D01*
X9943Y8019D01*
Y8019D01*
X9943Y8019D01*
X9943Y8019D01*
X9943Y8020D01*
X9943Y8020D01*
X9943Y8021D01*
X9943Y8022D01*
X9933D01*
Y8014D01*
X9929D01*
Y8027D01*
X9945D01*
Y8027D01*
D02*
G37*
G36*
X9376Y7984D02*
X9377Y7983D01*
X9377Y7983D01*
X9378Y7983D01*
X9379Y7983D01*
X9380Y7983D01*
X9380Y7983D01*
X9380Y7983D01*
X9380Y7982D01*
X9381Y7982D01*
X9381Y7982D01*
X9382Y7981D01*
X9383Y7981D01*
X9383Y7980D01*
X9383Y7980D01*
X9384Y7980D01*
X9384Y7980D01*
X9384Y7979D01*
X9385Y7979D01*
X9385Y7978D01*
X9386Y7977D01*
X9386Y7976D01*
X9386Y7976D01*
X9386Y7976D01*
X9386Y7975D01*
X9386Y7974D01*
X9387Y7973D01*
X9387Y7972D01*
X9387Y7971D01*
X9387Y7970D01*
Y7966D01*
X9400D01*
Y7961D01*
X9365D01*
Y7970D01*
Y7970D01*
Y7970D01*
Y7970D01*
Y7971D01*
Y7971D01*
X9365Y7972D01*
X9365Y7973D01*
X9365Y7974D01*
X9365Y7975D01*
X9365Y7975D01*
Y7975D01*
X9365Y7976D01*
X9365Y7976D01*
X9366Y7977D01*
X9366Y7977D01*
X9366Y7978D01*
X9366Y7979D01*
X9367Y7979D01*
X9367Y7979D01*
X9367Y7980D01*
X9367Y7980D01*
X9368Y7980D01*
X9368Y7981D01*
X9369Y7981D01*
X9370Y7982D01*
X9370Y7982D01*
X9370Y7983D01*
X9371Y7983D01*
X9371Y7983D01*
X9372Y7983D01*
X9372Y7983D01*
X9373Y7983D01*
X9374Y7984D01*
X9375Y7984D01*
X9376D01*
X9376Y7984D01*
D02*
G37*
G36*
X9930Y7966D02*
X9931D01*
X9931Y7966D01*
X9932Y7966D01*
X9932Y7966D01*
X9934Y7966D01*
X9935Y7965D01*
X9937Y7965D01*
X9938Y7964D01*
X9938D01*
X9938Y7964D01*
X9939Y7964D01*
X9939Y7964D01*
X9939Y7964D01*
X9940Y7963D01*
X9940Y7963D01*
X9941Y7962D01*
X9942Y7961D01*
X9943Y7960D01*
X9944Y7959D01*
Y7959D01*
X9944Y7959D01*
X9945Y7958D01*
X9945Y7958D01*
X9945Y7957D01*
X9946Y7956D01*
X9946Y7955D01*
X9946Y7954D01*
X9947Y7953D01*
Y7953D01*
Y7953D01*
X9947Y7953D01*
X9947Y7953D01*
Y7953D01*
X9947Y7952D01*
X9947Y7951D01*
X9947Y7950D01*
X9947Y7949D01*
X9947Y7948D01*
Y7946D01*
Y7938D01*
X9912D01*
Y7946D01*
Y7946D01*
Y7946D01*
Y7947D01*
Y7947D01*
Y7947D01*
X9912Y7948D01*
X9912Y7949D01*
X9912Y7950D01*
X9912Y7952D01*
X9912Y7953D01*
X9912Y7954D01*
Y7954D01*
X9912Y7954D01*
X9912Y7955D01*
X9913Y7955D01*
X9913Y7956D01*
X9913Y7956D01*
X9914Y7957D01*
X9914Y7958D01*
X9914Y7959D01*
Y7959D01*
X9915Y7959D01*
X9915Y7959D01*
X9915Y7959D01*
X9915Y7960D01*
X9916Y7961D01*
X9917Y7962D01*
X9918Y7963D01*
X9919Y7963D01*
X9920Y7964D01*
X9921D01*
X9921Y7964D01*
X9921Y7964D01*
X9921Y7964D01*
X9921Y7965D01*
X9922Y7965D01*
X9922Y7965D01*
X9923Y7965D01*
X9924Y7965D01*
X9924Y7965D01*
X9926Y7966D01*
X9928Y7966D01*
X9929Y7966D01*
X9930D01*
X9930Y7966D01*
D02*
G37*
G36*
X10579Y8262D02*
X10574D01*
Y8271D01*
X10543D01*
Y8262D01*
X10538D01*
Y8262D01*
Y8262D01*
Y8263D01*
Y8263D01*
X10538Y8264D01*
X10538Y8265D01*
X10538Y8266D01*
X10538Y8267D01*
X10537Y8268D01*
X10537Y8269D01*
X10537Y8269D01*
X10537Y8270D01*
X10536Y8270D01*
X10536Y8270D01*
X10535Y8271D01*
X10534Y8271D01*
X10533Y8272D01*
X10532Y8272D01*
Y8277D01*
X10574D01*
Y8285D01*
X10579D01*
Y8262D01*
D02*
G37*
G36*
X10580Y7895D02*
X10575D01*
Y7904D01*
X10544D01*
Y7895D01*
X10539D01*
Y7895D01*
Y7895D01*
Y7896D01*
Y7896D01*
X10539Y7897D01*
X10539Y7898D01*
X10539Y7899D01*
X10539Y7900D01*
X10538Y7901D01*
X10538Y7902D01*
X10538Y7902D01*
X10538Y7903D01*
X10537Y7903D01*
X10537Y7903D01*
X10536Y7904D01*
X10535Y7904D01*
X10534Y7905D01*
X10533Y7905D01*
Y7910D01*
X10575D01*
Y7918D01*
X10580D01*
Y7895D01*
D02*
G37*
G36*
X9549Y8680D02*
X9557D01*
Y8675D01*
X9534D01*
Y8680D01*
X9543D01*
Y8712D01*
X9534D01*
Y8716D01*
X9535D01*
X9536Y8716D01*
X9537Y8716D01*
X9538Y8716D01*
X9539Y8717D01*
X9540Y8717D01*
X9541Y8717D01*
X9541Y8717D01*
X9542Y8718D01*
X9542Y8718D01*
X9542Y8719D01*
X9543Y8719D01*
X9543Y8720D01*
X9544Y8721D01*
X9544Y8723D01*
X9549D01*
Y8680D01*
D02*
G37*
G36*
X9093Y8631D02*
X9094D01*
X9095Y8631D01*
X9096Y8630D01*
X9097Y8630D01*
X9097D01*
X9097Y8630D01*
X9098Y8630D01*
X9098Y8630D01*
X9099Y8630D01*
X9099Y8630D01*
X9100Y8630D01*
X9101Y8629D01*
X9101Y8629D01*
X9101Y8629D01*
X9101Y8629D01*
X9102Y8628D01*
X9102Y8628D01*
X9103Y8628D01*
X9103Y8627D01*
X9103Y8627D01*
X9103Y8626D01*
X9104Y8626D01*
X9104Y8626D01*
X9104Y8625D01*
X9104Y8625D01*
X9104Y8624D01*
X9104Y8623D01*
X9104Y8623D01*
Y8623D01*
Y8622D01*
X9104Y8622D01*
X9104Y8621D01*
X9104Y8620D01*
X9104Y8620D01*
X9103Y8619D01*
X9103Y8618D01*
X9103Y8618D01*
X9103Y8618D01*
X9102Y8617D01*
X9102Y8617D01*
X9102Y8617D01*
X9101Y8616D01*
X9100Y8615D01*
X9099Y8615D01*
Y8615D01*
X9099D01*
X9099Y8615D01*
X9100Y8615D01*
X9100Y8615D01*
X9100Y8614D01*
X9101Y8614D01*
X9102Y8614D01*
X9103Y8613D01*
X9103Y8612D01*
X9104Y8612D01*
X9104Y8612D01*
X9104Y8611D01*
X9105Y8611D01*
X9105Y8610D01*
X9105Y8609D01*
X9106Y8608D01*
X9106Y8607D01*
X9106Y8606D01*
Y8606D01*
Y8606D01*
Y8606D01*
X9106Y8605D01*
X9106Y8604D01*
X9106Y8604D01*
X9106Y8603D01*
X9105Y8602D01*
X9105Y8601D01*
X9105Y8601D01*
X9105Y8601D01*
X9105Y8601D01*
X9104Y8600D01*
X9104Y8600D01*
X9103Y8599D01*
X9103Y8598D01*
X9102Y8598D01*
X9102Y8598D01*
X9102Y8598D01*
X9102Y8597D01*
X9101Y8597D01*
X9100Y8597D01*
X9100Y8596D01*
X9099Y8596D01*
X9098Y8596D01*
X9098D01*
X9098Y8596D01*
X9097Y8596D01*
X9096Y8595D01*
X9095Y8595D01*
X9094Y8595D01*
X9093Y8595D01*
X9092Y8595D01*
X9082D01*
Y8631D01*
X9093D01*
X9093Y8631D01*
D02*
G37*
G36*
X9048Y8608D02*
Y8608D01*
Y8608D01*
Y8608D01*
Y8608D01*
Y8608D01*
X9048Y8607D01*
X9048Y8606D01*
X9048Y8605D01*
X9048Y8604D01*
X9047Y8603D01*
X9047Y8602D01*
Y8602D01*
X9047Y8602D01*
X9047Y8602D01*
X9047Y8601D01*
X9046Y8601D01*
X9046Y8600D01*
X9046Y8599D01*
X9045Y8598D01*
X9044Y8598D01*
X9044Y8598D01*
X9044Y8597D01*
X9044Y8597D01*
X9043Y8597D01*
X9043Y8596D01*
X9042Y8596D01*
X9041Y8595D01*
X9041Y8595D01*
X9040Y8595D01*
X9040Y8595D01*
X9040Y8595D01*
X9039Y8595D01*
X9038Y8595D01*
X9037Y8594D01*
X9036Y8594D01*
X9035Y8594D01*
X9034D01*
X9034Y8594D01*
X9033Y8594D01*
X9032Y8595D01*
X9031Y8595D01*
X9030Y8595D01*
X9030Y8595D01*
X9029Y8595D01*
X9029Y8595D01*
X9029Y8595D01*
X9028Y8596D01*
X9027Y8596D01*
X9027Y8597D01*
X9026Y8597D01*
X9026Y8598D01*
X9025Y8598D01*
X9025Y8598D01*
X9025Y8598D01*
X9025Y8599D01*
X9024Y8600D01*
X9024Y8600D01*
X9023Y8601D01*
X9023Y8602D01*
Y8602D01*
X9023Y8602D01*
Y8602D01*
X9023Y8603D01*
X9023Y8603D01*
X9023Y8604D01*
X9022Y8605D01*
X9022Y8606D01*
X9022Y8607D01*
X9022Y8608D01*
Y8631D01*
X9027D01*
Y8608D01*
Y8608D01*
Y8608D01*
Y8608D01*
X9027Y8607D01*
Y8606D01*
X9027Y8606D01*
X9027Y8605D01*
X9027Y8604D01*
Y8604D01*
X9027Y8604D01*
X9027Y8604D01*
X9027Y8603D01*
X9028Y8603D01*
X9028Y8602D01*
X9028Y8601D01*
X9028Y8601D01*
X9029Y8601D01*
X9029Y8601D01*
X9029Y8601D01*
X9029Y8600D01*
X9030Y8600D01*
X9030Y8599D01*
X9031Y8599D01*
X9031Y8599D01*
X9031Y8599D01*
X9032Y8599D01*
X9032Y8599D01*
X9033Y8599D01*
X9033Y8599D01*
X9034Y8599D01*
X9035Y8598D01*
X9035D01*
X9036Y8599D01*
X9036Y8599D01*
X9037Y8599D01*
X9038Y8599D01*
X9038Y8599D01*
X9039Y8599D01*
X9039Y8599D01*
X9039Y8599D01*
X9040Y8599D01*
X9040Y8600D01*
X9040Y8600D01*
X9041Y8600D01*
X9041Y8601D01*
X9042Y8601D01*
X9042Y8601D01*
X9042Y8602D01*
X9042Y8602D01*
X9042Y8602D01*
X9042Y8603D01*
X9042Y8603D01*
X9043Y8604D01*
Y8604D01*
X9043Y8605D01*
X9043Y8605D01*
X9043Y8605D01*
X9043Y8606D01*
X9043Y8607D01*
X9043Y8608D01*
Y8608D01*
Y8631D01*
X9048D01*
Y8608D01*
D02*
G37*
G36*
X9066Y8631D02*
X9067D01*
X9068Y8631D01*
X9069Y8631D01*
X9070Y8631D01*
X9071Y8631D01*
X9071D01*
X9071Y8631D01*
X9072Y8630D01*
X9072Y8630D01*
X9073Y8630D01*
X9074Y8630D01*
X9076Y8629D01*
Y8623D01*
X9075D01*
X9075Y8623D01*
X9075Y8624D01*
X9075Y8624D01*
X9074Y8624D01*
X9073Y8625D01*
X9073Y8625D01*
X9072Y8626D01*
X9071Y8626D01*
X9071D01*
X9071Y8626D01*
X9070Y8626D01*
X9070Y8626D01*
X9069Y8627D01*
X9068Y8627D01*
X9067Y8627D01*
X9066Y8627D01*
X9065Y8627D01*
X9065D01*
X9064Y8627D01*
X9064Y8627D01*
X9063Y8627D01*
X9062Y8627D01*
X9061Y8626D01*
X9060Y8626D01*
X9060Y8626D01*
X9060Y8625D01*
X9059Y8625D01*
X9059Y8625D01*
X9059Y8624D01*
X9058Y8623D01*
X9058Y8622D01*
X9058Y8622D01*
Y8621D01*
Y8621D01*
X9058Y8621D01*
X9058Y8620D01*
X9058Y8620D01*
X9059Y8619D01*
X9059Y8619D01*
X9059Y8618D01*
X9059Y8618D01*
X9059Y8618D01*
X9060Y8618D01*
X9060Y8617D01*
X9061Y8617D01*
X9061Y8617D01*
X9062Y8616D01*
X9063Y8616D01*
X9063D01*
X9063Y8616D01*
X9063Y8616D01*
X9064Y8616D01*
X9064Y8616D01*
X9065Y8615D01*
X9066Y8615D01*
X9066Y8615D01*
X9066D01*
X9067Y8615D01*
X9067Y8615D01*
X9068Y8615D01*
X9068Y8615D01*
X9069Y8614D01*
X9069Y8614D01*
X9070Y8614D01*
X9070D01*
X9070Y8614D01*
X9070Y8614D01*
X9071Y8614D01*
X9071Y8614D01*
X9072Y8613D01*
X9073Y8613D01*
X9074Y8612D01*
X9075Y8612D01*
X9075Y8611D01*
X9075Y8611D01*
X9076Y8610D01*
X9076Y8610D01*
X9076Y8609D01*
X9076Y8608D01*
X9077Y8607D01*
X9077Y8606D01*
X9077Y8605D01*
Y8605D01*
Y8605D01*
X9077Y8604D01*
X9077Y8604D01*
X9077Y8603D01*
X9077Y8603D01*
X9076Y8602D01*
X9076Y8601D01*
X9076Y8601D01*
X9076Y8601D01*
X9076Y8600D01*
X9076Y8600D01*
X9075Y8599D01*
X9075Y8599D01*
X9074Y8598D01*
X9074Y8598D01*
X9074Y8598D01*
X9074Y8597D01*
X9073Y8597D01*
X9073Y8597D01*
X9072Y8596D01*
X9071Y8596D01*
X9071Y8596D01*
X9070Y8595D01*
X9070Y8595D01*
X9069Y8595D01*
X9069Y8595D01*
X9068Y8595D01*
X9068Y8595D01*
X9067Y8595D01*
X9066Y8595D01*
X9065Y8594D01*
X9064D01*
X9063Y8595D01*
X9062Y8595D01*
X9061Y8595D01*
X9060Y8595D01*
X9059Y8595D01*
X9058Y8595D01*
X9058D01*
X9058Y8595D01*
X9057Y8595D01*
X9057Y8596D01*
X9056Y8596D01*
X9055Y8596D01*
X9055Y8596D01*
X9053Y8597D01*
Y8603D01*
X9053D01*
X9053Y8603D01*
X9054Y8603D01*
X9054Y8602D01*
X9055Y8602D01*
X9055Y8601D01*
X9056Y8601D01*
X9057Y8600D01*
X9058Y8600D01*
X9059D01*
X9059Y8600D01*
X9059Y8600D01*
X9059Y8600D01*
X9060Y8599D01*
X9060Y8599D01*
X9061Y8599D01*
X9062Y8599D01*
X9063Y8599D01*
X9064Y8599D01*
X9065D01*
X9065Y8599D01*
X9065Y8599D01*
X9066Y8599D01*
X9067Y8599D01*
X9068Y8599D01*
X9069Y8600D01*
X9070Y8600D01*
X9070Y8600D01*
X9070Y8600D01*
X9071Y8601D01*
X9071Y8601D01*
X9071Y8602D01*
X9072Y8603D01*
X9072Y8604D01*
X9072Y8604D01*
Y8605D01*
Y8605D01*
X9072Y8605D01*
X9072Y8606D01*
X9072Y8606D01*
X9072Y8607D01*
X9071Y8607D01*
X9071Y8608D01*
X9071Y8608D01*
X9071Y8608D01*
X9071Y8608D01*
X9070Y8609D01*
X9070Y8609D01*
X9069Y8609D01*
X9069Y8610D01*
X9068Y8610D01*
X9068D01*
X9067Y8610D01*
X9067Y8610D01*
X9067Y8610D01*
X9066Y8610D01*
X9066Y8610D01*
X9065Y8611D01*
X9065D01*
X9064Y8611D01*
X9064Y8611D01*
X9064Y8611D01*
X9063Y8611D01*
X9063Y8611D01*
X9062Y8611D01*
X9061Y8612D01*
X9061D01*
X9061Y8612D01*
X9061Y8612D01*
X9060Y8612D01*
X9060Y8612D01*
X9059Y8612D01*
X9058Y8613D01*
X9058Y8613D01*
X9058Y8613D01*
X9057Y8613D01*
X9057Y8613D01*
X9056Y8614D01*
X9055Y8615D01*
X9055Y8615D01*
X9055Y8615D01*
X9055Y8615D01*
X9055Y8615D01*
X9055Y8616D01*
X9054Y8616D01*
X9054Y8617D01*
Y8617D01*
X9054Y8618D01*
X9054Y8618D01*
X9053Y8618D01*
X9053Y8619D01*
X9053Y8620D01*
X9053Y8620D01*
Y8621D01*
Y8621D01*
Y8621D01*
Y8622D01*
X9053Y8622D01*
X9053Y8622D01*
X9053Y8623D01*
X9054Y8624D01*
X9054Y8625D01*
X9054Y8625D01*
X9055Y8626D01*
X9055Y8627D01*
X9055Y8627D01*
X9056Y8628D01*
X9056Y8628D01*
X9056Y8628D01*
X9057Y8628D01*
X9057Y8629D01*
X9057Y8629D01*
X9057Y8629D01*
X9058Y8629D01*
X9058Y8630D01*
X9059Y8630D01*
X9059Y8630D01*
X9060Y8630D01*
X9061Y8631D01*
X9061Y8631D01*
X9063Y8631D01*
X9064Y8631D01*
X9065Y8631D01*
X9066D01*
X9066Y8631D01*
D02*
G37*
G36*
X9400Y8116D02*
X9386Y8104D01*
Y8099D01*
X9400D01*
Y8094D01*
X9365D01*
Y8103D01*
Y8103D01*
Y8104D01*
Y8104D01*
Y8104D01*
Y8104D01*
X9365Y8105D01*
Y8106D01*
X9365Y8107D01*
X9365Y8108D01*
X9365Y8109D01*
Y8109D01*
X9365Y8109D01*
X9365Y8109D01*
X9365Y8110D01*
X9365Y8110D01*
X9366Y8111D01*
X9366Y8112D01*
X9366Y8112D01*
X9367Y8112D01*
X9367Y8113D01*
X9367Y8113D01*
X9367Y8114D01*
X9368Y8114D01*
X9368Y8114D01*
X9369Y8115D01*
X9370Y8115D01*
X9370Y8115D01*
X9370Y8116D01*
X9370Y8116D01*
X9371Y8116D01*
X9372Y8116D01*
X9372Y8116D01*
X9373Y8116D01*
X9374Y8116D01*
X9375D01*
X9375Y8116D01*
X9375D01*
X9376Y8116D01*
X9377Y8116D01*
X9378Y8116D01*
X9379Y8116D01*
X9380Y8115D01*
X9381Y8114D01*
X9381Y8114D01*
X9381Y8114D01*
X9382Y8114D01*
X9382Y8113D01*
X9383Y8112D01*
X9384Y8111D01*
X9384Y8110D01*
X9385Y8109D01*
X9400Y8122D01*
Y8116D01*
D02*
G37*
G36*
X9384Y8017D02*
X9384D01*
X9385Y8017D01*
X9386Y8017D01*
X9388Y8017D01*
X9389Y8017D01*
X9390Y8016D01*
X9390D01*
X9390Y8016D01*
X9391Y8016D01*
X9391Y8016D01*
X9391Y8016D01*
X9392Y8016D01*
X9393Y8015D01*
X9394Y8015D01*
X9395Y8014D01*
X9396Y8013D01*
X9396Y8013D01*
X9396Y8013D01*
X9397Y8012D01*
X9397Y8012D01*
X9398Y8011D01*
X9399Y8010D01*
X9399Y8009D01*
X9400Y8008D01*
Y8008D01*
X9400Y8008D01*
X9400Y8008D01*
X9400Y8008D01*
X9400Y8007D01*
X9400Y8006D01*
X9400Y8005D01*
X9401Y8004D01*
X9401Y8003D01*
X9401Y8002D01*
Y8002D01*
Y8002D01*
Y8001D01*
Y8001D01*
X9401Y8001D01*
Y8000D01*
X9401Y8000D01*
X9401Y7999D01*
X9400Y7997D01*
X9400Y7996D01*
X9400Y7995D01*
Y7995D01*
X9400Y7995D01*
X9400Y7995D01*
X9399Y7995D01*
X9399Y7994D01*
X9399Y7994D01*
X9398Y7993D01*
X9398Y7992D01*
X9397Y7991D01*
X9396Y7990D01*
X9396Y7990D01*
X9396Y7990D01*
X9395Y7990D01*
X9394Y7989D01*
X9394Y7989D01*
X9393Y7988D01*
X9391Y7988D01*
X9390Y7987D01*
X9390D01*
X9390Y7987D01*
X9390Y7987D01*
X9390Y7987D01*
X9389Y7987D01*
X9389Y7987D01*
X9388Y7987D01*
X9388Y7987D01*
X9387Y7986D01*
X9385Y7986D01*
X9384Y7986D01*
X9382Y7986D01*
X9382D01*
X9381Y7986D01*
X9381D01*
X9380Y7986D01*
X9379Y7986D01*
X9377Y7986D01*
X9376Y7987D01*
X9375Y7987D01*
X9374D01*
X9374Y7987D01*
X9374Y7987D01*
X9374Y7987D01*
X9373Y7988D01*
X9373Y7988D01*
X9372Y7988D01*
X9371Y7989D01*
X9370Y7990D01*
X9369Y7990D01*
X9369Y7990D01*
X9368Y7991D01*
X9368Y7991D01*
X9367Y7992D01*
X9367Y7992D01*
X9366Y7993D01*
X9366Y7994D01*
X9365Y7995D01*
Y7995D01*
X9365Y7995D01*
X9365Y7996D01*
X9365Y7996D01*
X9365Y7996D01*
X9364Y7997D01*
X9364Y7998D01*
X9364Y7999D01*
X9364Y8000D01*
X9364Y8002D01*
Y8002D01*
Y8002D01*
Y8002D01*
Y8002D01*
X9364Y8003D01*
Y8003D01*
X9364Y8004D01*
X9364Y8005D01*
X9364Y8006D01*
X9365Y8007D01*
X9365Y8008D01*
Y8008D01*
X9365Y8008D01*
X9365Y8009D01*
X9365Y8009D01*
X9366Y8009D01*
X9366Y8010D01*
X9367Y8011D01*
X9367Y8012D01*
X9368Y8012D01*
X9369Y8013D01*
X9369Y8013D01*
X9369Y8014D01*
X9370Y8014D01*
X9370Y8014D01*
X9371Y8015D01*
X9372Y8015D01*
X9373Y8016D01*
X9375Y8016D01*
X9375D01*
X9375Y8016D01*
X9375Y8017D01*
X9375Y8017D01*
X9375Y8017D01*
X9376Y8017D01*
X9376Y8017D01*
X9377Y8017D01*
X9378Y8017D01*
X9379Y8017D01*
X9381Y8017D01*
X9382Y8018D01*
X9383D01*
X9384Y8017D01*
D02*
G37*
G36*
X9400Y8054D02*
Y8048D01*
X9371Y8041D01*
X9400Y8034D01*
Y8029D01*
X9365Y8020D01*
Y8025D01*
X9394Y8032D01*
X9365Y8039D01*
Y8044D01*
X9394Y8051D01*
X9365Y8058D01*
Y8063D01*
X9400Y8054D01*
D02*
G37*
G36*
Y8067D02*
X9365D01*
Y8089D01*
X9369D01*
Y8072D01*
X9379D01*
Y8088D01*
X9383D01*
Y8072D01*
X9396D01*
Y8089D01*
X9400D01*
Y8067D01*
D02*
G37*
G36*
X9690Y8642D02*
X9690D01*
X9691Y8642D01*
X9692Y8642D01*
X9692D01*
X9692Y8642D01*
X9693Y8642D01*
X9693Y8642D01*
X9694Y8642D01*
X9694Y8642D01*
X9695Y8641D01*
X9695D01*
X9695Y8641D01*
X9696Y8641D01*
X9696Y8641D01*
X9696Y8641D01*
X9697Y8641D01*
X9698Y8640D01*
X9698D01*
X9698Y8640D01*
X9698Y8640D01*
X9699Y8640D01*
X9699Y8640D01*
X9700Y8639D01*
Y8634D01*
X9700D01*
X9700Y8634D01*
X9700Y8634D01*
X9699Y8634D01*
X9699Y8634D01*
X9699Y8634D01*
X9698Y8635D01*
X9698Y8635D01*
X9698Y8635D01*
X9698Y8635D01*
X9697Y8635D01*
X9697Y8636D01*
X9697Y8636D01*
X9696Y8636D01*
X9695Y8636D01*
X9695Y8637D01*
X9695Y8637D01*
X9695Y8637D01*
X9694Y8637D01*
X9694Y8637D01*
X9693Y8637D01*
X9693Y8638D01*
X9692Y8638D01*
X9692D01*
X9692Y8638D01*
X9691Y8638D01*
X9691Y8638D01*
X9690Y8638D01*
X9690Y8638D01*
X9689Y8638D01*
X9688D01*
X9687Y8638D01*
X9687Y8638D01*
X9686Y8638D01*
X9686Y8638D01*
X9685Y8638D01*
X9684Y8638D01*
X9684Y8637D01*
X9683Y8637D01*
X9682Y8637D01*
X9682Y8636D01*
X9681Y8636D01*
X9680Y8635D01*
X9680Y8634D01*
X9680Y8634D01*
X9680Y8634D01*
X9680Y8634D01*
X9679Y8634D01*
X9679Y8633D01*
X9679Y8633D01*
X9679Y8632D01*
X9678Y8632D01*
X9678Y8631D01*
X9678Y8630D01*
X9677Y8629D01*
X9677Y8628D01*
X9677Y8627D01*
X9677Y8626D01*
X9677Y8625D01*
X9677Y8624D01*
Y8624D01*
Y8624D01*
Y8624D01*
Y8623D01*
Y8623D01*
X9677Y8623D01*
X9677Y8622D01*
X9677Y8621D01*
X9677Y8620D01*
X9677Y8619D01*
X9677Y8618D01*
Y8618D01*
X9678Y8618D01*
X9678Y8617D01*
X9678Y8617D01*
X9678Y8616D01*
X9678Y8615D01*
X9679Y8615D01*
X9679Y8614D01*
X9680Y8613D01*
X9680Y8613D01*
X9680Y8613D01*
X9680Y8613D01*
X9681Y8612D01*
X9681Y8612D01*
X9682Y8611D01*
X9683Y8611D01*
X9684Y8610D01*
X9684Y8610D01*
X9684Y8610D01*
X9684Y8610D01*
X9685Y8610D01*
X9686Y8610D01*
X9687Y8610D01*
X9687Y8610D01*
X9688Y8609D01*
X9689D01*
X9690Y8610D01*
X9690D01*
X9691Y8610D01*
X9692Y8610D01*
X9692D01*
X9693Y8610D01*
X9693Y8610D01*
X9694Y8610D01*
X9694Y8610D01*
X9695Y8610D01*
X9696Y8611D01*
Y8620D01*
X9688D01*
Y8624D01*
X9700D01*
Y8608D01*
X9700D01*
X9700Y8608D01*
X9700Y8608D01*
X9700Y8608D01*
X9699Y8608D01*
X9699Y8608D01*
X9699Y8608D01*
X9698Y8607D01*
X9698D01*
X9698Y8607D01*
X9697Y8607D01*
X9697Y8607D01*
X9697Y8607D01*
X9696Y8607D01*
X9695Y8606D01*
X9695D01*
X9695Y8606D01*
X9695Y8606D01*
X9694Y8606D01*
X9694Y8606D01*
X9693Y8606D01*
X9692Y8606D01*
X9692D01*
X9692Y8606D01*
X9691Y8606D01*
X9691D01*
X9691Y8605D01*
X9690Y8605D01*
X9689Y8605D01*
X9688D01*
X9688Y8605D01*
X9687D01*
X9686Y8606D01*
X9685Y8606D01*
X9684Y8606D01*
X9683Y8606D01*
X9682Y8606D01*
X9682D01*
X9682Y8607D01*
X9681Y8607D01*
X9681Y8607D01*
X9681Y8607D01*
X9680Y8607D01*
X9679Y8608D01*
X9678Y8608D01*
X9677Y8609D01*
X9676Y8610D01*
X9676Y8610D01*
X9676Y8610D01*
X9676Y8611D01*
X9675Y8612D01*
X9675Y8612D01*
X9674Y8613D01*
X9673Y8615D01*
X9673Y8616D01*
Y8616D01*
X9673Y8616D01*
X9673Y8616D01*
X9673Y8616D01*
X9673Y8617D01*
X9673Y8617D01*
X9672Y8618D01*
X9672Y8618D01*
X9672Y8619D01*
X9672Y8621D01*
X9672Y8622D01*
X9672Y8624D01*
Y8624D01*
Y8624D01*
Y8624D01*
Y8625D01*
X9672Y8625D01*
Y8625D01*
X9672Y8626D01*
X9672Y8628D01*
X9672Y8629D01*
X9673Y8630D01*
X9673Y8632D01*
Y8632D01*
X9673Y8632D01*
X9673Y8632D01*
X9673Y8632D01*
X9673Y8633D01*
X9674Y8634D01*
X9674Y8634D01*
X9675Y8635D01*
X9676Y8636D01*
X9676Y8637D01*
X9676Y8638D01*
X9677Y8638D01*
X9677Y8638D01*
X9678Y8639D01*
X9679Y8639D01*
X9680Y8640D01*
X9681Y8640D01*
X9682Y8641D01*
X9682D01*
X9682Y8641D01*
X9682Y8641D01*
X9682Y8641D01*
X9683Y8641D01*
X9683Y8641D01*
X9684Y8642D01*
X9685Y8642D01*
X9686Y8642D01*
X9687Y8642D01*
X9689Y8642D01*
X9689D01*
X9690Y8642D01*
D02*
G37*
G36*
X9737D02*
X9737D01*
X9738Y8642D01*
X9739Y8642D01*
X9740Y8642D01*
X9741Y8642D01*
X9741D01*
X9742Y8642D01*
X9742Y8641D01*
X9743Y8641D01*
X9744Y8641D01*
X9744Y8641D01*
X9746Y8640D01*
Y8634D01*
X9746D01*
X9746Y8634D01*
X9745Y8635D01*
X9745Y8635D01*
X9745Y8635D01*
X9744Y8636D01*
X9743Y8636D01*
X9742Y8637D01*
X9741Y8637D01*
X9741D01*
X9741Y8637D01*
X9741Y8637D01*
X9740Y8637D01*
X9740Y8638D01*
X9739Y8638D01*
X9738Y8638D01*
X9737Y8638D01*
X9736Y8638D01*
X9735D01*
X9735Y8638D01*
X9734Y8638D01*
X9733Y8638D01*
X9732Y8638D01*
X9731Y8637D01*
X9731Y8637D01*
X9730Y8637D01*
X9730Y8636D01*
X9730Y8636D01*
X9730Y8636D01*
X9729Y8635D01*
X9729Y8634D01*
X9729Y8633D01*
X9729Y8633D01*
Y8632D01*
Y8632D01*
X9729Y8632D01*
X9729Y8631D01*
X9729Y8631D01*
X9729Y8630D01*
X9729Y8630D01*
X9730Y8629D01*
X9730Y8629D01*
X9730Y8629D01*
X9730Y8629D01*
X9731Y8628D01*
X9731Y8628D01*
X9732Y8628D01*
X9732Y8627D01*
X9733Y8627D01*
X9733D01*
X9733Y8627D01*
X9734Y8627D01*
X9734Y8627D01*
X9735Y8627D01*
X9735Y8626D01*
X9736Y8626D01*
X9737Y8626D01*
X9737D01*
X9737Y8626D01*
X9738Y8626D01*
X9738Y8626D01*
X9739Y8626D01*
X9739Y8625D01*
X9740Y8625D01*
X9740Y8625D01*
X9741D01*
X9741Y8625D01*
X9741Y8625D01*
X9741Y8625D01*
X9742Y8625D01*
X9742Y8624D01*
X9743Y8624D01*
X9744Y8623D01*
X9745Y8623D01*
X9746Y8622D01*
X9746Y8622D01*
X9746Y8621D01*
X9746Y8621D01*
X9747Y8620D01*
X9747Y8619D01*
X9747Y8618D01*
X9747Y8617D01*
X9748Y8616D01*
Y8616D01*
Y8616D01*
X9747Y8615D01*
X9747Y8615D01*
X9747Y8614D01*
X9747Y8614D01*
X9747Y8613D01*
X9747Y8612D01*
X9747Y8612D01*
X9746Y8612D01*
X9746Y8611D01*
X9746Y8611D01*
X9746Y8610D01*
X9745Y8610D01*
X9745Y8609D01*
X9744Y8609D01*
X9744Y8609D01*
X9744Y8608D01*
X9744Y8608D01*
X9743Y8608D01*
X9743Y8607D01*
X9742Y8607D01*
X9741Y8607D01*
X9740Y8606D01*
X9740Y8606D01*
X9740Y8606D01*
X9740Y8606D01*
X9739Y8606D01*
X9738Y8606D01*
X9737Y8606D01*
X9736Y8606D01*
X9735Y8605D01*
X9734D01*
X9734Y8606D01*
X9733Y8606D01*
X9732Y8606D01*
X9731Y8606D01*
X9729Y8606D01*
X9728Y8606D01*
X9728D01*
X9728Y8606D01*
X9728Y8606D01*
X9727Y8607D01*
X9727Y8607D01*
X9726Y8607D01*
X9725Y8607D01*
X9723Y8608D01*
Y8614D01*
X9724D01*
X9724Y8614D01*
X9724Y8614D01*
X9725Y8613D01*
X9725Y8613D01*
X9726Y8612D01*
X9727Y8612D01*
X9728Y8611D01*
X9729Y8611D01*
X9729D01*
X9729Y8611D01*
X9729Y8611D01*
X9729Y8611D01*
X9730Y8610D01*
X9731Y8610D01*
X9732Y8610D01*
X9733Y8610D01*
X9734Y8610D01*
X9735Y8610D01*
X9735D01*
X9736Y8610D01*
X9736Y8610D01*
X9737Y8610D01*
X9738Y8610D01*
X9739Y8610D01*
X9740Y8611D01*
X9741Y8611D01*
X9741Y8611D01*
X9741Y8611D01*
X9741Y8612D01*
X9742Y8612D01*
X9742Y8613D01*
X9742Y8614D01*
X9742Y8615D01*
X9743Y8615D01*
Y8616D01*
Y8616D01*
X9743Y8616D01*
X9742Y8617D01*
X9742Y8617D01*
X9742Y8618D01*
X9742Y8618D01*
X9742Y8619D01*
X9741Y8619D01*
X9741Y8619D01*
X9741Y8619D01*
X9741Y8620D01*
X9740Y8620D01*
X9740Y8620D01*
X9739Y8621D01*
X9738Y8621D01*
X9738D01*
X9738Y8621D01*
X9738Y8621D01*
X9737Y8621D01*
X9737Y8621D01*
X9736Y8621D01*
X9735Y8622D01*
X9735D01*
X9735Y8622D01*
X9735Y8622D01*
X9734Y8622D01*
X9734Y8622D01*
X9733Y8622D01*
X9732Y8622D01*
X9732Y8623D01*
X9732D01*
X9731Y8623D01*
X9731Y8623D01*
X9731Y8623D01*
X9730Y8623D01*
X9730Y8623D01*
X9728Y8624D01*
X9728Y8624D01*
X9728Y8624D01*
X9728Y8624D01*
X9728Y8624D01*
X9727Y8625D01*
X9726Y8626D01*
X9726Y8626D01*
X9726Y8626D01*
X9726Y8626D01*
X9725Y8626D01*
X9725Y8627D01*
X9725Y8627D01*
X9724Y8628D01*
Y8628D01*
X9724Y8629D01*
X9724Y8629D01*
X9724Y8629D01*
X9724Y8630D01*
X9724Y8631D01*
X9724Y8631D01*
Y8632D01*
Y8632D01*
Y8632D01*
Y8633D01*
X9724Y8633D01*
X9724Y8633D01*
X9724Y8634D01*
X9724Y8635D01*
X9724Y8636D01*
X9725Y8636D01*
X9725Y8637D01*
X9725Y8638D01*
X9726Y8638D01*
X9726Y8639D01*
X9727Y8639D01*
X9727Y8639D01*
X9727Y8639D01*
X9727Y8640D01*
X9728Y8640D01*
X9728Y8640D01*
X9728Y8640D01*
X9729Y8641D01*
X9729Y8641D01*
X9730Y8641D01*
X9731Y8641D01*
X9731Y8642D01*
X9732Y8642D01*
X9734Y8642D01*
X9735Y8642D01*
X9736Y8642D01*
X9736D01*
X9737Y8642D01*
D02*
G37*
G36*
X8965Y8610D02*
X8965Y8610D01*
X8966Y8610D01*
X8967Y8610D01*
X8968Y8609D01*
X8969Y8609D01*
X8969Y8608D01*
X8970Y8608D01*
X8971Y8607D01*
X8971Y8607D01*
Y8607D01*
X8971Y8607D01*
X8971Y8607D01*
X8972Y8606D01*
X8972Y8606D01*
X8972Y8606D01*
X8972Y8605D01*
X8972Y8605D01*
X8973Y8604D01*
X8973Y8603D01*
X8974Y8601D01*
X8974Y8600D01*
X8974Y8599D01*
Y8599D01*
Y8599D01*
Y8599D01*
X8974Y8599D01*
Y8598D01*
X8974Y8598D01*
X8973Y8597D01*
X8973Y8596D01*
Y8596D01*
X8973Y8596D01*
X8973Y8596D01*
X8973Y8595D01*
X8973Y8595D01*
X8973Y8594D01*
X8973Y8594D01*
X8973Y8593D01*
X8968D01*
Y8593D01*
Y8593D01*
X8968Y8593D01*
X8969Y8594D01*
X8969Y8594D01*
X8969Y8594D01*
X8969Y8595D01*
X8969Y8596D01*
Y8596D01*
X8969Y8596D01*
X8969Y8596D01*
X8969Y8597D01*
X8969Y8597D01*
X8969Y8598D01*
X8970Y8599D01*
Y8599D01*
Y8599D01*
Y8599D01*
X8969Y8600D01*
X8969Y8601D01*
X8969Y8601D01*
X8969Y8602D01*
X8969Y8602D01*
Y8602D01*
X8969Y8602D01*
X8969Y8603D01*
X8969Y8603D01*
X8968Y8604D01*
X8968Y8604D01*
X8968Y8604D01*
X8968Y8604D01*
X8967Y8604D01*
X8967Y8604D01*
X8967Y8604D01*
X8967Y8605D01*
X8966Y8605D01*
X8965Y8605D01*
X8965D01*
X8965Y8605D01*
X8965D01*
X8964Y8605D01*
X8964Y8605D01*
X8963D01*
X8963Y8605D01*
X8941D01*
Y8598D01*
X8938D01*
Y8610D01*
X8964D01*
X8965Y8610D01*
D02*
G37*
G36*
X9806Y8642D02*
X9807Y8642D01*
X9809Y8641D01*
X9810Y8641D01*
X9811Y8641D01*
X9812Y8641D01*
X9812D01*
X9813Y8641D01*
X9813Y8641D01*
X9813Y8641D01*
X9814Y8640D01*
X9815Y8640D01*
X9816Y8640D01*
X9816Y8639D01*
X9817Y8639D01*
X9817D01*
X9817Y8639D01*
X9818Y8639D01*
X9818Y8638D01*
X9818Y8638D01*
X9819Y8637D01*
X9820Y8636D01*
X9821Y8635D01*
X9822Y8634D01*
X9823Y8633D01*
Y8633D01*
X9823Y8633D01*
X9823Y8632D01*
X9823Y8632D01*
X9823Y8632D01*
X9823Y8631D01*
X9823Y8631D01*
X9824Y8630D01*
X9824Y8630D01*
X9824Y8629D01*
X9824Y8627D01*
X9824Y8626D01*
X9824Y8624D01*
Y8624D01*
Y8624D01*
Y8623D01*
X9824Y8623D01*
Y8623D01*
X9824Y8622D01*
X9824Y8621D01*
X9824Y8621D01*
X9824Y8620D01*
X9824Y8618D01*
X9823Y8617D01*
X9823Y8615D01*
Y8615D01*
X9822Y8615D01*
X9822Y8615D01*
X9822Y8614D01*
X9822Y8614D01*
X9822Y8614D01*
X9821Y8613D01*
X9820Y8612D01*
X9819Y8611D01*
X9818Y8610D01*
X9817Y8609D01*
X9817D01*
X9817Y8609D01*
X9817Y8609D01*
X9816Y8608D01*
X9816Y8608D01*
X9815Y8608D01*
X9814Y8607D01*
X9813Y8607D01*
X9812Y8607D01*
X9812D01*
X9811Y8607D01*
X9811Y8607D01*
X9811D01*
X9811Y8606D01*
X9810Y8606D01*
X9809Y8606D01*
X9808Y8606D01*
X9806Y8606D01*
X9796D01*
Y8642D01*
X9806D01*
X9806Y8642D01*
D02*
G37*
G36*
X9609Y8615D02*
Y8615D01*
Y8615D01*
Y8615D01*
X9609Y8615D01*
X9609Y8614D01*
X9609Y8614D01*
X9609Y8613D01*
X9608Y8611D01*
X9608Y8610D01*
X9607Y8610D01*
X9607Y8609D01*
X9607Y8609D01*
X9606Y8608D01*
X9606D01*
X9606Y8608D01*
X9606Y8608D01*
X9606Y8608D01*
X9605Y8608D01*
X9605Y8607D01*
X9604Y8607D01*
X9604Y8607D01*
X9603Y8606D01*
X9602Y8606D01*
X9600Y8606D01*
X9599Y8606D01*
X9598Y8606D01*
X9598D01*
X9598Y8606D01*
X9597D01*
X9597Y8606D01*
X9596Y8606D01*
X9595Y8606D01*
X9595D01*
X9595Y8606D01*
X9595Y8606D01*
X9594Y8606D01*
X9594Y8606D01*
X9593Y8606D01*
X9593Y8606D01*
X9592Y8606D01*
Y8611D01*
X9592D01*
X9593Y8611D01*
X9593Y8611D01*
X9593Y8611D01*
X9593Y8610D01*
X9594Y8610D01*
X9595Y8610D01*
X9595D01*
X9595Y8610D01*
X9595Y8610D01*
X9596Y8610D01*
X9596Y8610D01*
X9597Y8610D01*
X9598Y8610D01*
X9599D01*
X9599Y8610D01*
X9600Y8610D01*
X9600Y8610D01*
X9601Y8610D01*
X9601Y8610D01*
X9601D01*
X9601Y8610D01*
X9602Y8610D01*
X9602Y8611D01*
X9603Y8611D01*
X9603Y8611D01*
X9603Y8612D01*
X9603Y8612D01*
X9603Y8612D01*
X9603Y8612D01*
X9604Y8612D01*
X9604Y8613D01*
X9604Y8613D01*
X9604Y8614D01*
Y8614D01*
X9604Y8614D01*
Y8614D01*
X9604Y8615D01*
X9604Y8615D01*
Y8616D01*
X9604Y8616D01*
Y8617D01*
Y8638D01*
X9597D01*
Y8642D01*
X9609D01*
Y8615D01*
D02*
G37*
G36*
X9783Y8606D02*
X9778D01*
X9771Y8636D01*
X9764Y8606D01*
X9758D01*
X9749Y8642D01*
X9754D01*
X9761Y8612D01*
X9769Y8642D01*
X9773D01*
X9780Y8612D01*
X9788Y8642D01*
X9792D01*
X9783Y8606D01*
D02*
G37*
G36*
X8956Y8645D02*
X8957D01*
X8957Y8645D01*
X8958Y8645D01*
X8958Y8645D01*
X8960Y8644D01*
X8961Y8644D01*
X8963Y8644D01*
X8964Y8643D01*
X8964D01*
X8964Y8643D01*
X8965Y8643D01*
X8965Y8642D01*
X8965Y8642D01*
X8966Y8642D01*
X8966Y8641D01*
X8967Y8641D01*
X8968Y8640D01*
X8969Y8639D01*
X8970Y8638D01*
Y8637D01*
X8970Y8637D01*
X8971Y8637D01*
X8971Y8637D01*
X8971Y8636D01*
X8972Y8635D01*
X8972Y8634D01*
X8972Y8633D01*
X8973Y8632D01*
Y8632D01*
Y8632D01*
X8973Y8632D01*
X8973Y8632D01*
Y8631D01*
X8973Y8631D01*
X8973Y8630D01*
X8973Y8629D01*
X8973Y8628D01*
X8973Y8627D01*
Y8625D01*
Y8617D01*
X8938D01*
Y8625D01*
Y8625D01*
Y8625D01*
Y8625D01*
Y8626D01*
Y8626D01*
X8938Y8627D01*
X8938Y8628D01*
X8938Y8629D01*
X8938Y8630D01*
X8938Y8632D01*
X8938Y8633D01*
Y8633D01*
X8938Y8633D01*
X8938Y8633D01*
X8939Y8634D01*
X8939Y8634D01*
X8939Y8635D01*
X8940Y8636D01*
X8940Y8637D01*
X8940Y8638D01*
Y8638D01*
X8941Y8638D01*
X8941Y8638D01*
X8941Y8638D01*
X8941Y8639D01*
X8942Y8640D01*
X8943Y8640D01*
X8944Y8641D01*
X8945Y8642D01*
X8946Y8643D01*
X8947D01*
X8947Y8643D01*
X8947Y8643D01*
X8947Y8643D01*
X8947Y8643D01*
X8948Y8644D01*
X8948Y8644D01*
X8949Y8644D01*
X8950Y8644D01*
X8950Y8644D01*
X8952Y8645D01*
X8954Y8645D01*
X8955Y8645D01*
X8956D01*
X8956Y8645D01*
D02*
G37*
G36*
X8971Y8755D02*
X8971Y8755D01*
X8971Y8755D01*
X8971Y8755D01*
X8971Y8754D01*
X8971Y8754D01*
X8972Y8753D01*
X8972Y8753D01*
Y8753D01*
X8972Y8753D01*
X8972Y8752D01*
X8972Y8752D01*
X8972Y8752D01*
X8973Y8751D01*
X8973Y8750D01*
Y8750D01*
X8973Y8750D01*
X8973Y8749D01*
X8973Y8749D01*
X8973Y8749D01*
X8973Y8748D01*
X8974Y8747D01*
Y8747D01*
X8974Y8747D01*
X8974Y8746D01*
Y8746D01*
X8974Y8745D01*
X8974Y8745D01*
X8974Y8744D01*
Y8743D01*
Y8743D01*
Y8743D01*
Y8743D01*
Y8743D01*
X8974Y8743D01*
Y8742D01*
X8974Y8741D01*
X8974Y8740D01*
X8973Y8739D01*
X8973Y8738D01*
X8973Y8737D01*
Y8737D01*
X8973Y8736D01*
X8973Y8736D01*
X8973Y8736D01*
X8972Y8736D01*
X8972Y8735D01*
X8971Y8734D01*
X8971Y8733D01*
X8970Y8732D01*
X8969Y8731D01*
X8969Y8731D01*
X8969Y8731D01*
X8968Y8730D01*
X8968Y8730D01*
X8967Y8729D01*
X8966Y8729D01*
X8965Y8728D01*
X8963Y8728D01*
X8963D01*
X8963Y8728D01*
X8963Y8728D01*
X8963Y8728D01*
X8962Y8728D01*
X8962Y8727D01*
X8962Y8727D01*
X8961Y8727D01*
X8960Y8727D01*
X8959Y8727D01*
X8957Y8727D01*
X8955Y8727D01*
X8955D01*
X8954Y8727D01*
X8954D01*
X8953Y8727D01*
X8952Y8727D01*
X8950Y8727D01*
X8949Y8727D01*
X8948Y8728D01*
X8948D01*
X8948Y8728D01*
X8947Y8728D01*
X8947Y8728D01*
X8946Y8728D01*
X8946Y8729D01*
X8945Y8729D01*
X8944Y8730D01*
X8943Y8730D01*
X8942Y8731D01*
X8942Y8731D01*
X8941Y8732D01*
X8941Y8732D01*
X8941Y8733D01*
X8940Y8733D01*
X8939Y8734D01*
X8939Y8735D01*
X8938Y8737D01*
Y8737D01*
X8938Y8737D01*
X8938Y8737D01*
X8938Y8737D01*
X8938Y8737D01*
X8938Y8738D01*
X8938Y8739D01*
X8937Y8740D01*
X8937Y8741D01*
X8937Y8742D01*
X8937Y8744D01*
Y8744D01*
Y8744D01*
Y8744D01*
X8937Y8745D01*
Y8745D01*
X8937Y8746D01*
X8937Y8747D01*
Y8747D01*
X8937Y8747D01*
X8937Y8748D01*
X8937Y8748D01*
X8938Y8748D01*
X8938Y8749D01*
X8938Y8750D01*
Y8750D01*
X8938Y8750D01*
X8938Y8751D01*
X8938Y8751D01*
X8938Y8751D01*
X8939Y8752D01*
X8939Y8753D01*
Y8753D01*
X8939Y8753D01*
X8939Y8753D01*
X8939Y8754D01*
X8940Y8754D01*
X8940Y8755D01*
X8946D01*
Y8755D01*
X8946Y8755D01*
X8946Y8755D01*
X8945Y8754D01*
X8945Y8754D01*
X8945Y8754D01*
X8944Y8753D01*
X8944Y8753D01*
X8944Y8753D01*
X8944Y8753D01*
X8944Y8752D01*
X8944Y8752D01*
X8943Y8751D01*
X8943Y8751D01*
X8943Y8750D01*
X8943Y8750D01*
X8943Y8750D01*
X8942Y8750D01*
X8942Y8749D01*
X8942Y8749D01*
X8942Y8748D01*
X8942Y8748D01*
X8942Y8747D01*
Y8747D01*
X8942Y8747D01*
X8941Y8746D01*
X8941Y8746D01*
X8941Y8745D01*
X8941Y8744D01*
X8941Y8744D01*
Y8743D01*
Y8743D01*
Y8743D01*
Y8742D01*
X8941Y8742D01*
X8941Y8742D01*
X8941Y8741D01*
X8941Y8741D01*
X8942Y8740D01*
X8942Y8739D01*
X8942Y8739D01*
X8942Y8738D01*
X8943Y8737D01*
X8943Y8737D01*
X8944Y8736D01*
X8944Y8735D01*
X8945Y8735D01*
X8945Y8735D01*
X8945Y8735D01*
X8945Y8734D01*
X8946Y8734D01*
X8946Y8734D01*
X8947Y8734D01*
X8947Y8733D01*
X8948Y8733D01*
X8948Y8733D01*
X8949Y8733D01*
X8950Y8732D01*
X8951Y8732D01*
X8952Y8732D01*
X8953Y8732D01*
X8954Y8732D01*
X8955Y8732D01*
X8956D01*
X8957Y8732D01*
X8957Y8732D01*
X8958Y8732D01*
X8959Y8732D01*
X8960Y8732D01*
X8962Y8732D01*
X8962D01*
X8962Y8732D01*
X8962Y8733D01*
X8962Y8733D01*
X8963Y8733D01*
X8964Y8733D01*
X8965Y8734D01*
X8965Y8734D01*
X8966Y8735D01*
X8966Y8735D01*
X8966Y8735D01*
X8967Y8735D01*
X8967Y8736D01*
X8968Y8736D01*
X8968Y8737D01*
X8968Y8738D01*
X8969Y8738D01*
X8969Y8739D01*
X8969Y8739D01*
X8969Y8739D01*
X8969Y8740D01*
X8969Y8741D01*
X8970Y8741D01*
X8970Y8742D01*
X8970Y8743D01*
Y8743D01*
Y8744D01*
Y8744D01*
X8970Y8745D01*
Y8745D01*
X8970Y8746D01*
X8969Y8747D01*
Y8747D01*
X8969Y8748D01*
X8969Y8748D01*
X8969Y8748D01*
X8969Y8749D01*
X8969Y8749D01*
X8969Y8751D01*
X8959D01*
Y8742D01*
X8955D01*
Y8755D01*
X8971D01*
Y8755D01*
D02*
G37*
G36*
Y8788D02*
X8971Y8788D01*
X8971Y8788D01*
X8971Y8787D01*
X8971Y8787D01*
X8971Y8787D01*
X8972Y8786D01*
X8972Y8786D01*
Y8785D01*
X8972Y8785D01*
X8972Y8785D01*
X8972Y8785D01*
X8972Y8784D01*
X8973Y8784D01*
X8973Y8783D01*
Y8783D01*
X8973Y8782D01*
X8973Y8782D01*
X8973Y8782D01*
X8973Y8781D01*
X8973Y8781D01*
X8974Y8780D01*
Y8780D01*
X8974Y8779D01*
X8974Y8779D01*
Y8779D01*
X8974Y8778D01*
X8974Y8778D01*
X8974Y8777D01*
Y8776D01*
Y8776D01*
Y8776D01*
Y8776D01*
Y8776D01*
X8974Y8775D01*
Y8775D01*
X8974Y8774D01*
X8974Y8773D01*
X8973Y8772D01*
X8973Y8770D01*
X8973Y8769D01*
Y8769D01*
X8973Y8769D01*
X8973Y8769D01*
X8973Y8769D01*
X8972Y8768D01*
X8972Y8767D01*
X8971Y8767D01*
X8971Y8766D01*
X8970Y8765D01*
X8969Y8764D01*
X8969Y8764D01*
X8969Y8763D01*
X8968Y8763D01*
X8968Y8763D01*
X8967Y8762D01*
X8966Y8761D01*
X8965Y8761D01*
X8963Y8760D01*
X8963D01*
X8963Y8760D01*
X8963Y8760D01*
X8963Y8760D01*
X8962Y8760D01*
X8962Y8760D01*
X8962Y8760D01*
X8961Y8760D01*
X8960Y8760D01*
X8959Y8759D01*
X8957Y8759D01*
X8955Y8759D01*
X8955D01*
X8954Y8759D01*
X8954D01*
X8953Y8759D01*
X8952Y8760D01*
X8950Y8760D01*
X8949Y8760D01*
X8948Y8760D01*
X8948D01*
X8948Y8761D01*
X8947Y8761D01*
X8947Y8761D01*
X8946Y8761D01*
X8946Y8761D01*
X8945Y8762D01*
X8944Y8762D01*
X8943Y8763D01*
X8942Y8764D01*
X8942Y8764D01*
X8941Y8764D01*
X8941Y8765D01*
X8941Y8765D01*
X8940Y8766D01*
X8939Y8767D01*
X8939Y8768D01*
X8938Y8769D01*
Y8769D01*
X8938Y8769D01*
X8938Y8770D01*
X8938Y8770D01*
X8938Y8770D01*
X8938Y8770D01*
X8938Y8771D01*
X8937Y8772D01*
X8937Y8773D01*
X8937Y8775D01*
X8937Y8776D01*
Y8776D01*
Y8776D01*
Y8777D01*
X8937Y8777D01*
Y8778D01*
X8937Y8778D01*
X8937Y8780D01*
Y8780D01*
X8937Y8780D01*
X8937Y8780D01*
X8937Y8781D01*
X8938Y8781D01*
X8938Y8782D01*
X8938Y8783D01*
Y8783D01*
X8938Y8783D01*
X8938Y8783D01*
X8938Y8784D01*
X8938Y8784D01*
X8939Y8784D01*
X8939Y8785D01*
Y8785D01*
X8939Y8786D01*
X8939Y8786D01*
X8939Y8786D01*
X8940Y8787D01*
X8940Y8788D01*
X8946D01*
Y8787D01*
X8946Y8787D01*
X8946Y8787D01*
X8945Y8787D01*
X8945Y8787D01*
X8945Y8786D01*
X8944Y8786D01*
X8944Y8786D01*
X8944Y8785D01*
X8944Y8785D01*
X8944Y8785D01*
X8944Y8785D01*
X8943Y8784D01*
X8943Y8784D01*
X8943Y8783D01*
X8943Y8783D01*
X8943Y8783D01*
X8942Y8782D01*
X8942Y8782D01*
X8942Y8781D01*
X8942Y8781D01*
X8942Y8780D01*
X8942Y8780D01*
Y8780D01*
X8942Y8779D01*
X8941Y8779D01*
X8941Y8778D01*
X8941Y8778D01*
X8941Y8777D01*
X8941Y8776D01*
Y8776D01*
Y8776D01*
Y8775D01*
Y8775D01*
X8941Y8775D01*
X8941Y8774D01*
X8941Y8774D01*
X8941Y8773D01*
X8942Y8773D01*
X8942Y8772D01*
X8942Y8771D01*
X8942Y8771D01*
X8943Y8770D01*
X8943Y8769D01*
X8944Y8769D01*
X8944Y8768D01*
X8945Y8767D01*
X8945Y8767D01*
X8945Y8767D01*
X8945Y8767D01*
X8946Y8767D01*
X8946Y8767D01*
X8947Y8766D01*
X8947Y8766D01*
X8948Y8766D01*
X8948Y8766D01*
X8949Y8765D01*
X8950Y8765D01*
X8951Y8765D01*
X8952Y8765D01*
X8953Y8764D01*
X8954Y8764D01*
X8955Y8764D01*
X8956D01*
X8957Y8764D01*
X8957Y8764D01*
X8958Y8764D01*
X8959Y8765D01*
X8960Y8765D01*
X8962Y8765D01*
X8962D01*
X8962Y8765D01*
X8962Y8765D01*
X8962Y8765D01*
X8963Y8766D01*
X8964Y8766D01*
X8965Y8766D01*
X8965Y8767D01*
X8966Y8767D01*
X8966Y8767D01*
X8966Y8768D01*
X8967Y8768D01*
X8967Y8768D01*
X8968Y8769D01*
X8968Y8770D01*
X8968Y8770D01*
X8969Y8771D01*
X8969Y8771D01*
X8969Y8771D01*
X8969Y8772D01*
X8969Y8773D01*
X8969Y8773D01*
X8970Y8774D01*
X8970Y8775D01*
X8970Y8776D01*
Y8776D01*
Y8776D01*
Y8777D01*
X8970Y8777D01*
Y8778D01*
X8970Y8778D01*
X8969Y8780D01*
Y8780D01*
X8969Y8780D01*
X8969Y8781D01*
X8969Y8781D01*
X8969Y8782D01*
X8969Y8782D01*
X8969Y8783D01*
X8959D01*
Y8775D01*
X8955D01*
Y8788D01*
X8971D01*
Y8788D01*
D02*
G37*
G36*
X8973Y8815D02*
X8963Y8812D01*
Y8798D01*
X8973Y8795D01*
Y8790D01*
X8938Y8802D01*
Y8808D01*
X8973Y8820D01*
Y8815D01*
D02*
G37*
G36*
X8960Y8649D02*
X8955D01*
Y8662D01*
X8960D01*
Y8649D01*
D02*
G37*
G36*
X8963Y8692D02*
X8964Y8692D01*
X8965Y8692D01*
X8965Y8691D01*
X8966Y8691D01*
X8967Y8691D01*
X8967Y8691D01*
X8967Y8691D01*
X8968Y8690D01*
X8968Y8690D01*
X8969Y8690D01*
X8969Y8689D01*
X8970Y8689D01*
X8970Y8688D01*
X8970Y8688D01*
X8971Y8688D01*
X8971Y8687D01*
X8971Y8687D01*
X8972Y8686D01*
X8972Y8685D01*
X8972Y8685D01*
X8973Y8684D01*
Y8684D01*
X8973Y8683D01*
X8973Y8683D01*
X8973Y8682D01*
X8973Y8681D01*
X8973Y8680D01*
X8973Y8679D01*
X8973Y8678D01*
Y8668D01*
X8938D01*
Y8677D01*
Y8677D01*
Y8677D01*
Y8678D01*
Y8678D01*
Y8678D01*
X8938Y8679D01*
Y8680D01*
X8938Y8681D01*
X8938Y8682D01*
X8938Y8683D01*
Y8683D01*
X8938Y8683D01*
X8938Y8683D01*
X8938Y8684D01*
X8938Y8685D01*
X8938Y8685D01*
X8939Y8686D01*
X8939Y8686D01*
X8939Y8687D01*
X8939Y8687D01*
X8939Y8687D01*
X8940Y8688D01*
X8940Y8688D01*
X8941Y8688D01*
X8941Y8689D01*
X8942Y8689D01*
X8942Y8689D01*
X8942Y8689D01*
X8942Y8690D01*
X8943Y8690D01*
X8943Y8690D01*
X8944Y8690D01*
X8945Y8690D01*
X8946Y8690D01*
X8946D01*
X8947Y8690D01*
X8947Y8690D01*
X8948Y8690D01*
X8949Y8690D01*
X8949Y8689D01*
X8950Y8689D01*
X8950Y8689D01*
X8950Y8689D01*
X8951Y8688D01*
X8951Y8688D01*
X8952Y8687D01*
X8952Y8687D01*
X8953Y8686D01*
X8953Y8685D01*
X8953D01*
Y8685D01*
X8953Y8685D01*
X8954Y8685D01*
X8954Y8686D01*
X8954Y8686D01*
X8954Y8687D01*
X8955Y8688D01*
X8955Y8689D01*
X8956Y8689D01*
X8957Y8690D01*
X8957Y8690D01*
X8957Y8690D01*
X8957Y8691D01*
X8958Y8691D01*
X8959Y8691D01*
X8960Y8692D01*
X8961Y8692D01*
X8962Y8692D01*
X8963D01*
X8963Y8692D01*
D02*
G37*
G36*
X8961Y8722D02*
X8962Y8722D01*
X8963Y8722D01*
X8964Y8722D01*
X8965Y8721D01*
X8966Y8721D01*
X8966D01*
X8966Y8721D01*
X8967Y8721D01*
X8967Y8721D01*
X8968Y8720D01*
X8968Y8720D01*
X8969Y8720D01*
X8970Y8719D01*
X8971Y8718D01*
X8971Y8718D01*
X8971Y8718D01*
X8971Y8718D01*
X8972Y8717D01*
X8972Y8717D01*
X8972Y8716D01*
X8973Y8715D01*
X8973Y8715D01*
X8973Y8714D01*
X8973Y8714D01*
X8973Y8714D01*
X8973Y8713D01*
X8974Y8712D01*
X8974Y8711D01*
X8974Y8710D01*
X8974Y8709D01*
Y8709D01*
Y8709D01*
Y8709D01*
Y8708D01*
X8974Y8708D01*
X8974Y8707D01*
X8974Y8706D01*
X8974Y8705D01*
X8973Y8704D01*
X8973Y8704D01*
X8973Y8703D01*
X8973Y8703D01*
X8973Y8703D01*
X8972Y8702D01*
X8972Y8702D01*
X8972Y8701D01*
X8971Y8700D01*
X8971Y8700D01*
X8971Y8699D01*
X8970Y8699D01*
X8970Y8699D01*
X8969Y8699D01*
X8969Y8698D01*
X8968Y8698D01*
X8967Y8697D01*
X8966Y8697D01*
X8966D01*
X8966Y8697D01*
X8966D01*
X8966Y8697D01*
X8965Y8697D01*
X8964Y8697D01*
X8963Y8696D01*
X8962Y8696D01*
X8961Y8696D01*
X8960Y8696D01*
X8938D01*
Y8701D01*
X8961D01*
X8961Y8701D01*
X8962D01*
X8963Y8701D01*
X8963Y8701D01*
X8964Y8701D01*
X8964D01*
X8964Y8701D01*
X8964Y8701D01*
X8965Y8701D01*
X8965Y8702D01*
X8966Y8702D01*
X8967Y8702D01*
X8967Y8702D01*
X8967Y8703D01*
X8967Y8703D01*
X8968Y8703D01*
X8968Y8703D01*
X8968Y8704D01*
X8969Y8704D01*
X8969Y8705D01*
X8969Y8705D01*
X8969Y8705D01*
X8969Y8706D01*
X8969Y8706D01*
X8970Y8707D01*
X8970Y8707D01*
X8970Y8708D01*
X8970Y8709D01*
Y8709D01*
Y8709D01*
X8970Y8710D01*
X8970Y8710D01*
X8970Y8711D01*
X8969Y8712D01*
X8969Y8712D01*
X8969Y8713D01*
X8969Y8713D01*
X8969Y8713D01*
X8969Y8714D01*
X8968Y8714D01*
X8968Y8714D01*
X8968Y8715D01*
X8967Y8715D01*
X8967Y8716D01*
X8967Y8716D01*
X8967Y8716D01*
X8966Y8716D01*
X8966Y8716D01*
X8966Y8716D01*
X8965Y8717D01*
X8964Y8717D01*
X8964D01*
X8964Y8717D01*
X8963Y8717D01*
X8963Y8717D01*
X8962Y8717D01*
X8962Y8717D01*
X8961Y8717D01*
X8938D01*
Y8722D01*
X8961D01*
X8961Y8722D01*
D02*
G37*
G36*
X9670Y8606D02*
X9665D01*
X9662Y8616D01*
X9649D01*
X9645Y8606D01*
X9641D01*
X9653Y8642D01*
X9658D01*
X9670Y8606D01*
D02*
G37*
G36*
X10432Y8147D02*
X10463D01*
Y8142D01*
X10432D01*
Y8130D01*
X10428D01*
Y8159D01*
X10432D01*
Y8147D01*
D02*
G37*
G36*
X10451Y8068D02*
X10452Y8067D01*
X10453Y8067D01*
X10454Y8067D01*
X10455Y8067D01*
X10456Y8067D01*
X10456D01*
X10456Y8067D01*
X10457Y8067D01*
X10457Y8066D01*
X10458Y8066D01*
X10458Y8066D01*
X10459Y8065D01*
X10460Y8065D01*
X10461Y8064D01*
X10461Y8064D01*
X10461Y8064D01*
X10461Y8063D01*
X10462Y8063D01*
X10462Y8062D01*
X10462Y8062D01*
X10463Y8061D01*
X10463Y8060D01*
X10463Y8060D01*
X10463Y8060D01*
X10463Y8059D01*
X10463Y8059D01*
X10464Y8058D01*
X10464Y8057D01*
X10464Y8056D01*
X10464Y8055D01*
Y8055D01*
Y8055D01*
Y8054D01*
Y8054D01*
X10464Y8054D01*
X10464Y8053D01*
X10464Y8052D01*
X10464Y8051D01*
X10463Y8050D01*
X10463Y8049D01*
X10463Y8049D01*
X10463Y8049D01*
X10463Y8048D01*
X10462Y8048D01*
X10462Y8047D01*
X10462Y8047D01*
X10461Y8046D01*
X10461Y8045D01*
X10461Y8045D01*
X10460Y8045D01*
X10460Y8045D01*
X10459Y8044D01*
X10459Y8044D01*
X10458Y8043D01*
X10457Y8043D01*
X10456Y8043D01*
X10456D01*
X10456Y8043D01*
X10456D01*
X10456Y8042D01*
X10455Y8042D01*
X10454Y8042D01*
X10453Y8042D01*
X10452Y8042D01*
X10451Y8042D01*
X10450Y8042D01*
X10428D01*
Y8047D01*
X10451D01*
X10451Y8047D01*
X10452D01*
X10453Y8047D01*
X10453Y8047D01*
X10454Y8047D01*
X10454D01*
X10454Y8047D01*
X10454Y8047D01*
X10455Y8047D01*
X10455Y8047D01*
X10456Y8048D01*
X10457Y8048D01*
X10457Y8048D01*
X10457Y8048D01*
X10457Y8048D01*
X10458Y8049D01*
X10458Y8049D01*
X10458Y8050D01*
X10459Y8050D01*
X10459Y8051D01*
X10459Y8051D01*
X10459Y8051D01*
X10459Y8051D01*
X10459Y8052D01*
X10460Y8052D01*
X10460Y8053D01*
X10460Y8054D01*
X10460Y8055D01*
Y8055D01*
Y8055D01*
X10460Y8055D01*
X10460Y8056D01*
X10460Y8057D01*
X10459Y8057D01*
X10459Y8058D01*
X10459Y8059D01*
X10459Y8059D01*
X10459Y8059D01*
X10459Y8059D01*
X10458Y8060D01*
X10458Y8060D01*
X10458Y8060D01*
X10457Y8061D01*
X10457Y8061D01*
X10457Y8061D01*
X10457Y8061D01*
X10456Y8062D01*
X10456Y8062D01*
X10456Y8062D01*
X10455Y8062D01*
X10454Y8063D01*
X10454D01*
X10454Y8063D01*
X10453Y8063D01*
X10453Y8063D01*
X10452Y8063D01*
X10452Y8063D01*
X10451Y8063D01*
X10428D01*
Y8068D01*
X10451D01*
X10451Y8068D01*
D02*
G37*
G36*
X10463Y8125D02*
X10449Y8114D01*
Y8108D01*
X10463D01*
Y8104D01*
X10428D01*
Y8113D01*
Y8113D01*
Y8113D01*
Y8113D01*
Y8113D01*
Y8114D01*
X10428Y8115D01*
Y8115D01*
X10428Y8116D01*
X10428Y8117D01*
X10428Y8118D01*
Y8118D01*
X10428Y8118D01*
X10428Y8119D01*
X10428Y8119D01*
X10428Y8120D01*
X10429Y8120D01*
X10429Y8121D01*
X10429Y8122D01*
X10430Y8122D01*
X10430Y8122D01*
X10430Y8123D01*
X10430Y8123D01*
X10431Y8123D01*
X10431Y8124D01*
X10432Y8124D01*
X10433Y8125D01*
X10433Y8125D01*
X10433Y8125D01*
X10433Y8125D01*
X10434Y8125D01*
X10435Y8126D01*
X10435Y8126D01*
X10436Y8126D01*
X10437Y8126D01*
X10438D01*
X10438Y8126D01*
X10438D01*
X10439Y8126D01*
X10440Y8126D01*
X10441Y8125D01*
X10442Y8125D01*
X10443Y8125D01*
X10444Y8124D01*
X10444Y8124D01*
X10444Y8124D01*
X10445Y8123D01*
X10445Y8123D01*
X10446Y8122D01*
X10447Y8121D01*
X10447Y8120D01*
X10448Y8119D01*
X10463Y8131D01*
Y8125D01*
D02*
G37*
G36*
Y8095D02*
X10453Y8092D01*
Y8078D01*
X10463Y8075D01*
Y8071D01*
X10428Y8082D01*
Y8088D01*
X10463Y8100D01*
Y8095D01*
D02*
G37*
G36*
X9706Y8598D02*
X9702D01*
X9716Y8643D01*
X9720D01*
X9706Y8598D01*
D02*
G37*
G36*
X9641Y8637D02*
X9629D01*
Y8606D01*
X9624D01*
Y8637D01*
X9612D01*
Y8642D01*
X9641D01*
Y8637D01*
D02*
G37*
G36*
X10471Y8023D02*
Y8019D01*
X10426Y8033D01*
Y8037D01*
X10471Y8023D01*
D02*
G37*
%LPC*%
G36*
X10439Y7940D02*
X10438D01*
X10438Y7940D01*
X10437D01*
X10437Y7939D01*
X10436Y7939D01*
X10436Y7939D01*
X10435Y7939D01*
X10435D01*
X10435Y7939D01*
X10435Y7939D01*
X10434Y7939D01*
X10434Y7938D01*
X10434Y7938D01*
X10433Y7937D01*
X10433Y7937D01*
X10433Y7937D01*
X10433Y7937D01*
X10433Y7937D01*
X10433Y7936D01*
X10432Y7936D01*
X10432Y7935D01*
X10432Y7934D01*
Y7934D01*
X10432Y7934D01*
X10432Y7934D01*
X10432Y7933D01*
X10432Y7933D01*
X10432Y7932D01*
X10432Y7931D01*
Y7931D01*
Y7927D01*
X10446D01*
Y7930D01*
Y7930D01*
Y7930D01*
Y7930D01*
Y7931D01*
X10446Y7932D01*
X10446Y7932D01*
X10446Y7933D01*
X10446Y7934D01*
X10445Y7935D01*
Y7935D01*
X10445Y7935D01*
X10445Y7935D01*
X10445Y7936D01*
X10445Y7936D01*
X10444Y7937D01*
X10444Y7937D01*
X10444Y7938D01*
X10444Y7938D01*
X10444Y7938D01*
X10443Y7938D01*
X10443Y7938D01*
X10443Y7938D01*
X10442Y7939D01*
X10441Y7939D01*
X10441D01*
X10441Y7939D01*
X10441Y7939D01*
X10441Y7939D01*
X10440Y7939D01*
X10440Y7940D01*
X10439Y7940D01*
D02*
G37*
G36*
X8947Y8685D02*
X8946D01*
X8946Y8685D01*
X8945Y8685D01*
X8944Y8685D01*
X8944D01*
X8944Y8685D01*
X8944Y8685D01*
X8944Y8684D01*
X8943Y8684D01*
X8943Y8683D01*
X8943Y8683D01*
X8943Y8683D01*
X8942Y8683D01*
X8942Y8683D01*
X8942Y8682D01*
X8942Y8682D01*
X8942Y8681D01*
Y8681D01*
X8942Y8681D01*
Y8680D01*
X8942Y8680D01*
Y8679D01*
X8942Y8679D01*
Y8678D01*
Y8677D01*
Y8672D01*
X8952D01*
Y8678D01*
Y8678D01*
Y8678D01*
Y8679D01*
X8952Y8679D01*
X8952Y8680D01*
X8952Y8681D01*
X8952Y8681D01*
Y8681D01*
X8952Y8681D01*
X8952Y8681D01*
X8952Y8682D01*
X8951Y8682D01*
X8951Y8683D01*
X8951Y8683D01*
X8951Y8683D01*
X8951Y8684D01*
X8950Y8684D01*
X8950Y8684D01*
X8949Y8685D01*
X8949Y8685D01*
X8949D01*
X8949Y8685D01*
X8949Y8685D01*
X8948Y8685D01*
X8948Y8685D01*
X8947Y8685D01*
X8947Y8685D01*
D02*
G37*
G36*
X9376Y7979D02*
X9375D01*
X9375Y7979D01*
X9374D01*
X9374Y7978D01*
X9373Y7978D01*
X9373Y7978D01*
X9372Y7978D01*
X9372D01*
X9372Y7978D01*
X9372Y7978D01*
X9371Y7978D01*
X9371Y7977D01*
X9371Y7977D01*
X9370Y7976D01*
X9370Y7976D01*
X9370Y7976D01*
X9370Y7976D01*
X9370Y7976D01*
X9370Y7975D01*
X9369Y7975D01*
X9369Y7974D01*
X9369Y7973D01*
Y7973D01*
X9369Y7973D01*
X9369Y7973D01*
X9369Y7972D01*
X9369Y7972D01*
X9369Y7971D01*
X9369Y7970D01*
Y7970D01*
Y7966D01*
X9383D01*
Y7969D01*
Y7969D01*
Y7969D01*
Y7969D01*
Y7970D01*
X9383Y7971D01*
X9383Y7971D01*
X9383Y7972D01*
X9383Y7973D01*
X9382Y7974D01*
Y7974D01*
X9382Y7974D01*
X9382Y7974D01*
X9382Y7975D01*
X9382Y7975D01*
X9381Y7976D01*
X9381Y7976D01*
X9381Y7977D01*
X9381Y7977D01*
X9381Y7977D01*
X9380Y7977D01*
X9380Y7977D01*
X9380Y7977D01*
X9379Y7978D01*
X9378Y7978D01*
X9378D01*
X9378Y7978D01*
X9378Y7978D01*
X9378Y7978D01*
X9377Y7978D01*
X9377Y7979D01*
X9376Y7979D01*
D02*
G37*
G36*
X8963Y8687D02*
X8962D01*
X8962Y8687D01*
X8961D01*
X8961Y8687D01*
X8960Y8687D01*
X8960Y8686D01*
X8959Y8686D01*
X8959D01*
X8959Y8686D01*
X8959Y8686D01*
X8958Y8686D01*
X8958Y8685D01*
X8958Y8685D01*
X8957Y8685D01*
X8957Y8684D01*
X8957Y8684D01*
X8957Y8684D01*
X8957Y8684D01*
X8957Y8683D01*
X8956Y8683D01*
X8956Y8682D01*
X8956Y8681D01*
Y8681D01*
X8956Y8681D01*
Y8681D01*
X8956Y8681D01*
Y8680D01*
X8956Y8679D01*
Y8679D01*
Y8678D01*
Y8672D01*
X8969D01*
Y8676D01*
Y8676D01*
Y8676D01*
Y8677D01*
Y8677D01*
Y8677D01*
X8969Y8678D01*
Y8679D01*
X8969Y8680D01*
X8969Y8680D01*
X8969Y8681D01*
Y8681D01*
X8969Y8681D01*
X8969Y8682D01*
X8968Y8682D01*
X8968Y8683D01*
X8968Y8683D01*
X8968Y8684D01*
X8968Y8684D01*
X8968Y8684D01*
X8967Y8685D01*
X8967Y8685D01*
X8967Y8685D01*
X8966Y8686D01*
X8966Y8686D01*
X8965Y8686D01*
X8965Y8686D01*
X8965Y8686D01*
X8965Y8686D01*
X8965Y8687D01*
X8964Y8687D01*
X8964Y8687D01*
X8963Y8687D01*
D02*
G37*
G36*
X10438Y8010D02*
X10437D01*
X10437Y8010D01*
X10436Y8010D01*
X10435Y8010D01*
X10435D01*
X10435Y8010D01*
X10434Y8010D01*
X10434Y8010D01*
X10434Y8009D01*
X10433Y8008D01*
X10433Y8008D01*
X10433Y8008D01*
X10433Y8008D01*
X10433Y8008D01*
X10432Y8007D01*
X10432Y8007D01*
X10432Y8006D01*
Y8006D01*
X10432Y8006D01*
X10432Y8005D01*
X10432Y8005D01*
Y8004D01*
X10432Y8004D01*
X10432Y8003D01*
Y8003D01*
Y7998D01*
X10445D01*
Y8002D01*
Y8002D01*
Y8002D01*
Y8003D01*
X10445Y8003D01*
Y8004D01*
X10445Y8004D01*
X10445Y8006D01*
Y8006D01*
X10445Y8006D01*
X10445Y8006D01*
X10444Y8007D01*
X10444Y8007D01*
X10444Y8008D01*
X10444Y8008D01*
X10443Y8008D01*
X10443Y8009D01*
X10443Y8009D01*
X10443Y8009D01*
X10443Y8009D01*
X10442Y8009D01*
X10442Y8010D01*
X10441Y8010D01*
X10441D01*
X10441Y8010D01*
X10440Y8010D01*
X10440Y8010D01*
X10439Y8010D01*
X10439Y8010D01*
X10438Y8010D01*
D02*
G37*
G36*
X8959Y8810D02*
X8942Y8805D01*
X8959Y8799D01*
Y8810D01*
D02*
G37*
G36*
X9929Y7961D02*
X9929D01*
X9928Y7961D01*
X9928D01*
X9927Y7961D01*
X9926Y7961D01*
X9925Y7961D01*
X9923Y7960D01*
X9922Y7960D01*
X9922D01*
X9922Y7960D01*
X9922Y7960D01*
X9921Y7959D01*
X9921Y7959D01*
X9920Y7958D01*
X9919Y7957D01*
X9918Y7957D01*
X9918Y7956D01*
X9918Y7956D01*
X9918Y7955D01*
X9917Y7955D01*
X9917Y7955D01*
X9917Y7954D01*
X9917Y7953D01*
X9916Y7952D01*
X9916Y7952D01*
Y7952D01*
X9916Y7951D01*
X9916Y7951D01*
X9916Y7950D01*
X9916Y7949D01*
X9916Y7949D01*
X9916Y7947D01*
Y7946D01*
Y7943D01*
X9943D01*
Y7946D01*
Y7946D01*
Y7947D01*
Y7947D01*
Y7947D01*
Y7947D01*
X9943Y7948D01*
X9943Y7949D01*
X9943Y7950D01*
X9943Y7951D01*
X9943Y7952D01*
Y7952D01*
X9942Y7952D01*
X9942Y7953D01*
X9942Y7953D01*
X9942Y7954D01*
X9942Y7955D01*
X9941Y7955D01*
X9941Y7956D01*
Y7956D01*
X9941Y7956D01*
X9940Y7957D01*
X9940Y7957D01*
X9940Y7958D01*
X9939Y7958D01*
X9938Y7959D01*
X9937Y7959D01*
X9936Y7960D01*
X9936D01*
X9936Y7960D01*
X9936Y7960D01*
X9936Y7960D01*
X9936Y7960D01*
X9935Y7960D01*
X9934Y7961D01*
X9933Y7961D01*
X9932Y7961D01*
X9931Y7961D01*
X9929Y7961D01*
D02*
G37*
G36*
X9937Y7990D02*
X9936D01*
X9936Y7990D01*
X9935D01*
X9935Y7990D01*
X9934Y7990D01*
X9934Y7990D01*
X9933Y7990D01*
X9933D01*
X9933Y7990D01*
X9933Y7990D01*
X9932Y7989D01*
X9932Y7989D01*
X9932Y7989D01*
X9931Y7988D01*
X9931Y7987D01*
X9931Y7987D01*
X9931Y7987D01*
X9931Y7987D01*
X9931Y7987D01*
X9930Y7986D01*
X9930Y7986D01*
X9930Y7985D01*
Y7985D01*
X9930Y7985D01*
Y7984D01*
X9930Y7984D01*
Y7984D01*
X9930Y7983D01*
Y7982D01*
Y7981D01*
Y7976D01*
X9943D01*
Y7980D01*
Y7980D01*
Y7980D01*
Y7980D01*
Y7980D01*
Y7981D01*
X9943Y7982D01*
Y7982D01*
X9943Y7983D01*
X9943Y7984D01*
X9943Y7985D01*
Y7985D01*
X9943Y7985D01*
X9943Y7985D01*
X9942Y7986D01*
X9942Y7986D01*
X9942Y7987D01*
X9942Y7987D01*
X9942Y7988D01*
X9942Y7988D01*
X9941Y7988D01*
X9941Y7988D01*
X9941Y7989D01*
X9940Y7989D01*
X9940Y7989D01*
X9939Y7990D01*
X9939Y7990D01*
X9939Y7990D01*
X9939Y7990D01*
X9939Y7990D01*
X9938Y7990D01*
X9938Y7990D01*
X9937Y7990D01*
D02*
G37*
G36*
X9921Y7989D02*
X9920D01*
X9920Y7989D01*
X9919Y7989D01*
X9918Y7988D01*
X9918D01*
X9918Y7988D01*
X9918Y7988D01*
X9918Y7988D01*
X9917Y7987D01*
X9917Y7987D01*
X9917Y7987D01*
X9917Y7987D01*
X9916Y7986D01*
X9916Y7986D01*
X9916Y7986D01*
X9916Y7985D01*
X9916Y7984D01*
Y7984D01*
X9916Y7984D01*
Y7984D01*
X9916Y7983D01*
Y7983D01*
X9916Y7982D01*
Y7981D01*
Y7980D01*
Y7976D01*
X9926D01*
Y7981D01*
Y7981D01*
Y7982D01*
Y7982D01*
X9926Y7983D01*
X9926Y7984D01*
X9926Y7984D01*
X9926Y7985D01*
Y7985D01*
X9926Y7985D01*
X9926Y7985D01*
X9926Y7985D01*
X9925Y7986D01*
X9925Y7987D01*
X9925Y7987D01*
X9925Y7987D01*
X9925Y7987D01*
X9924Y7987D01*
X9924Y7988D01*
X9923Y7988D01*
X9923Y7988D01*
X9923D01*
X9923Y7988D01*
X9923Y7988D01*
X9922Y7989D01*
X9922Y7989D01*
X9921Y7989D01*
X9921Y7989D01*
D02*
G37*
G36*
X9655Y8637D02*
X9650Y8620D01*
X9661D01*
X9655Y8637D01*
D02*
G37*
G36*
X9093Y8627D02*
X9087D01*
Y8616D01*
X9093D01*
X9093Y8616D01*
X9094Y8616D01*
X9095Y8616D01*
X9095Y8616D01*
X9095D01*
X9095Y8617D01*
X9096Y8617D01*
X9096Y8617D01*
X9097Y8617D01*
X9097Y8617D01*
X9097Y8617D01*
X9098Y8617D01*
X9098Y8618D01*
X9098Y8618D01*
X9098Y8618D01*
X9099Y8619D01*
X9099Y8619D01*
Y8619D01*
X9099Y8619D01*
X9099Y8620D01*
X9099Y8620D01*
X9099Y8620D01*
X9099Y8621D01*
X9099Y8621D01*
Y8622D01*
Y8622D01*
Y8622D01*
Y8622D01*
X9099Y8623D01*
X9099Y8623D01*
X9099Y8624D01*
Y8624D01*
X9099Y8624D01*
X9099Y8624D01*
X9099Y8625D01*
X9098Y8625D01*
X9098Y8626D01*
X9097Y8626D01*
X9097Y8626D01*
X9097Y8626D01*
X9097Y8626D01*
X9096Y8626D01*
X9096Y8626D01*
X9095Y8626D01*
X9095D01*
X9095Y8626D01*
X9094D01*
X9094Y8627D01*
X9093D01*
X9093Y8627D01*
D02*
G37*
G36*
X9094Y8612D02*
X9087D01*
Y8599D01*
X9092D01*
X9092Y8599D01*
X9093D01*
X9094Y8599D01*
X9095Y8599D01*
X9095Y8599D01*
X9095D01*
X9096Y8600D01*
X9096Y8600D01*
X9096Y8600D01*
X9097Y8600D01*
X9097Y8600D01*
X9098Y8600D01*
X9098Y8601D01*
X9099Y8601D01*
X9099Y8601D01*
X9099Y8601D01*
X9099Y8601D01*
X9100Y8602D01*
X9100Y8602D01*
X9100Y8603D01*
X9100Y8603D01*
X9100Y8603D01*
X9101Y8603D01*
X9101Y8604D01*
X9101Y8604D01*
X9101Y8605D01*
X9101Y8605D01*
Y8606D01*
Y8606D01*
Y8606D01*
X9101Y8607D01*
Y8607D01*
X9101Y8608D01*
X9101Y8608D01*
X9101Y8609D01*
X9100Y8609D01*
Y8609D01*
X9100Y8609D01*
X9100Y8610D01*
X9100Y8610D01*
X9100Y8610D01*
X9099Y8611D01*
X9099Y8611D01*
X9098Y8611D01*
X9098Y8611D01*
X9098Y8611D01*
X9098Y8612D01*
X9097Y8612D01*
X9097Y8612D01*
X9097Y8612D01*
X9096Y8612D01*
X9096D01*
X9095Y8612D01*
X9095D01*
X9095Y8612D01*
X9094D01*
X9094Y8612D01*
D02*
G37*
G36*
X9250Y7808D02*
X9245D01*
Y7794D01*
X9250D01*
X9250Y7794D01*
X9251D01*
X9251Y7794D01*
X9253Y7795D01*
X9253D01*
X9253Y7795D01*
X9253Y7795D01*
X9254Y7795D01*
X9254Y7795D01*
X9254Y7795D01*
X9255Y7796D01*
X9255Y7796D01*
X9255Y7796D01*
X9256Y7796D01*
X9256Y7796D01*
X9256Y7797D01*
X9256Y7797D01*
X9257Y7797D01*
X9257Y7798D01*
Y7798D01*
X9257Y7799D01*
X9257Y7799D01*
X9257Y7799D01*
X9257Y7800D01*
X9257Y7800D01*
X9257Y7801D01*
Y7802D01*
Y7802D01*
Y7802D01*
Y7802D01*
X9257Y7803D01*
X9257Y7803D01*
X9257Y7804D01*
Y7804D01*
X9257Y7805D01*
X9257Y7805D01*
X9257Y7805D01*
X9256Y7806D01*
X9255Y7806D01*
X9255Y7806D01*
X9255Y7806D01*
X9255Y7807D01*
X9255Y7807D01*
X9254Y7807D01*
X9254Y7807D01*
X9253Y7807D01*
X9253D01*
X9253Y7807D01*
X9252Y7807D01*
X9252Y7807D01*
X9251D01*
X9251Y7808D01*
X9250Y7808D01*
D02*
G37*
G36*
X9806Y8638D02*
X9801D01*
Y8610D01*
X9806D01*
X9807Y8610D01*
X9808Y8610D01*
X9808Y8610D01*
X9809Y8610D01*
X9810Y8611D01*
X9810D01*
X9811Y8611D01*
X9811Y8611D01*
X9812Y8611D01*
X9812Y8611D01*
X9813Y8612D01*
X9814Y8612D01*
X9815Y8612D01*
X9815D01*
X9815Y8613D01*
X9815Y8613D01*
X9815Y8613D01*
X9816Y8614D01*
X9817Y8614D01*
X9817Y8615D01*
X9818Y8616D01*
X9818Y8617D01*
Y8617D01*
X9818Y8617D01*
X9818Y8617D01*
X9818Y8617D01*
X9819Y8618D01*
X9819Y8618D01*
X9819Y8619D01*
X9819Y8620D01*
X9819Y8621D01*
X9819Y8622D01*
X9820Y8624D01*
Y8624D01*
Y8624D01*
Y8624D01*
Y8625D01*
X9819Y8625D01*
Y8625D01*
X9819Y8626D01*
X9819Y8627D01*
X9819Y8629D01*
X9819Y8630D01*
X9818Y8631D01*
Y8631D01*
X9818Y8631D01*
X9818Y8631D01*
X9818Y8632D01*
X9817Y8633D01*
X9817Y8633D01*
X9816Y8634D01*
X9815Y8635D01*
X9814Y8635D01*
X9814Y8635D01*
X9814Y8636D01*
X9813Y8636D01*
X9813Y8636D01*
X9812Y8636D01*
X9812Y8637D01*
X9811Y8637D01*
X9810Y8637D01*
X9810D01*
X9810Y8637D01*
X9809Y8637D01*
X9809Y8637D01*
X9808Y8637D01*
X9807Y8638D01*
X9806Y8638D01*
D02*
G37*
G36*
X10449Y8332D02*
X10432Y8326D01*
X10449Y8321D01*
Y8332D01*
D02*
G37*
G36*
X8955Y8640D02*
X8955D01*
X8954Y8640D01*
X8954D01*
X8953Y8640D01*
X8952Y8640D01*
X8951Y8639D01*
X8949Y8639D01*
X8948Y8638D01*
X8948D01*
X8948Y8638D01*
X8948Y8638D01*
X8947Y8638D01*
X8947Y8637D01*
X8946Y8637D01*
X8945Y8636D01*
X8944Y8635D01*
X8944Y8634D01*
X8944Y8634D01*
X8944Y8634D01*
X8943Y8634D01*
X8943Y8633D01*
X8943Y8633D01*
X8943Y8632D01*
X8942Y8631D01*
X8942Y8630D01*
Y8630D01*
X8942Y8630D01*
X8942Y8630D01*
X8942Y8629D01*
X8942Y8628D01*
X8942Y8627D01*
X8942Y8626D01*
Y8625D01*
Y8622D01*
X8969D01*
Y8625D01*
Y8625D01*
Y8625D01*
Y8625D01*
Y8626D01*
Y8626D01*
X8969Y8627D01*
X8969Y8628D01*
X8969Y8629D01*
X8969Y8630D01*
X8969Y8631D01*
Y8631D01*
X8968Y8631D01*
X8968Y8631D01*
X8968Y8632D01*
X8968Y8633D01*
X8968Y8633D01*
X8967Y8634D01*
X8967Y8635D01*
Y8635D01*
X8967Y8635D01*
X8966Y8635D01*
X8966Y8636D01*
X8966Y8636D01*
X8965Y8637D01*
X8964Y8637D01*
X8963Y8638D01*
X8962Y8639D01*
X8962D01*
X8962Y8639D01*
X8962Y8639D01*
X8962Y8639D01*
X8962Y8639D01*
X8961Y8639D01*
X8960Y8639D01*
X8959Y8639D01*
X8958Y8640D01*
X8957Y8640D01*
X8955Y8640D01*
D02*
G37*
G36*
X10445Y8634D02*
X10445D01*
X10444Y8634D01*
X10444D01*
X10443Y8634D01*
X10442Y8634D01*
X10441Y8634D01*
X10439Y8633D01*
X10438Y8633D01*
X10438D01*
X10438Y8633D01*
X10438Y8633D01*
X10437Y8632D01*
X10437Y8632D01*
X10436Y8631D01*
X10435Y8631D01*
X10434Y8630D01*
X10434Y8629D01*
X10434Y8629D01*
X10434Y8629D01*
X10433Y8628D01*
X10433Y8628D01*
X10433Y8627D01*
X10433Y8626D01*
X10432Y8626D01*
X10432Y8625D01*
Y8625D01*
X10432Y8624D01*
X10432Y8624D01*
X10432Y8623D01*
X10432Y8623D01*
X10432Y8622D01*
X10432Y8621D01*
Y8620D01*
Y8616D01*
X10459D01*
Y8620D01*
Y8620D01*
Y8620D01*
Y8620D01*
Y8620D01*
Y8621D01*
X10459Y8621D01*
X10459Y8622D01*
X10459Y8623D01*
X10459Y8624D01*
X10459Y8625D01*
Y8625D01*
X10458Y8625D01*
X10458Y8626D01*
X10458Y8626D01*
X10458Y8627D01*
X10458Y8628D01*
X10457Y8629D01*
X10457Y8629D01*
Y8629D01*
X10457Y8629D01*
X10456Y8630D01*
X10456Y8630D01*
X10456Y8631D01*
X10455Y8631D01*
X10454Y8632D01*
X10453Y8633D01*
X10452Y8633D01*
X10452D01*
X10452Y8633D01*
X10452Y8633D01*
X10452Y8633D01*
X10452Y8633D01*
X10451Y8633D01*
X10450Y8634D01*
X10449Y8634D01*
X10448Y8634D01*
X10447Y8634D01*
X10445Y8634D01*
D02*
G37*
G36*
X9382Y8013D02*
X9381D01*
X9381Y8013D01*
X9380Y8012D01*
X9379Y8012D01*
X9378Y8012D01*
X9377Y8012D01*
X9376Y8012D01*
X9376D01*
X9376Y8012D01*
X9376Y8012D01*
X9375Y8011D01*
X9375Y8011D01*
X9374Y8011D01*
X9373Y8011D01*
X9372Y8010D01*
X9372Y8010D01*
X9372Y8010D01*
X9371Y8009D01*
X9371Y8009D01*
X9371Y8009D01*
X9370Y8008D01*
X9370Y8008D01*
X9369Y8007D01*
X9369Y8006D01*
X9369Y8006D01*
X9369Y8006D01*
X9369Y8005D01*
X9368Y8005D01*
X9368Y8004D01*
X9368Y8004D01*
X9368Y8003D01*
X9368Y8002D01*
Y8002D01*
Y8001D01*
X9368Y8001D01*
X9368Y8000D01*
X9368Y8000D01*
X9368Y7999D01*
X9369Y7998D01*
X9369Y7997D01*
X9369Y7997D01*
X9369Y7997D01*
X9369Y7997D01*
X9370Y7996D01*
X9370Y7996D01*
X9370Y7995D01*
X9371Y7994D01*
X9372Y7994D01*
X9372Y7994D01*
X9372Y7994D01*
X9372Y7993D01*
X9373Y7993D01*
X9374Y7993D01*
X9374Y7992D01*
X9375Y7992D01*
X9376Y7992D01*
X9376D01*
X9376Y7992D01*
X9376D01*
X9377Y7992D01*
X9377Y7991D01*
X9378Y7991D01*
X9379Y7991D01*
X9380Y7991D01*
X9381Y7991D01*
X9382Y7991D01*
X9383D01*
X9384Y7991D01*
X9384Y7991D01*
X9385Y7991D01*
X9386Y7991D01*
X9386Y7991D01*
X9388Y7992D01*
X9390Y7992D01*
X9391Y7993D01*
X9392Y7993D01*
X9392Y7993D01*
X9393Y7994D01*
X9393Y7994D01*
X9393Y7994D01*
X9393Y7994D01*
X9394Y7994D01*
X9394Y7995D01*
X9394Y7995D01*
X9395Y7996D01*
X9395Y7996D01*
X9395Y7997D01*
X9396Y7997D01*
X9396Y7998D01*
X9396Y7999D01*
X9397Y8000D01*
X9397Y8001D01*
X9397Y8002D01*
Y8002D01*
Y8002D01*
Y8002D01*
X9397Y8003D01*
X9397Y8003D01*
X9397Y8004D01*
X9396Y8005D01*
X9396Y8006D01*
X9396Y8007D01*
X9395Y8007D01*
X9395Y8008D01*
X9394Y8008D01*
X9394Y8009D01*
X9393Y8010D01*
X9393Y8010D01*
X9393Y8010D01*
X9393Y8010D01*
X9392Y8010D01*
X9392Y8010D01*
X9392Y8011D01*
X9391Y8011D01*
X9390Y8011D01*
X9390Y8011D01*
X9389Y8012D01*
X9388Y8012D01*
X9387Y8012D01*
X9386Y8012D01*
X9385Y8012D01*
X9384Y8013D01*
X9382Y8013D01*
D02*
G37*
G36*
X10438Y8121D02*
X10437D01*
X10437Y8121D01*
X10436Y8121D01*
X10435Y8120D01*
X10435D01*
X10435Y8120D01*
X10434Y8120D01*
X10434Y8120D01*
X10434Y8119D01*
X10433Y8119D01*
X10433Y8119D01*
X10433Y8119D01*
X10433Y8118D01*
X10433Y8118D01*
X10432Y8118D01*
X10432Y8117D01*
X10432Y8116D01*
Y8116D01*
X10432Y8116D01*
X10432Y8116D01*
X10432Y8115D01*
Y8115D01*
X10432Y8114D01*
X10432Y8114D01*
Y8113D01*
Y8108D01*
X10445D01*
Y8112D01*
Y8113D01*
Y8113D01*
Y8113D01*
X10445Y8114D01*
Y8114D01*
X10445Y8115D01*
X10445Y8116D01*
Y8116D01*
X10445Y8116D01*
X10445Y8117D01*
X10444Y8117D01*
X10444Y8118D01*
X10444Y8118D01*
X10444Y8119D01*
X10443Y8119D01*
X10443Y8119D01*
X10443Y8119D01*
X10443Y8119D01*
X10443Y8120D01*
X10442Y8120D01*
X10442Y8120D01*
X10441Y8120D01*
X10441D01*
X10441Y8121D01*
X10440Y8121D01*
X10440Y8121D01*
X10439Y8121D01*
X10439Y8121D01*
X10438Y8121D01*
D02*
G37*
G36*
X10449Y8091D02*
X10432Y8085D01*
X10449Y8080D01*
Y8091D01*
D02*
G37*
G36*
X9375Y8112D02*
X9374D01*
X9374Y8111D01*
X9373Y8111D01*
X9372Y8111D01*
X9372D01*
X9372Y8111D01*
X9371Y8111D01*
X9371Y8111D01*
X9371Y8110D01*
X9370Y8109D01*
X9370Y8109D01*
X9370Y8109D01*
X9370Y8109D01*
X9370Y8109D01*
X9369Y8108D01*
X9369Y8108D01*
X9369Y8107D01*
Y8107D01*
X9369Y8107D01*
X9369Y8106D01*
X9369Y8106D01*
Y8106D01*
X9369Y8105D01*
X9369Y8104D01*
Y8104D01*
Y8099D01*
X9382D01*
Y8103D01*
Y8103D01*
Y8103D01*
Y8104D01*
X9382Y8104D01*
Y8105D01*
X9382Y8105D01*
X9382Y8107D01*
Y8107D01*
X9382Y8107D01*
X9382Y8107D01*
X9381Y8108D01*
X9381Y8108D01*
X9381Y8109D01*
X9381Y8109D01*
X9380Y8110D01*
X9380Y8110D01*
X9380Y8110D01*
X9380Y8110D01*
X9380Y8110D01*
X9379Y8110D01*
X9379Y8111D01*
X9378Y8111D01*
X9378D01*
X9378Y8111D01*
X9377Y8111D01*
X9377Y8111D01*
X9376Y8111D01*
X9376Y8111D01*
X9375Y8112D01*
D02*
G37*
%LPD*%
D10*
X9615Y7883D02*
G03*
X9615Y7883I-3J0D01*
G01*
X9580Y7798D02*
G03*
X9580Y7798I-69J0D01*
G01*
X8828Y7654D02*
Y7985D01*
Y8527D02*
Y8857D01*
X8808Y7714D02*
X8828Y7654D01*
X8848Y7714D01*
X8808Y8797D02*
X8828Y8857D01*
X8848Y8797D01*
X8818Y7654D02*
X8838D01*
X8818Y8857D02*
X8838D01*
X8928Y7598D02*
X9501D01*
X10033D02*
X10606D01*
X8928D02*
X8988Y7618D01*
X8928Y7598D02*
X8988Y7578D01*
X10546Y7618D02*
X10606Y7598D01*
X10546Y7578D02*
X10606Y7598D01*
X8928Y7588D02*
Y7608D01*
X10606Y7588D02*
Y7608D01*
D12*
X10088Y8359D02*
G03*
X10088Y8359I-7J0D01*
G01*
D29*
X10316Y8396D02*
Y8593D01*
X10040Y8396D02*
Y8593D01*
Y8396D02*
X10316D01*
X10040Y8593D02*
X10316D01*
X8928Y7654D02*
X10607D01*
X8928D02*
Y8857D01*
X10607D01*
Y7654D02*
Y8857D01*
D33*
X8930Y8169D02*
Y8559D01*
D34*
X8814Y7995D02*
X8804Y8005D01*
Y8025D01*
X8814Y8035D01*
X8824D01*
X8834Y8025D01*
Y8015D01*
Y8025D01*
X8844Y8035D01*
X8854D01*
X8864Y8025D01*
Y8005D01*
X8854Y7995D01*
X8814Y8055D02*
X8804Y8065D01*
Y8085D01*
X8814Y8095D01*
X8854D01*
X8864Y8085D01*
Y8065D01*
X8854Y8055D01*
X8814D01*
X8864Y8115D02*
X8854D01*
Y8125D01*
X8864D01*
Y8115D01*
X8804Y8205D02*
Y8165D01*
X8834D01*
X8824Y8185D01*
Y8195D01*
X8834Y8205D01*
X8854D01*
X8864Y8195D01*
Y8175D01*
X8854Y8165D01*
X8804Y8265D02*
Y8225D01*
X8834D01*
X8824Y8245D01*
Y8255D01*
X8834Y8265D01*
X8854D01*
X8864Y8255D01*
Y8235D01*
X8854Y8225D01*
X8804Y8325D02*
X8814Y8305D01*
X8834Y8285D01*
X8854D01*
X8864Y8295D01*
Y8315D01*
X8854Y8325D01*
X8844D01*
X8834Y8315D01*
Y8285D01*
X8864Y8385D02*
Y8345D01*
X8824Y8385D01*
X8814D01*
X8804Y8375D01*
Y8355D01*
X8814Y8345D01*
X8864Y8405D02*
X8824D01*
Y8415D01*
X8834Y8425D01*
X8864D01*
X8834D01*
X8824Y8435D01*
X8834Y8445D01*
X8864D01*
Y8465D02*
X8824D01*
Y8475D01*
X8834Y8485D01*
X8864D01*
X8834D01*
X8824Y8495D01*
X8834Y8505D01*
X8864D01*
X9541Y7562D02*
Y7622D01*
X9511Y7592D01*
X9551D01*
X9611Y7562D02*
X9571D01*
X9611Y7602D01*
Y7612D01*
X9601Y7622D01*
X9581D01*
X9571Y7612D01*
X9631Y7562D02*
Y7572D01*
X9641D01*
Y7562D01*
X9631D01*
X9721Y7622D02*
X9701Y7612D01*
X9681Y7592D01*
Y7572D01*
X9691Y7562D01*
X9711D01*
X9721Y7572D01*
Y7582D01*
X9711Y7592D01*
X9681D01*
X9781Y7562D02*
X9741D01*
X9781Y7602D01*
Y7612D01*
X9771Y7622D01*
X9751D01*
X9741Y7612D01*
X9801Y7562D02*
X9821D01*
X9811D01*
Y7622D01*
X9801Y7612D01*
X9891Y7562D02*
X9851D01*
X9891Y7602D01*
Y7612D01*
X9881Y7622D01*
X9861D01*
X9851Y7612D01*
X9911Y7562D02*
Y7602D01*
X9921D01*
X9931Y7592D01*
Y7562D01*
Y7592D01*
X9941Y7602D01*
X9951Y7592D01*
Y7562D01*
X9971D02*
Y7602D01*
X9981D01*
X9991Y7592D01*
Y7562D01*
Y7592D01*
X10001Y7602D01*
X10011Y7592D01*
Y7562D01*
D35*
X8913Y8523D02*
X8922D01*
Y8518D01*
X8921Y8517D01*
X8917D01*
X8916Y8518D01*
Y8523D01*
X8921Y8507D02*
X8922Y8508D01*
Y8512D01*
X8921Y8513D01*
X8914D01*
X8913Y8512D01*
Y8508D01*
X8914Y8507D01*
X8922Y8504D02*
X8913D01*
Y8499D01*
X8914Y8497D01*
X8916D01*
X8917Y8499D01*
Y8504D01*
Y8499D01*
X8919Y8497D01*
X8921D01*
X8922Y8499D01*
Y8504D01*
Y8477D02*
Y8484D01*
X8913D01*
Y8477D01*
X8917Y8484D02*
Y8481D01*
X8922Y8467D02*
X8913D01*
Y8472D01*
X8914Y8474D01*
X8917D01*
X8919Y8472D01*
Y8467D01*
X8909Y8461D02*
Y8459D01*
X8911Y8458D01*
X8919D01*
Y8463D01*
X8917Y8464D01*
X8914D01*
X8913Y8463D01*
Y8458D01*
Y8449D02*
Y8453D01*
X8914Y8454D01*
X8917D01*
X8919Y8453D01*
Y8449D01*
X8917Y8448D01*
X8916D01*
Y8454D01*
D45*
X10434Y7751D02*
G03*
X10434Y7751I-12J0D01*
G01*
X10024D02*
G03*
X10024Y7751I-12J0D01*
G01*
X9711Y8358D02*
G03*
X9711Y8358I-12J0D01*
G01*
X10246Y8051D02*
G03*
X10246Y8051I-12J0D01*
G01*
D46*
X10515Y7707D02*
G03*
X10515Y7707I-5J0D01*
G01*
X10105D02*
G03*
X10105Y7707I-5J0D01*
G01*
X9310Y8427D02*
G03*
X9310Y8427I-5J0D01*
G01*
X9614Y8425D02*
G03*
X9614Y8425I-5J0D01*
G01*
X9215Y7938D02*
G03*
X9215Y7938I-5J0D01*
G01*
X10328Y8007D02*
G03*
X10328Y8007I-5J0D01*
G01*
X9277Y8641D02*
G03*
X9277Y8641I-5J0D01*
G01*
D47*
X10533Y8292D02*
X10579D01*
X10556Y8315D02*
X10579Y8292D01*
X10533D02*
X10556Y8315D01*
X10534Y7925D02*
X10580D01*
X10557Y7948D02*
X10580Y7925D01*
X10534D02*
X10557Y7948D01*
X9564Y8721D02*
X9587Y8698D01*
X9564Y8675D02*
X9587Y8698D01*
X9564Y8675D02*
Y8721D01*
X10078Y8449D02*
Y8494D01*
X10153D01*
X10278D02*
Y8539D01*
X10203Y8494D02*
X10278D01*
X10153Y8469D02*
Y8519D01*
X10203Y8469D02*
Y8519D01*
X10163Y8529D02*
X10193D01*
Y8459D02*
Y8529D01*
X10163Y8459D02*
X10193D01*
X10163D02*
Y8529D01*
D48*
X9270Y7945D02*
X9270Y7964D01*
X9230Y7945D02*
X9270D01*
X9230Y7964D02*
X9230Y7945D01*
X9230Y8038D02*
X9230Y8019D01*
X9230Y8038D02*
X9270D01*
X9270Y8019D02*
X9270Y8038D01*
X9270Y7839D02*
X9270Y7858D01*
X9230Y7839D02*
X9270D01*
X9230Y7858D02*
X9230Y7839D01*
X9230Y7932D02*
X9230Y7913D01*
X9230Y7932D02*
X9270D01*
X9270Y7913D02*
X9270Y7932D01*
X9423Y8174D02*
X9563D01*
X9423Y7934D02*
X9563D01*
X9423D02*
Y7984D01*
X9563Y7934D02*
Y7984D01*
Y8124D02*
Y8174D01*
X9423Y8124D02*
Y8174D01*
X9373Y8740D02*
X9373Y8759D01*
X9333Y8740D02*
X9373D01*
X9333Y8759D02*
X9333Y8740D01*
X9333Y8833D02*
X9333Y8814D01*
X9333Y8833D02*
X9373D01*
X9373Y8814D02*
X9373Y8833D01*
X9939Y8034D02*
X9958Y8034D01*
X9939Y8034D02*
Y8074D01*
X9958Y8074D01*
X10013Y8074D02*
X10032Y8074D01*
Y8034D02*
Y8074D01*
X10013Y8034D02*
X10032Y8034D01*
X9132Y8596D02*
X9151Y8596D01*
X9132Y8596D02*
Y8636D01*
X9151Y8636D01*
X9206Y8636D02*
X9225Y8636D01*
Y8596D02*
Y8636D01*
X9206Y8596D02*
X9225Y8596D01*
X8985Y8777D02*
X8985Y8796D01*
X9025D01*
X9025Y8777D01*
X9025Y8722D02*
X9025Y8703D01*
X8985D02*
X9025D01*
X8985D02*
X8985Y8722D01*
X10023Y8110D02*
X10023Y8129D01*
X9983Y8110D02*
X10023D01*
X9983Y8129D02*
X9983Y8110D01*
X9983Y8203D02*
X9983Y8184D01*
X9983Y8203D02*
X10023D01*
X10023Y8184D02*
X10023Y8203D01*
X9708Y7980D02*
X9708Y7999D01*
X9668Y7980D02*
X9708D01*
X9668Y7999D02*
X9668Y7980D01*
X9668Y8073D02*
X9668Y8054D01*
X9668Y8073D02*
X9708D01*
X9708Y8054D02*
X9708Y8073D01*
X9496Y8329D02*
X9496Y8348D01*
X9536D01*
X9536Y8329D01*
X9536Y8274D02*
X9536Y8255D01*
X9496D02*
X9536D01*
X9496D02*
X9496Y8274D01*
X9404Y8375D02*
X9423Y8375D01*
Y8335D02*
Y8375D01*
X9404Y8335D02*
X9423Y8335D01*
X9330Y8335D02*
X9349Y8335D01*
X9330Y8335D02*
Y8375D01*
X9349Y8375D01*
X9404Y8426D02*
X9423Y8426D01*
Y8386D02*
Y8426D01*
X9404Y8386D02*
X9423Y8386D01*
X9330Y8386D02*
X9349Y8386D01*
X9330Y8386D02*
Y8426D01*
X9349Y8426D01*
X9768Y7980D02*
X9768Y7999D01*
X9728Y7980D02*
X9768D01*
X9728Y7999D02*
X9728Y7980D01*
X9728Y8073D02*
X9728Y8054D01*
X9728Y8073D02*
X9768D01*
X9768Y8054D02*
X9768Y8073D01*
X9828Y7980D02*
X9828Y7999D01*
X9788Y7980D02*
X9828D01*
X9788Y7999D02*
X9788Y7980D01*
X9788Y8073D02*
X9788Y8054D01*
X9788Y8073D02*
X9828D01*
X9828Y8054D02*
X9828Y8073D01*
X9470Y8200D02*
X9489Y8200D01*
X9470Y8200D02*
Y8240D01*
X9489Y8240D01*
X9544Y8240D02*
X9563Y8240D01*
Y8200D02*
Y8240D01*
X9544Y8200D02*
X9563Y8200D01*
X9496Y8434D02*
X9496Y8453D01*
X9536D01*
X9536Y8434D01*
X9536Y8379D02*
X9536Y8360D01*
X9496D02*
X9536D01*
X9496D02*
X9496Y8379D01*
X9663Y8500D02*
X9663Y8519D01*
X9623Y8500D02*
X9663D01*
X9623Y8519D02*
X9623Y8500D01*
X9623Y8593D02*
X9623Y8574D01*
X9623Y8593D02*
X9663D01*
X9663Y8574D02*
X9663Y8593D01*
X10487Y8287D02*
X10487Y8306D01*
X10527D01*
X10527Y8287D01*
X10527Y8232D02*
X10527Y8213D01*
X10487D02*
X10527D01*
X10487D02*
X10487Y8232D01*
X10368Y8034D02*
X10368Y8053D01*
X10408D01*
X10408Y8034D01*
X10408Y7979D02*
X10408Y7960D01*
X10368D02*
X10408D01*
X10368D02*
X10368Y7979D01*
X10423Y8120D02*
X10423Y8139D01*
X10383Y8120D02*
X10423D01*
X10383Y8139D02*
X10383Y8120D01*
X10383Y8213D02*
X10383Y8194D01*
X10383Y8213D02*
X10423D01*
X10423Y8194D02*
X10423Y8213D01*
X10435Y8425D02*
X10454Y8425D01*
Y8385D02*
Y8425D01*
X10435Y8385D02*
X10454Y8385D01*
X10361Y8385D02*
X10380Y8385D01*
X10361Y8385D02*
Y8425D01*
X10380Y8425D01*
X9673Y7825D02*
X9673Y7844D01*
X9713D01*
X9713Y7825D01*
X9713Y7770D02*
X9713Y7751D01*
X9673D02*
X9713D01*
X9673D02*
X9673Y7770D01*
X10435Y8527D02*
X10454Y8527D01*
Y8487D02*
Y8527D01*
X10435Y8487D02*
X10454Y8487D01*
X10361Y8487D02*
X10380Y8487D01*
X10361Y8487D02*
Y8527D01*
X10380Y8527D01*
X9964Y7932D02*
X9983Y7932D01*
X9964Y7932D02*
Y7972D01*
X9983Y7972D01*
X10038Y7972D02*
X10057Y7972D01*
Y7932D02*
Y7972D01*
X10038Y7932D02*
X10057Y7932D01*
X9476Y8310D02*
X9476Y8329D01*
X9436Y8310D02*
X9476D01*
X9436Y8329D02*
X9436Y8310D01*
X9436Y8403D02*
X9436Y8384D01*
X9436Y8403D02*
X9476D01*
X9476Y8384D02*
X9476Y8403D01*
X9718Y8500D02*
X9718Y8519D01*
X9678Y8500D02*
X9718D01*
X9678Y8519D02*
X9678Y8500D01*
X9678Y8593D02*
X9678Y8574D01*
X9678Y8593D02*
X9718D01*
X9718Y8574D02*
X9718Y8593D01*
X10023Y8215D02*
X10023Y8234D01*
X9983Y8215D02*
X10023D01*
X9983Y8234D02*
X9983Y8215D01*
X9983Y8308D02*
X9983Y8289D01*
X9983Y8308D02*
X10023D01*
X10023Y8289D02*
X10023Y8308D01*
X9764Y8499D02*
X9783Y8499D01*
X9764Y8499D02*
Y8539D01*
X9783Y8539D01*
X9838Y8539D02*
X9857Y8539D01*
Y8499D02*
Y8539D01*
X9838Y8499D02*
X9857Y8499D01*
X9643Y7980D02*
X9643Y7999D01*
X9603Y7980D02*
X9643D01*
X9603Y7999D02*
X9603Y7980D01*
X9603Y8073D02*
X9603Y8054D01*
X9603Y8073D02*
X9643D01*
X9643Y8054D02*
X9643Y8073D01*
X9476Y8415D02*
X9476Y8434D01*
X9436Y8415D02*
X9476D01*
X9436Y8434D02*
X9436Y8415D01*
X9436Y8508D02*
X9436Y8489D01*
X9436Y8508D02*
X9476D01*
X9476Y8489D02*
X9476Y8508D01*
X10159Y7999D02*
X10178Y7999D01*
Y7959D02*
Y7999D01*
X10159Y7959D02*
X10178Y7959D01*
X10085Y7959D02*
X10104Y7959D01*
X10085Y7959D02*
Y7999D01*
X10104Y7999D01*
X10418Y7700D02*
X10437Y7700D01*
Y7660D02*
Y7700D01*
X10418Y7660D02*
X10437Y7660D01*
X10344Y7660D02*
X10363Y7660D01*
X10344Y7660D02*
Y7700D01*
X10363Y7700D01*
X10023Y7702D02*
X10042Y7702D01*
Y7662D02*
Y7702D01*
X10023Y7662D02*
X10042Y7662D01*
X9949Y7662D02*
X9968Y7662D01*
X9949Y7662D02*
Y7702D01*
X9968Y7702D01*
X9378Y8180D02*
X9378Y8199D01*
X9338Y8180D02*
X9378D01*
X9338Y8199D02*
X9338Y8180D01*
X9338Y8273D02*
X9338Y8254D01*
X9338Y8273D02*
X9378D01*
X9378Y8254D02*
X9378Y8273D01*
X9338Y8554D02*
X9338Y8573D01*
X9378D01*
X9378Y8554D01*
X9378Y8499D02*
X9378Y8480D01*
X9338D02*
X9378D01*
X9338D02*
X9338Y8499D01*
X9981Y8478D02*
Y8497D01*
X10021Y8497D01*
Y8478D02*
Y8497D01*
Y8404D02*
Y8423D01*
X9981Y8404D02*
X10021Y8404D01*
X9981Y8404D02*
Y8423D01*
X10021Y8543D02*
X10021Y8562D01*
X9981Y8543D02*
X10021D01*
X9981D02*
Y8562D01*
Y8617D02*
Y8636D01*
X10021D01*
X10021Y8617D02*
X10021Y8636D01*
X9259Y8054D02*
X9278Y8054D01*
X9259Y8054D02*
Y8094D01*
X9278Y8094D01*
X9333Y8094D02*
X9352Y8094D01*
Y8054D02*
Y8094D01*
X9333Y8054D02*
X9352Y8054D01*
X9178Y7994D02*
Y8134D01*
X8938Y7994D02*
Y8134D01*
X8988D01*
X8938Y7994D02*
X8988D01*
X9128D02*
X9178D01*
X9128Y8134D02*
X9178D01*
X9630Y7680D02*
Y7916D01*
X9394Y7680D02*
Y7916D01*
X9631D01*
X9394Y7680D02*
X9631D01*
D49*
X9890Y8011D02*
X9894D01*
Y8015D01*
X9895Y8016D02*
X9899D01*
Y8020D01*
X9885Y8021D02*
X9894Y8011D01*
X9890Y8026D02*
X9899Y8016D01*
X9873Y8004D02*
Y8034D01*
X9858Y8029D02*
X9888D01*
X9858D02*
X9873Y8014D01*
X9888Y8029D01*
X9873Y8014D02*
X9888D01*
X9858D02*
X9873D01*
X9345Y7971D02*
X9349D01*
Y7975D01*
X9350Y7976D02*
X9354D01*
Y7980D01*
X9340Y7981D02*
X9349Y7971D01*
X9345Y7986D02*
X9354Y7976D01*
X9328Y7964D02*
Y7994D01*
X9313Y7989D02*
X9343D01*
X9313D02*
X9328Y7974D01*
X9343Y7989D01*
X9328Y7974D02*
X9343D01*
X9313D02*
X9328D01*
D50*
X9843D02*
Y7984D01*
Y7974D02*
X9853Y7964D01*
X9893D01*
X9903Y7974D02*
Y7984D01*
X9893Y7964D02*
X9903Y7974D01*
X9893Y7964D02*
X9903Y7974D01*
X9843D02*
X9853Y7964D01*
X9903Y8054D02*
Y8074D01*
X9843Y8054D02*
Y8074D01*
X9903D01*
X9298Y7934D02*
Y7944D01*
Y7934D02*
X9308Y7924D01*
X9348D01*
X9358Y7934D02*
Y7944D01*
X9348Y7924D02*
X9358Y7934D01*
X9348Y7924D02*
X9358Y7934D01*
X9298D02*
X9308Y7924D01*
X9358Y8014D02*
Y8034D01*
X9298Y8014D02*
Y8034D01*
X9358D01*
D51*
X10335Y7912D02*
X10461D01*
X10335Y7712D02*
X10461D01*
X10335D02*
Y7912D01*
X10461Y7712D02*
Y7912D01*
X9925D02*
X10051D01*
X9925Y7712D02*
X10051D01*
X9925D02*
Y7912D01*
X10051Y7712D02*
Y7912D01*
X9280Y8453D02*
Y8484D01*
X9280Y8244D02*
Y8276D01*
X8902Y8559D02*
X8953Y8559D01*
X9083Y8559D02*
X9170D01*
X9083Y8169D02*
X9170D01*
X8902Y8169D02*
X8953D01*
X8902Y8559D02*
X8902Y8169D01*
X10593Y8649D02*
Y8849D01*
X9593Y8649D02*
X9668D01*
X9593D02*
X9593Y8849D01*
X9668D01*
X10593Y8849D01*
X9668Y8649D02*
X10593D01*
X9660Y8181D02*
X9876D01*
X9660Y8397D02*
X9876D01*
Y8181D02*
Y8397D01*
X9660Y8181D02*
Y8397D01*
X10593Y7956D02*
Y8177D01*
X10472D02*
X10593D01*
X10472Y7956D02*
Y8177D01*
Y7956D02*
X10593D01*
Y8322D02*
Y8593D01*
X10472D02*
X10593D01*
X10472Y8322D02*
Y8593D01*
Y8322D02*
X10593D01*
X8946Y7879D02*
X9210D01*
X8946Y7769D02*
X9210D01*
Y7879D01*
X8946Y7769D02*
Y7879D01*
X10148Y8213D02*
X10274D01*
X10148Y8012D02*
X10274D01*
X10148D02*
Y8213D01*
X10274Y8012D02*
Y8213D01*
X9143Y8848D02*
X9213D01*
X9143Y8651D02*
X9213D01*
X9143D02*
Y8848D01*
X9213Y8651D02*
Y8848D01*
M02*
