%FSLAX23Y23*%
%MOIN*%
G70*
G01*
G75*
G04 Layer_Physical_Order=2*
G04 Layer_Color=6899487*
%ADD10C,0.010*%
%ADD11C,0.012*%
%ADD12C,0.015*%
%ADD13C,0.025*%
%ADD14R,0.030X0.030*%
%ADD15R,0.100X0.070*%
%ADD16R,0.030X0.030*%
%ADD17R,0.050X0.030*%
%ADD18O,0.067X0.014*%
%ADD19R,0.070X0.100*%
%ADD20R,0.098X0.079*%
%ADD21R,0.091X0.020*%
%ADD22O,0.012X0.071*%
%ADD23O,0.071X0.012*%
%ADD24R,0.039X0.094*%
%ADD25R,0.130X0.094*%
%ADD26R,0.083X0.051*%
%ADD27O,0.087X0.024*%
%ADD28R,0.087X0.055*%
%ADD29C,0.008*%
%ADD30C,0.001*%
%ADD31R,0.188X0.076*%
%ADD32R,0.107X0.104*%
%ADD33C,0.004*%
%ADD34C,0.006*%
%ADD35C,0.001*%
%ADD36C,0.098*%
%ADD37C,0.024*%
%ADD38R,0.059X0.059*%
%ADD39C,0.059*%
%ADD40C,0.039*%
%ADD41R,0.039X0.039*%
%ADD42C,0.020*%
%ADD43C,0.020*%
%ADD44R,0.283X0.202*%
G36*
X10596Y8587D02*
X10591Y8585D01*
X10579Y8597D01*
X10575Y8600D01*
X10570Y8601D01*
X10496D01*
X10440Y8657D01*
X10442Y8661D01*
X10443Y8661D01*
X10453Y8663D01*
X10462Y8666D01*
X10470Y8672D01*
X10476Y8680D01*
X10480Y8689D01*
X10481Y8699D01*
X10480Y8709D01*
X10476Y8718D01*
X10470Y8726D01*
X10462Y8732D01*
X10453Y8736D01*
X10443Y8737D01*
X10433Y8736D01*
X10424Y8732D01*
X10416Y8726D01*
X10416Y8725D01*
X10408Y8720D01*
X10407Y8720D01*
X10362Y8765D01*
X10362Y8766D01*
X10370Y8772D01*
X10376Y8780D01*
X10380Y8789D01*
X10380Y8794D01*
X10306D01*
X10307Y8789D01*
X10310Y8780D01*
X10314Y8776D01*
X10311Y8771D01*
X10275D01*
X10273Y8776D01*
X10276Y8780D01*
X10280Y8789D01*
X10280Y8794D01*
X10206D01*
X10207Y8789D01*
X10210Y8780D01*
X10214Y8776D01*
X10211Y8771D01*
X10175D01*
X10173Y8776D01*
X10176Y8780D01*
X10180Y8789D01*
X10180Y8794D01*
X10106D01*
X10107Y8789D01*
X10110Y8780D01*
X10114Y8776D01*
X10111Y8771D01*
X10075D01*
X10073Y8776D01*
X10076Y8780D01*
X10080Y8789D01*
X10080Y8794D01*
X10006D01*
X10007Y8789D01*
X10010Y8780D01*
X10014Y8776D01*
X10011Y8771D01*
X9975D01*
X9973Y8776D01*
X9976Y8780D01*
X9980Y8789D01*
X9980Y8794D01*
X9906D01*
X9907Y8789D01*
X9910Y8780D01*
X9914Y8776D01*
X9911Y8771D01*
X9875D01*
X9873Y8776D01*
X9876Y8780D01*
X9880Y8789D01*
X9880Y8794D01*
X9806D01*
X9807Y8789D01*
X9810Y8780D01*
X9814Y8776D01*
X9811Y8771D01*
X9775D01*
X9773Y8776D01*
X9776Y8780D01*
X9780Y8789D01*
X9780Y8794D01*
X9706D01*
X9707Y8789D01*
X9710Y8780D01*
X9714Y8776D01*
X9711Y8771D01*
X9702D01*
X9697Y8770D01*
X9693Y8767D01*
X9676Y8750D01*
X9676Y8750D01*
X9676Y8750D01*
X9675Y8750D01*
X9675Y8750D01*
X9666Y8743D01*
X9655Y8738D01*
X9643Y8737D01*
X9643Y8737D01*
Y8737D01*
X9642Y8737D01*
X9606D01*
Y8700D01*
X9605Y8699D01*
X9605D01*
X9605Y8699D01*
X9604Y8687D01*
X9599Y8676D01*
X9593Y8667D01*
X9593Y8667D01*
X9592Y8667D01*
X9592Y8667D01*
X9592Y8667D01*
X9580Y8654D01*
X9577Y8650D01*
X9576Y8645D01*
Y8040D01*
X9576Y8039D01*
X9576D01*
X9576Y8039D01*
X9572Y8034D01*
X9571Y8027D01*
X9572Y8020D01*
X9576Y8014D01*
X9582Y8010D01*
X9589Y8009D01*
X9596Y8010D01*
X9602Y8014D01*
X9606Y8020D01*
X9608Y8027D01*
X9606Y8034D01*
X9603Y8039D01*
X9603Y8039D01*
X9603D01*
X9602Y8040D01*
Y8640D01*
X9611Y8648D01*
X9611Y8648D01*
X9611Y8648D01*
X9611Y8649D01*
X9611Y8649D01*
X9620Y8655D01*
X9631Y8660D01*
X9643Y8661D01*
X9643Y8661D01*
Y8661D01*
X9644Y8662D01*
X9681D01*
D01*
X9681D01*
X9681Y8661D01*
Y8642D01*
X9617Y8577D01*
X9614Y8573D01*
X9613Y8568D01*
Y8002D01*
X9614Y7997D01*
X9617Y7993D01*
X9669Y7941D01*
X9669Y7940D01*
X9669Y7940D01*
X9669Y7940D01*
X9670Y7934D01*
X9674Y7928D01*
X9680Y7924D01*
X9687Y7923D01*
X9694Y7924D01*
X9700Y7928D01*
X9704Y7934D01*
X9706Y7941D01*
X9704Y7948D01*
X9700Y7954D01*
X9694Y7958D01*
X9688Y7959D01*
X9688Y7959D01*
X9688Y7959D01*
X9687Y7960D01*
X9639Y8008D01*
Y8563D01*
X9704Y8627D01*
X9706Y8631D01*
X9707Y8636D01*
Y8676D01*
X9712Y8678D01*
X9716Y8672D01*
X9724Y8666D01*
X9733Y8663D01*
X9743Y8661D01*
X9753Y8663D01*
X9762Y8666D01*
X9770Y8672D01*
X9776Y8680D01*
X9780Y8689D01*
X9781Y8699D01*
X9780Y8709D01*
X9776Y8718D01*
X9770Y8726D01*
X9771Y8729D01*
X9813D01*
X9815Y8724D01*
X9810Y8718D01*
X9807Y8709D01*
X9805Y8699D01*
X9807Y8689D01*
X9810Y8680D01*
X9816Y8672D01*
X9824Y8666D01*
X9833Y8663D01*
X9843Y8661D01*
X9853Y8663D01*
X9862Y8666D01*
X9870Y8672D01*
X9876Y8680D01*
X9880Y8689D01*
X9881Y8699D01*
X9880Y8709D01*
X9876Y8718D01*
X9870Y8726D01*
X9871Y8729D01*
X9913D01*
X9915Y8724D01*
X9910Y8718D01*
X9907Y8709D01*
X9905Y8699D01*
X9907Y8689D01*
X9910Y8680D01*
X9916Y8672D01*
X9924Y8666D01*
X9933Y8663D01*
X9943Y8661D01*
X9944Y8661D01*
X9955Y8660D01*
X9966Y8655D01*
X9975Y8649D01*
X9975Y8649D01*
X9976Y8648D01*
X9976Y8648D01*
X9976Y8648D01*
X10000Y8624D01*
X9998Y8619D01*
X9836D01*
X9836Y8619D01*
X9831Y8618D01*
X9829Y8617D01*
X9826Y8615D01*
X9826Y8615D01*
X9781Y8570D01*
X9776Y8569D01*
X9770Y8565D01*
X9770Y8565D01*
X9766Y8562D01*
X9761Y8561D01*
X9682D01*
X9678Y8564D01*
X9671Y8565D01*
X9664Y8564D01*
X9658Y8560D01*
X9654Y8554D01*
X9653Y8547D01*
X9654Y8540D01*
X9658Y8534D01*
X9664Y8530D01*
X9671Y8529D01*
X9678Y8530D01*
X9682Y8533D01*
X9761D01*
Y8533D01*
X9762Y8533D01*
X9778D01*
X9778Y8533D01*
X9783Y8534D01*
X9783Y8534D01*
X9790Y8535D01*
X9796Y8539D01*
X9800Y8545D01*
X9801Y8550D01*
X9842Y8591D01*
X10028D01*
Y8392D01*
X10029Y8389D01*
X10030Y8386D01*
X10033Y8385D01*
X10036Y8384D01*
X10319D01*
X10322Y8385D01*
X10325Y8386D01*
X10327Y8389D01*
X10327Y8392D01*
Y8591D01*
X10347D01*
X10363Y8575D01*
X10364Y8570D01*
X10368Y8564D01*
X10374Y8560D01*
X10381Y8559D01*
X10388Y8560D01*
X10394Y8564D01*
X10396Y8568D01*
X10401Y8568D01*
X10431Y8538D01*
Y8419D01*
X10433Y8414D01*
X10435Y8410D01*
X10473Y8373D01*
X10473Y8373D01*
X10473Y8373D01*
X10473Y8372D01*
X10478Y8366D01*
X10479Y8358D01*
X10479Y8357D01*
X10479D01*
X10479Y8357D01*
X10480Y8350D01*
X10483Y8343D01*
X10487Y8337D01*
X10493Y8333D01*
X10500Y8330D01*
X10507Y8329D01*
X10514Y8330D01*
X10521Y8333D01*
X10525Y8336D01*
X10529Y8334D01*
Y8329D01*
X10585D01*
Y8356D01*
X10585Y8357D01*
X10585D01*
X10585Y8357D01*
X10587Y8366D01*
X10591Y8372D01*
X10591Y8372D01*
X10594Y8371D01*
X10596Y8370D01*
Y8171D01*
X10591Y8169D01*
X10579Y8181D01*
X10575Y8184D01*
X10570Y8185D01*
X10527D01*
X10506Y8206D01*
Y8271D01*
X10505Y8277D01*
X10502Y8281D01*
X10428Y8354D01*
X10424Y8357D01*
X10419Y8358D01*
X10021D01*
Y8358D01*
X10019Y8359D01*
X10019Y8359D01*
X10013Y8363D01*
X10006Y8364D01*
X9999Y8363D01*
X9993Y8359D01*
X9989Y8353D01*
X9988Y8346D01*
X9989Y8341D01*
X9987Y8339D01*
X9987D01*
X9987Y8339D01*
X9981Y8335D01*
X9977Y8329D01*
X9976Y8322D01*
X9977Y8315D01*
X9981Y8309D01*
X9987Y8305D01*
X9994Y8304D01*
X10001Y8305D01*
X10006Y8308D01*
X10006Y8308D01*
Y8308D01*
X10007Y8309D01*
X10415D01*
X10427Y8297D01*
X10425Y8292D01*
X9862D01*
X9836Y8318D01*
X9836Y8318D01*
X9836D01*
Y8318D01*
D01*
X9836Y8318D01*
Y8318D01*
D01*
D01*
X9836Y8318D01*
X9836Y8319D01*
X9836Y8319D01*
X9836D01*
D01*
D01*
X9836D01*
X9834Y8326D01*
X9830Y8332D01*
X9824Y8336D01*
X9817Y8337D01*
X9810Y8336D01*
X9804Y8332D01*
X9800Y8326D01*
X9799Y8319D01*
X9800Y8312D01*
X9804Y8306D01*
X9810Y8302D01*
X9815Y8301D01*
X9816Y8301D01*
X9817Y8299D01*
Y8299D01*
X9817D01*
X9817Y8299D01*
X9817Y8299D01*
X9817D01*
D01*
X9817Y8299D01*
Y8299D01*
X9817D01*
D01*
D01*
D01*
D01*
X9817Y8299D01*
D01*
X9847Y8270D01*
X9851Y8267D01*
X9856Y8266D01*
X10422D01*
X10424Y8261D01*
X10423Y8260D01*
X10422Y8253D01*
X10423Y8246D01*
X10427Y8241D01*
X10427Y8241D01*
X10427D01*
X10427Y8240D01*
Y8181D01*
X10427Y8180D01*
X10427D01*
X10427Y8180D01*
X10423Y8175D01*
X10422Y8168D01*
X10423Y8161D01*
X10427Y8156D01*
X10427Y8156D01*
X10427D01*
X10427Y8155D01*
Y8081D01*
X10428Y8076D01*
X10431Y8072D01*
X10431Y8072D01*
X10443Y8060D01*
X10455Y8047D01*
Y7884D01*
X10440Y7869D01*
X10439Y7868D01*
X10439Y7868D01*
X10439Y7868D01*
X10433Y7867D01*
X10427Y7863D01*
X10423Y7857D01*
X10422Y7850D01*
X10423Y7843D01*
X10427Y7837D01*
X10433Y7833D01*
X10440Y7832D01*
X10440Y7832D01*
X10443Y7827D01*
X10358Y7742D01*
X10135D01*
X10068Y7809D01*
Y7872D01*
X10067Y7877D01*
X10064Y7881D01*
X10052Y7894D01*
X10048Y7896D01*
X10043Y7897D01*
X10023D01*
X10018Y7896D01*
X10014Y7894D01*
X10010Y7889D01*
X10005D01*
X10004Y7890D01*
Y7890D01*
X10004Y7890D01*
X9999Y7893D01*
X9992Y7894D01*
X9986Y7893D01*
X9983Y7898D01*
X10106Y8020D01*
X10151D01*
X10152Y8019D01*
Y8019D01*
X10152Y8019D01*
X10157Y8016D01*
X10164Y8015D01*
X10171Y8016D01*
X10175Y8013D01*
Y7870D01*
X10136Y7830D01*
X10133Y7826D01*
X10132Y7821D01*
Y7805D01*
X10132D01*
X10132Y7805D01*
Y7795D01*
X10131Y7794D01*
X10129Y7787D01*
X10131Y7779D01*
X10135Y7774D01*
X10141Y7770D01*
X10148Y7768D01*
X10155Y7770D01*
X10161Y7774D01*
X10165Y7779D01*
X10166Y7787D01*
X10165Y7790D01*
X10166Y7794D01*
X10173Y7795D01*
X10179Y7799D01*
X10183Y7805D01*
X10184Y7811D01*
X10184Y7811D01*
X10184Y7811D01*
X10184Y7812D01*
X10197Y7824D01*
X10216D01*
X10216Y7824D01*
Y7824D01*
X10217Y7824D01*
X10222Y7821D01*
X10229Y7819D01*
X10236Y7821D01*
X10242Y7825D01*
X10246Y7831D01*
X10247Y7838D01*
X10246Y7845D01*
X10242Y7851D01*
X10236Y7855D01*
X10229Y7856D01*
X10222Y7855D01*
X10217Y7851D01*
X10216Y7851D01*
Y7851D01*
X10216Y7851D01*
X10200D01*
X10198Y7855D01*
X10200Y7859D01*
X10201Y7864D01*
Y7995D01*
X10206Y7998D01*
X10211Y7994D01*
X10218Y7993D01*
X10225Y7994D01*
X10231Y7998D01*
X10235Y8004D01*
X10237Y8011D01*
X10235Y8018D01*
X10232Y8023D01*
X10232Y8023D01*
X10232D01*
X10231Y8024D01*
Y8086D01*
X10258Y8113D01*
X10265D01*
X10266Y8112D01*
Y8112D01*
X10266Y8112D01*
X10271Y8109D01*
X10278Y8108D01*
X10285Y8109D01*
X10291Y8113D01*
X10295Y8119D01*
X10297Y8126D01*
X10295Y8133D01*
X10291Y8139D01*
X10285Y8143D01*
X10278Y8144D01*
X10271Y8143D01*
X10266Y8140D01*
X10266Y8140D01*
Y8140D01*
X10265Y8139D01*
X10253D01*
X10248Y8138D01*
X10243Y8135D01*
X10218Y8110D01*
X10203Y8125D01*
X10199Y8128D01*
X10194Y8129D01*
X10175D01*
X10084Y8220D01*
X10086Y8225D01*
X10167D01*
X10179Y8213D01*
X10179Y8212D01*
X10179Y8212D01*
X10179Y8212D01*
X10180Y8206D01*
X10177Y8202D01*
X10169D01*
X10168Y8203D01*
Y8203D01*
X10168Y8203D01*
X10163Y8206D01*
X10156Y8207D01*
X10149Y8206D01*
X10143Y8202D01*
X10139Y8196D01*
X10138Y8189D01*
X10139Y8182D01*
X10143Y8176D01*
X10149Y8172D01*
X10156Y8171D01*
X10163Y8172D01*
X10168Y8175D01*
X10168Y8175D01*
Y8175D01*
X10169Y8176D01*
X10362D01*
X10385Y8153D01*
Y8132D01*
X10381Y8129D01*
X10375Y8130D01*
X10368Y8128D01*
X10362Y8124D01*
X10358Y8118D01*
X10357Y8112D01*
X10357Y8112D01*
X10357Y8112D01*
X10357Y8112D01*
X10310Y8064D01*
X10307Y8060D01*
X10306Y8055D01*
Y7886D01*
X10301Y7884D01*
X10285Y7900D01*
Y8048D01*
X10286Y8049D01*
X10286D01*
X10286Y8049D01*
X10289Y8054D01*
X10291Y8061D01*
X10289Y8068D01*
X10285Y8074D01*
X10279Y8078D01*
X10272Y8079D01*
X10265Y8078D01*
X10259Y8074D01*
X10255Y8068D01*
X10254Y8061D01*
X10255Y8054D01*
X10259Y8049D01*
X10259Y8049D01*
X10259D01*
X10259Y8048D01*
Y7894D01*
X10260Y7889D01*
X10263Y7885D01*
X10334Y7813D01*
Y7813D01*
X10334Y7813D01*
X10334Y7813D01*
X10334Y7813D01*
D01*
D01*
D01*
D01*
X10334Y7813D01*
X10335Y7812D01*
X10336Y7811D01*
X10337Y7807D01*
X10341Y7801D01*
X10347Y7797D01*
X10354Y7795D01*
X10361Y7797D01*
X10367Y7801D01*
X10371Y7807D01*
X10371Y7807D01*
X10374Y7805D01*
X10381Y7804D01*
X10388Y7805D01*
X10394Y7809D01*
X10398Y7815D01*
X10400Y7822D01*
X10398Y7829D01*
X10394Y7835D01*
X10388Y7839D01*
X10382Y7840D01*
X10382Y7840D01*
X10382Y7840D01*
X10381Y7841D01*
X10332Y7890D01*
Y8050D01*
X10376Y8093D01*
X10377Y8093D01*
X10377Y8093D01*
X10377Y8093D01*
X10381Y8094D01*
X10385Y8091D01*
Y7923D01*
X10386Y7918D01*
X10389Y7913D01*
X10396Y7906D01*
X10396Y7906D01*
X10396Y7906D01*
X10396Y7906D01*
X10397Y7900D01*
X10401Y7894D01*
X10407Y7890D01*
X10414Y7888D01*
X10421Y7890D01*
X10427Y7894D01*
X10431Y7900D01*
X10432Y7907D01*
X10431Y7914D01*
X10427Y7920D01*
X10421Y7924D01*
X10415Y7925D01*
X10415Y7925D01*
X10415Y7925D01*
X10414Y7925D01*
X10411Y7928D01*
Y8158D01*
X10410Y8163D01*
X10408Y8167D01*
X10377Y8198D01*
X10372Y8201D01*
X10367Y8202D01*
X10217D01*
X10214Y8206D01*
X10216Y8213D01*
X10214Y8220D01*
X10210Y8226D01*
X10204Y8230D01*
X10198Y8231D01*
X10198Y8231D01*
X10198Y8231D01*
X10197Y8232D01*
X10181Y8248D01*
X10177Y8250D01*
X10172Y8251D01*
X9834D01*
X9829Y8250D01*
X9825Y8248D01*
X9817Y8240D01*
X9816Y8239D01*
X9816Y8239D01*
X9816Y8239D01*
X9810Y8238D01*
X9804Y8234D01*
X9800Y8228D01*
X9799Y8221D01*
X9800Y8214D01*
X9804Y8208D01*
X9810Y8204D01*
X9817Y8203D01*
X9824Y8204D01*
X9826Y8205D01*
X9829Y8200D01*
X9835Y8196D01*
X9842Y8195D01*
X9849Y8196D01*
X9855Y8200D01*
X9855Y8200D01*
X9862Y8206D01*
X9870Y8209D01*
X9878Y8210D01*
X10033D01*
X10036Y8206D01*
X10036Y8203D01*
X10037Y8196D01*
X10041Y8190D01*
X10047Y8186D01*
X10053Y8185D01*
X10053Y8185D01*
X10053Y8185D01*
X10054Y8185D01*
X10151Y8088D01*
Y8046D01*
X10100D01*
X10095Y8045D01*
X10091Y8042D01*
X10068Y8020D01*
X10063Y8022D01*
Y8099D01*
X10064Y8100D01*
X10064D01*
X10064Y8100D01*
X10067Y8105D01*
X10069Y8112D01*
X10067Y8119D01*
X10063Y8125D01*
X10057Y8129D01*
X10050Y8130D01*
X10043Y8129D01*
X10038Y8126D01*
X10038Y8126D01*
Y8126D01*
X10037Y8125D01*
X9964D01*
X9930Y8159D01*
X9926Y8162D01*
X9921Y8163D01*
X9912D01*
X9895Y8180D01*
X9894Y8181D01*
X9894Y8181D01*
X9894Y8181D01*
X9893Y8187D01*
X9889Y8193D01*
X9883Y8197D01*
X9876Y8198D01*
X9869Y8197D01*
X9863Y8193D01*
X9859Y8187D01*
X9858Y8180D01*
X9859Y8173D01*
X9863Y8167D01*
X9869Y8163D01*
X9875Y8162D01*
X9875Y8162D01*
X9875Y8162D01*
X9876Y8162D01*
X9892Y8145D01*
X9892Y8143D01*
X9888Y8137D01*
X9887Y8130D01*
X9888Y8123D01*
X9892Y8117D01*
X9898Y8113D01*
X9905Y8111D01*
X9905Y8111D01*
X9905D01*
X9905Y8111D01*
X9905Y8111D01*
D01*
X9905D01*
X9905Y8111D01*
X9905Y8111D01*
X9984Y8033D01*
X9989Y8026D01*
X9992Y8019D01*
X9993Y8010D01*
X9993Y8010D01*
X9994Y8003D01*
X9998Y7997D01*
X10004Y7993D01*
X10005Y7993D01*
X10006Y7988D01*
X9934Y7916D01*
X9933Y7915D01*
X9933Y7915D01*
X9933Y7915D01*
X9927Y7914D01*
X9921Y7910D01*
X9917Y7904D01*
X9916Y7897D01*
X9917Y7890D01*
X9921Y7884D01*
X9924Y7882D01*
X9925Y7877D01*
X9925Y7876D01*
X9921Y7871D01*
X9918Y7864D01*
X9917Y7856D01*
X9917Y7855D01*
X9918Y7848D01*
X9922Y7842D01*
X9928Y7838D01*
X9935Y7837D01*
X9942Y7838D01*
X9948Y7842D01*
X9952Y7848D01*
X9954Y7855D01*
X9953Y7855D01*
X9954Y7863D01*
X9957Y7870D01*
X9962Y7876D01*
X9971Y7885D01*
X9975Y7883D01*
X9974Y7876D01*
X9975Y7869D01*
X9979Y7863D01*
X9985Y7859D01*
X9992Y7858D01*
X9999Y7859D01*
X10004Y7862D01*
X10004Y7862D01*
Y7862D01*
X10005Y7863D01*
X10015D01*
X10016Y7862D01*
X10017Y7856D01*
X10021Y7851D01*
X10021Y7851D01*
X10021D01*
X10021Y7850D01*
Y7833D01*
X10017Y7830D01*
X10013Y7830D01*
X10006Y7829D01*
X10001Y7826D01*
X10001Y7826D01*
Y7826D01*
X10000Y7825D01*
X9909D01*
X9886Y7848D01*
Y7937D01*
X9887Y7938D01*
X9887D01*
X9887Y7938D01*
X9890Y7943D01*
X9892Y7950D01*
X9890Y7957D01*
X9886Y7963D01*
X9880Y7967D01*
X9873Y7968D01*
X9866Y7967D01*
X9860Y7963D01*
X9856Y7957D01*
X9855Y7950D01*
X9856Y7943D01*
X9860Y7938D01*
X9860Y7938D01*
X9860D01*
X9860Y7937D01*
Y7842D01*
X9861Y7837D01*
X9864Y7833D01*
X9894Y7803D01*
X9898Y7800D01*
X9903Y7799D01*
X10000D01*
X10001Y7798D01*
Y7798D01*
X10001Y7798D01*
X10006Y7795D01*
X10013Y7794D01*
X10020Y7795D01*
X10020Y7795D01*
X10020Y7795D01*
X10024Y7794D01*
X10025Y7793D01*
X10118Y7700D01*
X10122Y7697D01*
X10127Y7696D01*
X10425D01*
X10430Y7697D01*
X10435Y7700D01*
X10451Y7717D01*
X10452Y7717D01*
X10452Y7717D01*
X10452Y7717D01*
X10458Y7718D01*
X10464Y7722D01*
X10468Y7728D01*
X10470Y7735D01*
X10468Y7742D01*
X10464Y7748D01*
X10458Y7752D01*
X10451Y7753D01*
X10444Y7752D01*
X10438Y7748D01*
X10434Y7742D01*
X10433Y7736D01*
X10433Y7736D01*
X10433Y7736D01*
X10433Y7735D01*
X10420Y7722D01*
X10382D01*
X10380Y7727D01*
X10517Y7864D01*
X10519Y7868D01*
X10520Y7873D01*
Y7956D01*
X10521D01*
X10520Y7957D01*
X10522Y7964D01*
X10525Y7968D01*
X10529Y7967D01*
Y7963D01*
X10552D01*
Y7991D01*
X10557D01*
Y7996D01*
X10585D01*
Y8019D01*
X10581D01*
X10578Y8023D01*
X10581Y8027D01*
X10584Y8034D01*
X10584Y8036D01*
X10557D01*
Y8046D01*
X10584D01*
X10584Y8048D01*
X10581Y8055D01*
X10577Y8061D01*
X10571Y8065D01*
Y8067D01*
X10577Y8071D01*
X10581Y8077D01*
X10584Y8084D01*
X10585Y8091D01*
X10585Y8091D01*
X10585D01*
X10585Y8091D01*
X10586Y8097D01*
X10589Y8102D01*
X10591Y8104D01*
X10596Y8102D01*
Y7665D01*
X8939D01*
Y8846D01*
X10596D01*
Y8587D01*
D02*
G37*
%LPC*%
G36*
X10438Y8794D02*
X10406D01*
X10407Y8789D01*
X10410Y8780D01*
X10416Y8772D01*
X10424Y8766D01*
X10433Y8763D01*
X10438Y8762D01*
Y8794D01*
D02*
G37*
G36*
X9643Y8837D02*
X9633Y8836D01*
X9624Y8832D01*
X9616Y8826D01*
X9610Y8818D01*
X9607Y8809D01*
X9605Y8799D01*
X9607Y8789D01*
X9610Y8780D01*
X9616Y8772D01*
X9624Y8766D01*
X9633Y8763D01*
X9643Y8761D01*
X9653Y8763D01*
X9662Y8766D01*
X9670Y8772D01*
X9676Y8780D01*
X9680Y8789D01*
X9681Y8799D01*
X9680Y8809D01*
X9676Y8818D01*
X9670Y8826D01*
X9662Y8832D01*
X9653Y8836D01*
X9643Y8837D01*
D02*
G37*
G36*
X9477Y8825D02*
X9462Y8823D01*
X9448Y8817D01*
X9436Y8808D01*
X9427Y8796D01*
X9421Y8782D01*
X9419Y8767D01*
X9421Y8752D01*
X9427Y8738D01*
X9436Y8726D01*
X9448Y8717D01*
X9462Y8711D01*
X9477Y8709D01*
X9492Y8711D01*
X9506Y8717D01*
X9518Y8726D01*
X9527Y8738D01*
X9533Y8752D01*
X9535Y8767D01*
X9533Y8782D01*
X9527Y8796D01*
X9518Y8808D01*
X9506Y8817D01*
X9492Y8823D01*
X9477Y8825D01*
D02*
G37*
G36*
X10580Y8794D02*
X10548D01*
Y8762D01*
X10553Y8763D01*
X10562Y8766D01*
X10570Y8772D01*
X10576Y8780D01*
X10580Y8789D01*
X10580Y8794D01*
D02*
G37*
G36*
X9838Y8836D02*
X9833Y8836D01*
X9824Y8832D01*
X9816Y8826D01*
X9810Y8818D01*
X9807Y8809D01*
X9806Y8804D01*
X9838D01*
Y8836D01*
D02*
G37*
G36*
X10480Y8794D02*
X10448D01*
Y8762D01*
X10453Y8763D01*
X10462Y8766D01*
X10470Y8772D01*
X10476Y8780D01*
X10480Y8789D01*
X10480Y8794D01*
D02*
G37*
G36*
X10538D02*
X10506D01*
X10507Y8789D01*
X10510Y8780D01*
X10516Y8772D01*
X10524Y8766D01*
X10533Y8763D01*
X10538Y8762D01*
Y8794D01*
D02*
G37*
G36*
X9407Y8688D02*
X9400Y8687D01*
X9394Y8683D01*
X9394Y8683D01*
X9394Y8683D01*
Y8683D01*
X9394Y8683D01*
X9376D01*
X9375Y8683D01*
Y8683D01*
X9375Y8683D01*
X9370Y8687D01*
X9363Y8688D01*
X9356Y8687D01*
X9350Y8683D01*
X9346Y8677D01*
X9344Y8670D01*
X9346Y8663D01*
X9350Y8657D01*
X9356Y8653D01*
X9363Y8651D01*
X9370Y8653D01*
X9375Y8656D01*
X9375Y8656D01*
Y8656D01*
X9376Y8656D01*
X9395D01*
X9396Y8656D01*
X9400Y8653D01*
X9407Y8652D01*
X9414Y8653D01*
X9420Y8657D01*
X9424Y8663D01*
X9426Y8670D01*
X9424Y8677D01*
X9420Y8683D01*
X9414Y8687D01*
X9407Y8688D01*
D02*
G37*
G36*
X10585Y7986D02*
X10562D01*
Y7963D01*
X10585D01*
Y7986D01*
D02*
G37*
G36*
X9791Y8205D02*
X9784Y8203D01*
X9778Y8199D01*
X9774Y8193D01*
X9773Y8186D01*
X9774Y8179D01*
X9778Y8173D01*
X9784Y8169D01*
X9790Y8168D01*
X9790Y8168D01*
X9790Y8168D01*
X9791Y8168D01*
X9810Y8149D01*
Y7956D01*
X9805Y7954D01*
X9803Y7957D01*
X9797Y7961D01*
X9790Y7962D01*
X9783Y7961D01*
X9777Y7957D01*
X9773Y7951D01*
X9772Y7944D01*
Y7874D01*
X9773Y7867D01*
X9777Y7861D01*
X9783Y7857D01*
X9790Y7856D01*
X9797Y7857D01*
X9803Y7861D01*
X9805Y7864D01*
X9810Y7862D01*
Y7774D01*
X9809Y7773D01*
X9809D01*
X9809Y7773D01*
X9806Y7768D01*
X9805Y7761D01*
X9806Y7754D01*
X9810Y7748D01*
X9816Y7744D01*
X9823Y7743D01*
X9830Y7744D01*
X9836Y7748D01*
X9840Y7754D01*
X9841Y7761D01*
X9840Y7768D01*
X9837Y7773D01*
X9837Y7773D01*
X9837D01*
X9836Y7774D01*
Y8154D01*
X9835Y8159D01*
X9832Y8164D01*
X9810Y8186D01*
X9809Y8187D01*
X9809Y8187D01*
X9809Y8187D01*
X9808Y8193D01*
X9804Y8199D01*
X9798Y8203D01*
X9791Y8205D01*
D02*
G37*
G36*
X9247Y8010D02*
X8948D01*
X8948Y8009D01*
X8948Y8009D01*
Y7681D01*
X8948Y7681D01*
X8948Y7681D01*
X9247D01*
X9248Y7681D01*
X9248Y7681D01*
Y8009D01*
X9248Y8009D01*
X9247Y8010D01*
D02*
G37*
G36*
X9867Y8379D02*
X9794D01*
X9788Y8378D01*
X9787Y8378D01*
X9781Y8374D01*
X9686Y8279D01*
X9682Y8273D01*
X9682Y8272D01*
X9681Y8266D01*
Y8207D01*
X9682Y8200D01*
X9686Y8194D01*
X9692Y8190D01*
X9699Y8189D01*
X9706Y8190D01*
X9712Y8194D01*
X9716Y8200D01*
X9718Y8207D01*
Y8258D01*
X9802Y8343D01*
X9867D01*
X9874Y8344D01*
X9880Y8348D01*
X9884Y8354D01*
X9886Y8361D01*
X9884Y8368D01*
X9880Y8374D01*
X9874Y8378D01*
X9867Y8379D01*
D02*
G37*
G36*
X10543Y8737D02*
X10533Y8736D01*
X10524Y8732D01*
X10516Y8726D01*
X10510Y8718D01*
X10507Y8709D01*
X10505Y8699D01*
X10507Y8689D01*
X10510Y8680D01*
X10516Y8672D01*
X10524Y8666D01*
X10533Y8663D01*
X10543Y8661D01*
X10553Y8663D01*
X10562Y8666D01*
X10570Y8672D01*
X10576Y8680D01*
X10580Y8689D01*
X10581Y8699D01*
X10580Y8709D01*
X10576Y8718D01*
X10570Y8726D01*
X10562Y8732D01*
X10553Y8736D01*
X10543Y8737D01*
D02*
G37*
G36*
X9136Y8477D02*
X9130Y8476D01*
X9123Y8473D01*
X9118Y8469D01*
X9114Y8464D01*
X9111Y8458D01*
X9110Y8451D01*
X9111Y8444D01*
X9114Y8438D01*
X9118Y8433D01*
X9123Y8428D01*
X9130Y8426D01*
X9136Y8425D01*
X9143Y8426D01*
X9149Y8428D01*
X9155Y8433D01*
X9159Y8438D01*
X9161Y8444D01*
X9162Y8451D01*
X9161Y8458D01*
X9159Y8464D01*
X9155Y8469D01*
X9149Y8473D01*
X9143Y8476D01*
X9136Y8477D01*
D02*
G37*
G36*
Y8304D02*
X9130Y8303D01*
X9123Y8300D01*
X9118Y8296D01*
X9114Y8291D01*
X9111Y8284D01*
X9110Y8278D01*
X9111Y8271D01*
X9114Y8265D01*
X9118Y8259D01*
X9123Y8255D01*
X9130Y8253D01*
X9136Y8252D01*
X9143Y8253D01*
X9149Y8255D01*
X9155Y8259D01*
X9159Y8265D01*
X9161Y8271D01*
X9162Y8278D01*
X9161Y8284D01*
X9159Y8291D01*
X9155Y8296D01*
X9149Y8300D01*
X9143Y8303D01*
X9136Y8304D01*
D02*
G37*
G36*
X9848Y8836D02*
Y8804D01*
X9880D01*
X9880Y8809D01*
X9876Y8818D01*
X9870Y8826D01*
X9862Y8832D01*
X9853Y8836D01*
X9848Y8836D01*
D02*
G37*
G36*
X10138Y8836D02*
X10133Y8836D01*
X10124Y8832D01*
X10116Y8826D01*
X10110Y8818D01*
X10107Y8809D01*
X10106Y8804D01*
X10138D01*
Y8836D01*
D02*
G37*
G36*
X10148D02*
Y8804D01*
X10180D01*
X10180Y8809D01*
X10176Y8818D01*
X10170Y8826D01*
X10162Y8832D01*
X10153Y8836D01*
X10148Y8836D01*
D02*
G37*
G36*
X10038D02*
X10033Y8836D01*
X10024Y8832D01*
X10016Y8826D01*
X10010Y8818D01*
X10007Y8809D01*
X10006Y8804D01*
X10038D01*
Y8836D01*
D02*
G37*
G36*
X10048D02*
Y8804D01*
X10080D01*
X10080Y8809D01*
X10076Y8818D01*
X10070Y8826D01*
X10062Y8832D01*
X10053Y8836D01*
X10048Y8836D01*
D02*
G37*
G36*
X10538D02*
X10533Y8836D01*
X10524Y8832D01*
X10516Y8826D01*
X10510Y8818D01*
X10507Y8809D01*
X10506Y8804D01*
X10538D01*
Y8836D01*
D02*
G37*
G36*
X10548D02*
Y8804D01*
X10580D01*
X10580Y8809D01*
X10576Y8818D01*
X10570Y8826D01*
X10562Y8832D01*
X10553Y8836D01*
X10548Y8836D01*
D02*
G37*
G36*
X10438D02*
X10433Y8836D01*
X10424Y8832D01*
X10416Y8826D01*
X10410Y8818D01*
X10407Y8809D01*
X10406Y8804D01*
X10438D01*
Y8836D01*
D02*
G37*
G36*
X10448D02*
Y8804D01*
X10480D01*
X10480Y8809D01*
X10476Y8818D01*
X10470Y8826D01*
X10462Y8832D01*
X10453Y8836D01*
X10448Y8836D01*
D02*
G37*
G36*
X10238Y8836D02*
X10233Y8836D01*
X10224Y8832D01*
X10216Y8826D01*
X10210Y8818D01*
X10207Y8809D01*
X10206Y8804D01*
X10238D01*
Y8836D01*
D02*
G37*
G36*
X10248D02*
Y8804D01*
X10280D01*
X10280Y8809D01*
X10276Y8818D01*
X10270Y8826D01*
X10262Y8832D01*
X10253Y8836D01*
X10248Y8836D01*
D02*
G37*
G36*
X9938D02*
X9933Y8836D01*
X9924Y8832D01*
X9916Y8826D01*
X9910Y8818D01*
X9907Y8809D01*
X9906Y8804D01*
X9938D01*
Y8836D01*
D02*
G37*
G36*
X9948D02*
Y8804D01*
X9980D01*
X9980Y8809D01*
X9976Y8818D01*
X9970Y8826D01*
X9962Y8832D01*
X9953Y8836D01*
X9948Y8836D01*
D02*
G37*
G36*
X9738Y8836D02*
X9733Y8836D01*
X9724Y8832D01*
X9716Y8826D01*
X9710Y8818D01*
X9707Y8809D01*
X9706Y8804D01*
X9738D01*
Y8836D01*
D02*
G37*
G36*
X9748D02*
Y8804D01*
X9780D01*
X9780Y8809D01*
X9776Y8818D01*
X9770Y8826D01*
X9762Y8832D01*
X9753Y8836D01*
X9748Y8836D01*
D02*
G37*
G36*
X10338Y8836D02*
X10333Y8836D01*
X10324Y8832D01*
X10316Y8826D01*
X10310Y8818D01*
X10307Y8809D01*
X10306Y8804D01*
X10338D01*
Y8836D01*
D02*
G37*
G36*
X10348D02*
Y8804D01*
X10380D01*
X10380Y8809D01*
X10376Y8818D01*
X10370Y8826D01*
X10362Y8832D01*
X10353Y8836D01*
X10348Y8836D01*
D02*
G37*
%LPD*%
D10*
X10582Y8382D02*
G03*
X10572Y8357I25J-25D01*
G01*
X10557Y8372D02*
G03*
X10582Y8382I0J35D01*
G01*
X10482D02*
G03*
X10507Y8372I25J25D01*
G01*
X10492Y8357D02*
G03*
X10482Y8382I-35J0D01*
G01*
X10482Y8432D02*
G03*
X10507Y8422I25J25D01*
G01*
X10492Y8407D02*
G03*
X10482Y8432I-35J0D01*
G01*
X10482Y8482D02*
G03*
X10507Y8472I25J25D01*
G01*
X10492Y8457D02*
G03*
X10482Y8482I-35J0D01*
G01*
X10507Y7956D02*
G03*
X10497Y7981I-35J0D01*
G01*
X10518D02*
G03*
X10507Y7956I25J-25D01*
G01*
X10487Y8064D02*
G03*
X10507Y8056I20J20D01*
G01*
X10492Y8041D02*
G03*
X10480Y8071I-43J0D01*
G01*
X10580Y8111D02*
G03*
X10572Y8091I20J-20D01*
G01*
X10557Y8106D02*
G03*
X10587Y8118I0J43D01*
G01*
X10482Y8116D02*
G03*
X10507Y8106I25J25D01*
G01*
X10492Y8091D02*
G03*
X10482Y8116I-35J0D01*
G01*
X10299Y8741D02*
G03*
X10342Y8724I41J41D01*
G01*
X10315Y8725D02*
G03*
X10343Y8714I26J26D01*
G01*
X10319Y8699D02*
G03*
X10303Y8736I-52J0D01*
G01*
X10329Y8699D02*
G03*
X10320Y8719I-28J0D01*
G01*
X10284Y8659D02*
G03*
X10244Y8675I-38J-38D01*
G01*
X10267Y8675D02*
G03*
X10244Y8685I-23J-23D01*
G01*
X10268Y8698D02*
G03*
X10284Y8659I54J-1D01*
G01*
X10258Y8699D02*
G03*
X10267Y8675I32J-1D01*
G01*
X10085Y8657D02*
G03*
X10043Y8675I-42J-42D01*
G01*
X10068Y8674D02*
G03*
X10043Y8685I-25J-25D01*
G01*
X10068Y8699D02*
G03*
X10085Y8657I59J0D01*
G01*
X10058Y8699D02*
G03*
X10068Y8674I35J0D01*
G01*
X9985Y8657D02*
G03*
X9943Y8675I-42J-42D01*
G01*
X9968Y8674D02*
G03*
X9943Y8685I-25J-25D01*
G01*
X9968Y8699D02*
G03*
X9985Y8657I59J0D01*
G01*
X9958Y8699D02*
G03*
X9968Y8674I35J0D01*
G01*
X9601Y8657D02*
G03*
X9619Y8699I-42J42D01*
G01*
X9618Y8674D02*
G03*
X9629Y8699I-25J25D01*
G01*
X9643Y8675D02*
G03*
X9601Y8657I0J-59D01*
G01*
X9643Y8685D02*
G03*
X9618Y8674I0J-35D01*
G01*
X9685Y8741D02*
G03*
X9668Y8699I42J-42D01*
G01*
X9668Y8724D02*
G03*
X9658Y8699I25J-25D01*
G01*
X9643Y8724D02*
G03*
X9685Y8741I0J59D01*
G01*
X9643Y8714D02*
G03*
X9668Y8724I0J35D01*
G01*
X10011Y8022D02*
G03*
X10015Y8014I12J0D01*
G01*
X10008D02*
G03*
X10011Y8022I-9J9D01*
G01*
X10006Y8010D02*
G03*
X9993Y8043I-46J0D01*
G01*
X10016Y8010D02*
G03*
X10010Y8025I-22J0D01*
G01*
X9943Y7906D02*
G03*
X9939Y7897I9J-9D01*
G01*
X9934Y7902D02*
G03*
X9943Y7906I0J12D01*
G01*
X9873Y7938D02*
G03*
X9870Y7947I-12J0D01*
G01*
X9877D02*
G03*
X9873Y7938I9J-9D01*
G01*
X9935Y7867D02*
G03*
X9939Y7859I12J0D01*
G01*
X9932D02*
G03*
X9935Y7867I-9J9D01*
G01*
X9953Y7886D02*
G03*
X9940Y7855I31J-31D01*
G01*
X9936Y7869D02*
G03*
X9930Y7855I14J-14D01*
G01*
X10004Y7876D02*
G03*
X9996Y7873I0J-12D01*
G01*
Y7880D02*
G03*
X10004Y7876I9J9D01*
G01*
X9826Y8230D02*
G03*
X9822Y8221I9J-9D01*
G01*
X9817Y8226D02*
G03*
X9826Y8230I0J12D01*
G01*
X10164Y8045D02*
G03*
X10168Y8037I12J0D01*
G01*
X10161D02*
G03*
X10164Y8045I-9J9D01*
G01*
X10152Y8033D02*
G03*
X10161Y8037I0J12D01*
G01*
Y8030D02*
G03*
X10152Y8033I-9J-9D01*
G01*
X10218Y8023D02*
G03*
X10222Y8014I12J0D01*
G01*
X10215D02*
G03*
X10218Y8023I-9J9D01*
G01*
X10272Y8049D02*
G03*
X10269Y8058I-12J0D01*
G01*
X10276D02*
G03*
X10272Y8049I9J-9D01*
G01*
X9824Y8311D02*
G03*
X9817Y8314I-7J-7D01*
G01*
X9822Y8319D02*
G03*
X9827Y8309I14J0D01*
G01*
X9823Y7773D02*
G03*
X9827Y7764I12J0D01*
G01*
X9819D02*
G03*
X9823Y7773I-9J9D01*
G01*
X10216Y7838D02*
G03*
X10225Y7841I0J12D01*
G01*
Y7834D02*
G03*
X10216Y7838I-9J-9D01*
G01*
X10145Y7805D02*
G03*
X10151Y7790I21J0D01*
G01*
X10174Y7821D02*
G03*
X10171Y7812I9J-9D01*
G01*
X10166Y7817D02*
G03*
X10174Y7821I0J12D01*
G01*
X10034Y7851D02*
G03*
X10031Y7860I-12J0D01*
G01*
X10038D02*
G03*
X10034Y7851I9J-9D01*
G01*
X10443Y7727D02*
G03*
X10446Y7735I-9J9D01*
G01*
X10451Y7730D02*
G03*
X10443Y7727I0J-12D01*
G01*
X9589Y8039D02*
G03*
X9593Y8031I12J0D01*
G01*
X9586D02*
G03*
X9589Y8039I-9J9D01*
G01*
X10406Y7915D02*
G03*
X10414Y7912I9J9D01*
G01*
X10409Y7907D02*
G03*
X10406Y7915I-12J0D01*
G01*
X10343Y7823D02*
G03*
X10354Y7819I10J10D01*
G01*
X10349Y7814D02*
G03*
X10346Y7820I-10J0D01*
G01*
X10373Y7831D02*
G03*
X10381Y7827I9J9D01*
G01*
X10376Y7822D02*
G03*
X10373Y7831I-12J0D01*
G01*
X10367Y8103D02*
G03*
X10370Y8111I-9J9D01*
G01*
X10375Y8106D02*
G03*
X10367Y8103I0J-12D01*
G01*
X9800Y8178D02*
G03*
X9791Y8181I-9J-9D01*
G01*
X9796Y8186D02*
G03*
X9800Y8178I12J0D01*
G01*
X10449Y7859D02*
G03*
X10445Y7850I9J-9D01*
G01*
X10440Y7855D02*
G03*
X10449Y7859I0J12D01*
G01*
X10266Y8126D02*
G03*
X10275Y8130I0J12D01*
G01*
Y8123D02*
G03*
X10266Y8126I-9J-9D01*
G01*
X10168Y8189D02*
G03*
X10160Y8186I0J-12D01*
G01*
Y8193D02*
G03*
X10168Y8189I9J9D01*
G01*
X9679Y7950D02*
G03*
X9687Y7946I9J9D01*
G01*
X9682Y7941D02*
G03*
X9679Y7950I-12J0D01*
G01*
X10050Y8100D02*
G03*
X10047Y8109I-12J0D01*
G01*
X10054D02*
G03*
X10050Y8100I9J-9D01*
G01*
X10038Y8112D02*
G03*
X10047Y8116I0J12D01*
G01*
Y8109D02*
G03*
X10038Y8112I-9J-9D01*
G01*
X10189Y8222D02*
G03*
X10197Y8218I9J9D01*
G01*
X10192Y8213D02*
G03*
X10189Y8222I-12J0D01*
G01*
X9375Y8670D02*
G03*
X9366Y8666I0J-12D01*
G01*
Y8673D02*
G03*
X9375Y8670I9J9D01*
G01*
X10001Y7812D02*
G03*
X10010Y7816I0J12D01*
G01*
Y7809D02*
G03*
X10001Y7812I-9J-9D01*
G01*
X9394Y8670D02*
G03*
X9404Y8674I0J14D01*
G01*
Y8667D02*
G03*
X9396Y8670I-7J-7D01*
G01*
X10006Y8322D02*
G03*
X9998Y8319I0J-12D01*
G01*
Y8326D02*
G03*
X10006Y8322I9J9D01*
G01*
X10010Y8350D02*
G03*
X10021Y8345I11J11D01*
G01*
X10440Y8241D02*
G03*
X10437Y8250I-12J0D01*
G01*
X10444D02*
G03*
X10440Y8241I9J-9D01*
G01*
Y8156D02*
G03*
X10437Y8165I-12J0D01*
G01*
X10444D02*
G03*
X10440Y8156I9J-9D01*
G01*
Y8180D02*
G03*
X10444Y8172I12J0D01*
G01*
X10437D02*
G03*
X10440Y8180I-9J9D01*
G01*
X9885Y8172D02*
G03*
X9876Y8175I-9J-9D01*
G01*
X9881Y8180D02*
G03*
X9885Y8172I12J0D01*
G01*
X9914Y8121D02*
G03*
X9905Y8125I-9J-9D01*
G01*
X9910Y8130D02*
G03*
X9913Y8122I11J0D01*
G01*
X9851Y8222D02*
G03*
X9847Y8213I9J-9D01*
G01*
X9842Y8218D02*
G03*
X9851Y8222I0J12D01*
G01*
X9879Y8223D02*
G03*
X9846Y8210I0J-47D01*
G01*
X9855Y8223D02*
G03*
X9839Y8217I0J-23D01*
G01*
X10188Y8080D02*
G03*
X10185Y8089I-12J0D01*
G01*
X10192D02*
G03*
X10188Y8080I9J-9D01*
G01*
X10063Y8195D02*
G03*
X10054Y8198I-9J-9D01*
G01*
X10059Y8203D02*
G03*
X10063Y8195I12J0D01*
G01*
X10055Y8208D02*
X10057Y8206D01*
X10164Y8033D02*
Y8093D01*
X10054Y8203D02*
X10164Y8093D01*
X10272Y7894D02*
X10353Y7813D01*
X9834Y8238D02*
X10172D01*
X10197Y8213D01*
X9817Y8221D02*
X9834Y8238D01*
X9842Y8213D02*
X9852Y8223D01*
X10063D01*
X9994Y8322D02*
X10421D01*
X10477Y8265D01*
Y8121D02*
Y8265D01*
X10419Y8345D02*
X10492Y8271D01*
X10007Y8345D02*
X10419D01*
X10462Y8089D02*
X10510Y8041D01*
X9817Y8318D02*
Y8319D01*
Y8318D02*
X9856Y8279D01*
X10442D01*
X10492Y8201D02*
Y8271D01*
X10462Y8089D02*
Y8259D01*
X10442Y8279D02*
X10462Y8259D01*
X9876Y8180D02*
X9907Y8150D01*
X9921D01*
X10063Y8223D02*
X10170Y8116D01*
X10100Y8033D02*
X10164D01*
Y8032D02*
Y8033D01*
X10170Y8116D02*
X10194D01*
X10440Y8173D02*
Y8253D01*
X10362Y8626D02*
X10445Y8543D01*
X10369Y8642D02*
X10461Y8550D01*
X10016Y8626D02*
X10362D01*
X10445Y8419D02*
Y8543D01*
X10100Y8642D02*
X10369D01*
X10461Y8454D02*
Y8550D01*
X10374Y8659D02*
X10477Y8557D01*
X10360Y8659D02*
X10374D01*
X10477Y8488D02*
Y8557D01*
X10381Y8675D02*
X10499Y8557D01*
X10398Y8680D02*
X10491Y8588D01*
X10367Y8675D02*
X10381D01*
X10006Y8346D02*
X10007Y8345D01*
X10560Y8091D02*
X10588Y8119D01*
Y8154D01*
X9363Y8670D02*
X9407D01*
X10398Y8680D02*
Y8710D01*
X10350Y8758D02*
X10398Y8710D01*
X9702Y8758D02*
X10350D01*
X10440Y8081D02*
Y8163D01*
Y8081D02*
X10452Y8069D01*
X10492Y8201D02*
X10522Y8172D01*
X10477Y8121D02*
X10507Y8091D01*
X10557Y8357D02*
X10588Y8388D01*
X10522Y8172D02*
X10570D01*
X10588Y8154D01*
X10188Y7864D02*
Y8092D01*
X10145Y7821D02*
X10188Y7864D01*
X10145Y7789D02*
Y7821D01*
X10513Y7991D02*
Y7994D01*
X10507Y7873D02*
Y7991D01*
X10363Y7729D02*
X10507Y7873D01*
X10510Y8091D02*
Y8098D01*
X10509Y8093D02*
X10510Y8091D01*
X10440Y8081D02*
X10452Y8069D01*
X10469Y8053D01*
X10055Y7804D02*
Y7872D01*
X10043Y7884D02*
X10055Y7872D01*
X10034Y7802D02*
Y7863D01*
X10145Y7789D02*
X10148Y7787D01*
X10188Y8092D02*
Y8094D01*
X10218Y8092D02*
X10253Y8126D01*
X10278D01*
X9823Y7761D02*
Y8154D01*
X9791Y8186D02*
X9823Y8154D01*
X10319Y7884D02*
X10381Y7822D01*
X10557Y8357D02*
Y8364D01*
X10398Y7923D02*
X10414Y7907D01*
X10414D02*
X10414D01*
X10367Y8189D02*
X10398Y8158D01*
Y7923D02*
Y8158D01*
X10156Y8189D02*
X10367D01*
X10375Y8111D02*
X10376Y8112D01*
X10319Y8055D02*
X10375Y8111D01*
X10319Y7884D02*
Y8055D01*
X10191Y7838D02*
X10229D01*
X10166Y7812D02*
X10191Y7838D01*
X10272Y7894D02*
Y8061D01*
X10445Y8419D02*
X10507Y8357D01*
X10477Y8488D02*
X10507Y8457D01*
X10461Y8454D02*
X10507Y8407D01*
X10440Y7850D02*
X10469Y7879D01*
Y8053D01*
X10034Y7802D02*
X10127Y7709D01*
X10425D01*
X10451Y7735D01*
X10055Y7804D02*
X10130Y7729D01*
X10363D01*
X10015Y7876D02*
X10023Y7884D01*
X10043D01*
X9992Y7876D02*
X10015D01*
X9935Y7855D02*
Y7868D01*
X10100Y8033D01*
X10218Y8011D02*
Y8092D01*
X10194Y8116D02*
X10218Y8092D01*
X9873Y7842D02*
X9903Y7812D01*
X10013D01*
X10360Y8659D02*
X10360Y8659D01*
X10284Y8659D02*
X10360D01*
X10243Y8699D02*
X10284Y8659D01*
X10043Y8699D02*
X10100Y8642D01*
X9943Y8699D02*
X10016Y8626D01*
X10340Y8699D02*
X10343D01*
X10297Y8742D02*
X10340Y8699D01*
X9714Y8742D02*
X10297D01*
X9694Y8722D02*
X9714Y8742D01*
X9643Y8699D02*
X9702Y8758D01*
X9694Y8636D02*
Y8722D01*
X9626Y8002D02*
Y8568D01*
X9694Y8636D01*
X9589Y8645D02*
X9643Y8699D01*
X9589Y8027D02*
Y8645D01*
X9626Y8002D02*
X9687Y7941D01*
X10499Y8557D02*
X10507D01*
X10343Y8699D02*
X10367Y8675D01*
X10570Y8588D02*
X10588Y8570D01*
Y8555D02*
Y8570D01*
Y8555D02*
X10588Y8554D01*
Y8388D02*
Y8554D01*
X10491Y8588D02*
X10570D01*
X9873Y7842D02*
Y7950D01*
X9934Y7897D02*
X10050Y8013D01*
Y8112D01*
X10011Y8010D02*
Y8024D01*
X9906Y8130D02*
X10011Y8024D01*
X9905Y8130D02*
X9906D01*
X9906D01*
X9921Y8150D02*
X9958Y8112D01*
X10050D01*
X10435Y8168D02*
X10440Y8163D01*
X10435Y8168D02*
X10440Y8173D01*
Y8168D02*
X10440Y8168D01*
X8828Y7654D02*
Y7985D01*
Y8527D02*
Y8857D01*
X8808Y7714D02*
X8828Y7654D01*
X8848Y7714D01*
X8808Y8797D02*
X8828Y8857D01*
X8848Y8797D01*
X8818Y7654D02*
X8838D01*
X8818Y8857D02*
X8838D01*
X8928Y7598D02*
X9501D01*
X10033D02*
X10606D01*
X8928D02*
X8988Y7618D01*
X8928Y7598D02*
X8988Y7578D01*
X10546Y7618D02*
X10606Y7598D01*
X10546Y7578D02*
X10606Y7598D01*
X8928Y7588D02*
Y7608D01*
X10606Y7588D02*
Y7608D01*
D11*
X9761Y8547D02*
G03*
X9780Y8555I0J27D01*
G01*
X10353Y8605D02*
X10381Y8577D01*
X9778Y8547D02*
X9783Y8552D01*
X9671Y8547D02*
X9778D01*
X9783Y8552D02*
Y8555D01*
X9836Y8605D02*
X10353D01*
X9783Y8552D02*
X9836Y8605D01*
D29*
X8928Y7654D02*
X10607D01*
X8928D02*
Y8857D01*
X10607D01*
Y7654D02*
Y8857D01*
D30*
X9247Y7681D02*
Y8009D01*
X8948Y7681D02*
Y8009D01*
X9247D01*
X8948Y8008D02*
X9247D01*
X8948Y8007D02*
X9247D01*
X8948Y8006D02*
X9247D01*
X8948Y8005D02*
X9247D01*
X8948Y8004D02*
X9247D01*
X8948Y8003D02*
X9247D01*
X8948Y8002D02*
X9247D01*
X9145Y8001D02*
X9247D01*
X8948D02*
X9142D01*
X9145Y8000D02*
X9247D01*
X8948D02*
X9142D01*
X9146Y7999D02*
X9247D01*
X8948D02*
X9142D01*
X9146Y7998D02*
X9247D01*
X8948D02*
X9142D01*
X9146Y7997D02*
X9247D01*
X8948D02*
X9142D01*
X9146Y7996D02*
X9247D01*
X8948D02*
X9142D01*
X9146Y7995D02*
X9247D01*
X8948D02*
X9142D01*
X9146Y7994D02*
X9247D01*
X8948D02*
X9142D01*
X9146Y7993D02*
X9247D01*
X8948D02*
X9143D01*
X9146Y7992D02*
X9247D01*
X8948D02*
X9143D01*
X9146Y7991D02*
X9247D01*
X8948D02*
X9143D01*
X9146Y7990D02*
X9247D01*
X8948D02*
X9143D01*
X9146Y7989D02*
X9247D01*
X8948D02*
X9143D01*
X9146Y7988D02*
X9247D01*
X8948D02*
X9143D01*
X9146Y7987D02*
X9247D01*
X8948D02*
X9143D01*
X9145Y7986D02*
X9247D01*
X8948D02*
X9143D01*
X9145Y7985D02*
X9247D01*
X8948D02*
X9142D01*
X9145Y7984D02*
X9247D01*
X8948D02*
X9142D01*
X9145Y7983D02*
X9247D01*
X8948D02*
X9142D01*
X9145Y7982D02*
X9247D01*
X8948D02*
X9142D01*
X9145Y7981D02*
X9247D01*
X8948D02*
X9142D01*
X9145Y7980D02*
X9247D01*
X8948D02*
X9142D01*
X9145Y7979D02*
X9247D01*
X8948D02*
X9142D01*
X9145Y7978D02*
X9247D01*
X8948D02*
X9142D01*
X9144Y7977D02*
X9247D01*
X8948D02*
X9141D01*
X9145Y7976D02*
X9247D01*
X8948D02*
X9139D01*
X9146Y7975D02*
X9247D01*
X8948D02*
X9138D01*
X9145Y7974D02*
X9247D01*
X8948D02*
X9137D01*
X9145Y7973D02*
X9247D01*
X8948D02*
X9136D01*
X9144Y7972D02*
X9247D01*
X8948D02*
X9134D01*
X9143Y7971D02*
X9247D01*
X8948D02*
X9133D01*
X9142Y7970D02*
X9247D01*
X8948D02*
X9132D01*
X9141Y7969D02*
X9247D01*
X8948D02*
X9131D01*
X9139Y7968D02*
X9247D01*
X8948D02*
X9130D01*
X9138Y7967D02*
X9247D01*
X8948D02*
X9128D01*
X9137Y7966D02*
X9247D01*
X8948D02*
X9127D01*
X9136Y7965D02*
X9247D01*
X8948D02*
X9126D01*
X9134Y7964D02*
X9247D01*
X8948D02*
X9125D01*
X9133Y7963D02*
X9247D01*
X8948D02*
X9123D01*
X9131Y7962D02*
X9247D01*
X8948D02*
X9122D01*
X9130Y7961D02*
X9247D01*
X8948D02*
X9121D01*
X9128Y7960D02*
X9247D01*
X8948D02*
X9119D01*
X9126Y7959D02*
X9247D01*
X8948D02*
X9118D01*
X9125Y7958D02*
X9247D01*
X8948D02*
X9117D01*
X9124Y7957D02*
X9247D01*
X8948D02*
X9116D01*
X9122Y7956D02*
X9247D01*
X8948D02*
X9115D01*
X9121Y7955D02*
X9247D01*
X8948D02*
X9114D01*
X9120Y7954D02*
X9247D01*
X8948D02*
X9113D01*
X9118Y7953D02*
X9247D01*
X8948D02*
X9111D01*
X9117Y7952D02*
X9247D01*
X9074D02*
X9110D01*
X8948D02*
X9073D01*
X9116Y7951D02*
X9247D01*
X9075D02*
X9109D01*
X8948D02*
X9073D01*
X9114Y7950D02*
X9247D01*
X9076D02*
X9108D01*
X8948D02*
X9074D01*
X9113Y7949D02*
X9247D01*
X9076D02*
X9106D01*
X8948D02*
X9074D01*
X9112Y7948D02*
X9247D01*
X9077D02*
X9105D01*
X8948D02*
X9075D01*
X9110Y7947D02*
X9247D01*
X9077D02*
X9104D01*
X8948D02*
X9075D01*
X9109Y7946D02*
X9247D01*
X9078D02*
X9103D01*
X8948D02*
X9076D01*
X9108Y7945D02*
X9247D01*
X9078D02*
X9101D01*
X8948D02*
X9076D01*
X9107Y7944D02*
X9247D01*
X9079D02*
X9101D01*
X8948D02*
X9076D01*
X9106Y7943D02*
X9247D01*
X9079D02*
X9099D01*
X8948D02*
X9076D01*
X9105Y7942D02*
X9247D01*
X9079D02*
X9098D01*
X8948D02*
X9076D01*
X9187Y7941D02*
X9247D01*
X9174D02*
X9184D01*
X9103D02*
X9156D01*
X9079D02*
X9097D01*
X8948D02*
X9077D01*
X9188Y7940D02*
X9247D01*
X9102D02*
X9149D01*
X9080D02*
X9096D01*
X8948D02*
X9077D01*
X9188Y7939D02*
X9247D01*
X9101D02*
X9146D01*
X9080D02*
X9095D01*
X8948D02*
X9077D01*
X9188Y7938D02*
X9247D01*
X9166D02*
X9174D01*
X9100D02*
X9142D01*
X9080D02*
X9094D01*
X8948D02*
X9077D01*
X9188Y7937D02*
X9247D01*
X9165D02*
X9174D01*
X9147D02*
X9153D01*
X9098D02*
X9138D01*
X9080D02*
X9093D01*
X8948D02*
X9077D01*
X9188Y7936D02*
X9247D01*
X9166D02*
X9177D01*
X9143D02*
X9153D01*
X9097D02*
X9133D01*
X9080D02*
X9092D01*
X8948D02*
X9077D01*
X9187Y7935D02*
X9247D01*
X9165D02*
X9176D01*
X9143D02*
X9152D01*
X9096D02*
X9130D01*
X9080D02*
X9091D01*
X8948D02*
X9077D01*
X9187Y7934D02*
X9247D01*
X9165D02*
X9173D01*
X9143D02*
X9154D01*
X9095D02*
X9128D01*
X9080D02*
X9089D01*
X8948D02*
X9077D01*
X9187Y7933D02*
X9247D01*
X9165D02*
X9174D01*
X9144D02*
X9152D01*
X9094D02*
X9126D01*
X9080D02*
X9089D01*
X8948D02*
X9076D01*
X9187Y7932D02*
X9247D01*
X9165D02*
X9173D01*
X9143D02*
X9152D01*
X9093D02*
X9124D01*
X9078D02*
X9088D01*
X8948D02*
X9075D01*
X9187Y7931D02*
X9247D01*
X9165D02*
X9172D01*
X9144D02*
X9153D01*
X9140D02*
X9142D01*
X9127D02*
X9132D01*
X9092D02*
X9122D01*
X9079D02*
X9086D01*
X8948D02*
X9075D01*
X9187Y7930D02*
X9247D01*
X9165D02*
X9172D01*
X9144D02*
X9152D01*
X9140D02*
X9142D01*
X9125D02*
X9131D01*
X9091D02*
X9121D01*
X9079D02*
X9085D01*
X8948D02*
X9074D01*
X9188Y7929D02*
X9247D01*
X9151D02*
X9155D01*
X9146D02*
X9149D01*
X9124D02*
X9132D01*
X9090D02*
X9119D01*
X9078D02*
X9085D01*
X8948D02*
X9074D01*
X9188Y7928D02*
X9247D01*
X9183D02*
X9185D01*
X9147D02*
X9149D01*
X9122D02*
X9132D01*
X9089D02*
X9118D01*
X9078D02*
X9084D01*
X8948D02*
X9073D01*
X9188Y7927D02*
X9247D01*
X9181D02*
X9185D01*
X9147D02*
X9148D01*
X9122D02*
X9137D01*
X9088D02*
X9117D01*
X9078D02*
X9083D01*
X8948D02*
X9072D01*
X9188Y7926D02*
X9247D01*
X9180D02*
X9186D01*
X9163D02*
X9171D01*
X9123D02*
X9136D01*
X9087D02*
X9116D01*
X9077D02*
X9082D01*
X8948D02*
X9072D01*
X9189Y7925D02*
X9247D01*
X9179D02*
X9186D01*
X9158D02*
X9173D01*
X9124D02*
X9134D01*
X9086D02*
X9115D01*
X9076D02*
X9080D01*
X8948D02*
X9071D01*
X9189Y7924D02*
X9247D01*
X9178D02*
X9187D01*
X9151D02*
X9173D01*
X9124D02*
X9134D01*
X9085D02*
X9114D01*
X9075D02*
X9080D01*
X8948D02*
X9071D01*
X9189Y7923D02*
X9247D01*
X9179D02*
X9187D01*
X9148D02*
X9174D01*
X9125D02*
X9134D01*
X9085D02*
X9113D01*
X9075D02*
X9080D01*
X8948D02*
X9070D01*
X9189Y7922D02*
X9247D01*
X9180D02*
X9187D01*
X9166D02*
X9171D01*
X9145D02*
X9162D01*
X9125D02*
X9136D01*
X9085D02*
X9112D01*
X9075D02*
X9079D01*
X8948D02*
X9070D01*
X9190Y7921D02*
X9247D01*
X9180D02*
X9187D01*
X9166D02*
X9168D01*
X9158D02*
X9162D01*
X9143D02*
X9156D01*
X9134D02*
X9136D01*
X9131D02*
X9132D01*
X9126D02*
X9129D01*
X9086D02*
X9111D01*
X9074D02*
X9079D01*
X8948D02*
X9069D01*
X9241Y7920D02*
X9247D01*
X9190D02*
X9238D01*
X9179D02*
X9187D01*
X9172D02*
X9175D01*
X9154D02*
X9167D01*
X9141D02*
X9153D01*
X9134D02*
X9136D01*
X9127D02*
X9129D01*
X9121D02*
X9123D01*
X9086D02*
X9110D01*
X9073D02*
X9079D01*
X8948D02*
X9069D01*
X9242Y7919D02*
X9247D01*
X9190D02*
X9232D01*
X9180D02*
X9187D01*
X9169D02*
X9175D01*
X9140D02*
X9166D01*
X9130D02*
X9131D01*
X9112D02*
X9114D01*
X9087D02*
X9109D01*
X9073D02*
X9079D01*
X8948D02*
X9068D01*
X9242Y7918D02*
X9247D01*
X9190D02*
X9229D01*
X9181D02*
X9184D01*
X9164D02*
X9175D01*
X9147D02*
X9162D01*
X9141D02*
X9145D01*
X9137D02*
X9139D01*
X9130D02*
X9132D01*
X9111D02*
X9116D01*
X9087D02*
X9109D01*
X9072D02*
X9079D01*
X8948D02*
X9068D01*
X9241Y7917D02*
X9247D01*
X9191D02*
X9227D01*
X9169D02*
X9175D01*
X9165D02*
X9167D01*
X9157D02*
X9160D01*
X9147D02*
X9155D01*
X9135D02*
X9145D01*
X9111D02*
X9117D01*
X9087D02*
X9108D01*
X9072D02*
X9079D01*
X8948D02*
X9067D01*
X9234Y7916D02*
X9247D01*
X9191D02*
X9226D01*
X9172D02*
X9175D01*
X9169D02*
X9170D01*
X9142D02*
X9167D01*
X9134D02*
X9141D01*
X9110D02*
X9118D01*
X9087D02*
X9108D01*
X9071D02*
X9079D01*
X8948D02*
X9067D01*
X9231Y7915D02*
X9247D01*
X9191D02*
X9223D01*
X9172D02*
X9174D01*
X9169D02*
X9170D01*
X9142D02*
X9167D01*
X9132D02*
X9139D01*
X9110D02*
X9120D01*
X9088D02*
X9107D01*
X9070D02*
X9079D01*
X8948D02*
X9066D01*
X9229Y7914D02*
X9247D01*
X9191D02*
X9221D01*
X9169D02*
X9175D01*
X9141D02*
X9167D01*
X9131D02*
X9139D01*
X9109D02*
X9120D01*
X9087D02*
X9106D01*
X9070D02*
X9079D01*
X8948D02*
X9066D01*
X9227Y7913D02*
X9247D01*
X9191D02*
X9219D01*
X9174D02*
X9176D01*
X9166D02*
X9172D01*
X9140D02*
X9164D01*
X9132D02*
X9138D01*
X9108D02*
X9121D01*
X9088D02*
X9106D01*
X9069D02*
X9079D01*
X8948D02*
X9065D01*
X9225Y7912D02*
X9247D01*
X9191D02*
X9217D01*
X9153D02*
X9176D01*
X9136D02*
X9152D01*
X9132D02*
X9134D01*
X9128D02*
X9130D01*
X9120D02*
X9121D01*
X9108D02*
X9118D01*
X9088D02*
X9105D01*
X9069D02*
X9079D01*
X8948D02*
X9065D01*
X9223Y7911D02*
X9247D01*
X9192D02*
X9215D01*
X9181D02*
X9183D01*
X9173D02*
X9176D01*
X9168D02*
X9170D01*
X9145D02*
X9166D01*
X9127D02*
X9140D01*
X9108D02*
X9118D01*
X9088D02*
X9104D01*
X9068D02*
X9079D01*
X8948D02*
X9064D01*
X9220Y7910D02*
X9247D01*
X9192D02*
X9214D01*
X9172D02*
X9176D01*
X9168D02*
X9169D01*
X9151D02*
X9166D01*
X9145D02*
X9149D01*
X9126D02*
X9143D01*
X9120D02*
X9122D01*
X9109D02*
X9118D01*
X9088D02*
X9104D01*
X9068D02*
X9079D01*
X8948D02*
X9064D01*
X9221Y7909D02*
X9247D01*
X9192D02*
X9214D01*
X9163D02*
X9176D01*
X9128D02*
X9161D01*
X9125D02*
X9126D01*
X9120D02*
X9122D01*
X9112D02*
X9116D01*
X9088D02*
X9103D01*
X9067D02*
X9079D01*
X8948D02*
X9063D01*
X9221Y7908D02*
X9247D01*
X9192D02*
X9213D01*
X9170D02*
X9176D01*
X9163D02*
X9168D01*
X9124D02*
X9161D01*
X9118D02*
X9121D01*
X9114D02*
X9116D01*
X9088D02*
X9103D01*
X9066D02*
X9079D01*
X8948D02*
X9063D01*
X9221Y7907D02*
X9247D01*
X9192D02*
X9213D01*
X9172D02*
X9176D01*
X9166D02*
X9167D01*
X9148D02*
X9164D01*
X9123D02*
X9146D01*
X9088D02*
X9102D01*
X9066D02*
X9078D01*
X8948D02*
X9062D01*
X9220Y7906D02*
X9247D01*
X9192D02*
X9212D01*
X9181D02*
X9190D01*
X9172D02*
X9176D01*
X9166D02*
X9170D01*
X9147D02*
X9164D01*
X9135D02*
X9145D01*
X9126D02*
X9133D01*
X9122D02*
X9124D01*
X9088D02*
X9102D01*
X9081D02*
X9082D01*
X9065D02*
X9079D01*
X8948D02*
X9062D01*
X9220Y7905D02*
X9247D01*
X9192D02*
X9212D01*
X9181D02*
X9190D01*
X9167D02*
X9176D01*
X9135D02*
X9165D01*
X9126D02*
X9133D01*
X9121D02*
X9124D01*
X9088D02*
X9101D01*
X9081D02*
X9083D01*
X9065D02*
X9078D01*
X8948D02*
X9061D01*
X9219Y7904D02*
X9247D01*
X9192D02*
X9212D01*
X9180D02*
X9190D01*
X9168D02*
X9176D01*
X9120D02*
X9165D01*
X9088D02*
X9100D01*
X9065D02*
X9079D01*
X8948D02*
X9061D01*
X9219Y7903D02*
X9247D01*
X9192D02*
X9212D01*
X9181D02*
X9190D01*
X9168D02*
X9176D01*
X9146D02*
X9165D01*
X9119D02*
X9142D01*
X9088D02*
X9100D01*
X9064D02*
X9079D01*
X8948D02*
X9060D01*
X9218Y7902D02*
X9247D01*
X9192D02*
X9211D01*
X9181D02*
X9190D01*
X9173D02*
X9176D01*
X9167D02*
X9171D01*
X9146D02*
X9164D01*
X9119D02*
X9144D01*
X9088D02*
X9099D01*
X9081D02*
X9083D01*
X9064D02*
X9079D01*
X8948D02*
X9060D01*
X9218Y7901D02*
X9247D01*
X9192D02*
X9211D01*
X9181D02*
X9190D01*
X9173D02*
X9176D01*
X9162D02*
X9171D01*
X9138D02*
X9160D01*
X9118D02*
X9136D01*
X9089D02*
X9099D01*
X9063D02*
X9079D01*
X8948D02*
X9060D01*
X9217Y7900D02*
X9247D01*
X9192D02*
X9211D01*
X9181D02*
X9190D01*
X9168D02*
X9176D01*
X9162D02*
X9166D01*
X9145D02*
X9160D01*
X9137D02*
X9143D01*
X9128D02*
X9134D01*
X9117D02*
X9127D01*
X9089D02*
X9098D01*
X9062D02*
X9079D01*
X8948D02*
X9059D01*
X9217Y7899D02*
X9247D01*
X9192D02*
X9210D01*
X9180D02*
X9190D01*
X9168D02*
X9176D01*
X9164D02*
X9166D01*
X9145D02*
X9162D01*
X9117D02*
X9143D01*
X9106D02*
X9109D01*
X9089D02*
X9098D01*
X9081D02*
X9083D01*
X9062D02*
X9079D01*
X8948D02*
X9059D01*
X9216Y7898D02*
X9247D01*
X9192D02*
X9210D01*
X9181D02*
X9190D01*
X9172D02*
X9176D01*
X9164D02*
X9170D01*
X9153D02*
X9162D01*
X9116D02*
X9151D01*
X9100D02*
X9104D01*
X9089D02*
X9097D01*
X9081D02*
X9083D01*
X9062D02*
X9079D01*
X8948D02*
X9058D01*
X9216Y7897D02*
X9247D01*
X9192D02*
X9210D01*
X9182D02*
X9190D01*
X9178D02*
X9180D01*
X9133D02*
X9176D01*
X9116D02*
X9131D01*
X9099D02*
X9108D01*
X9089D02*
X9097D01*
X9061D02*
X9079D01*
X8948D02*
X9058D01*
X9216Y7896D02*
X9247D01*
X9192D02*
X9209D01*
X9182D02*
X9190D01*
X9132D02*
X9175D01*
X9116D02*
X9130D01*
X9099D02*
X9110D01*
X9089D02*
X9096D01*
X9061D02*
X9079D01*
X8948D02*
X9058D01*
X9215Y7895D02*
X9247D01*
X9192D02*
X9209D01*
X9185D02*
X9190D01*
X9168D02*
X9176D01*
X9115D02*
X9161D01*
X9098D02*
X9109D01*
X9090D02*
X9096D01*
X9060D02*
X9079D01*
X8948D02*
X9057D01*
X9215Y7894D02*
X9247D01*
X9192D02*
X9209D01*
X9171D02*
X9175D01*
X9162D02*
X9169D01*
X9144D02*
X9160D01*
X9130D02*
X9142D01*
X9115D02*
X9128D01*
X9098D02*
X9109D01*
X9090D02*
X9095D01*
X9082D02*
X9084D01*
X9060D02*
X9080D01*
X8948D02*
X9057D01*
X9214Y7893D02*
X9247D01*
X9192D02*
X9208D01*
X9162D02*
X9175D01*
X9139D02*
X9159D01*
X9115D02*
X9137D01*
X9097D02*
X9112D01*
X9090D02*
X9095D01*
X9059D02*
X9080D01*
X8948D02*
X9057D01*
X9214Y7892D02*
X9247D01*
X9192D02*
X9208D01*
X9150D02*
X9175D01*
X9115D02*
X9148D01*
X9110D02*
X9112D01*
X9097D02*
X9108D01*
X9090D02*
X9094D01*
X9059D02*
X9080D01*
X8948D02*
X9056D01*
X9213Y7891D02*
X9247D01*
X9192D02*
X9208D01*
X9168D02*
X9175D01*
X9161D02*
X9166D01*
X9129D02*
X9159D01*
X9115D02*
X9127D01*
X9096D02*
X9108D01*
X9090D02*
X9094D01*
X9082D02*
X9084D01*
X9058D02*
X9080D01*
X8948D02*
X9056D01*
X9213Y7890D02*
X9247D01*
X9191D02*
X9207D01*
X9161D02*
X9174D01*
X9133D02*
X9158D01*
X9129D02*
X9131D01*
X9114D02*
X9127D01*
X9096D02*
X9109D01*
X9091D02*
X9094D01*
X9082D02*
X9084D01*
X9058D02*
X9080D01*
X8948D02*
X9055D01*
X9212Y7889D02*
X9247D01*
X9191D02*
X9207D01*
X9170D02*
X9173D01*
X9164D02*
X9168D01*
X9159D02*
X9162D01*
X9154D02*
X9158D01*
X9114D02*
X9152D01*
X9108D02*
X9110D01*
X9098D02*
X9107D01*
X9091D02*
X9093D01*
X9082D02*
X9084D01*
X9058D02*
X9080D01*
X8948D02*
X9055D01*
X9212Y7888D02*
X9247D01*
X9191D02*
X9207D01*
X9170D02*
X9173D01*
X9154D02*
X9168D01*
X9143D02*
X9152D01*
X9114D02*
X9142D01*
X9100D02*
X9110D01*
X9091D02*
X9093D01*
X9057D02*
X9080D01*
X8948D02*
X9054D01*
X9211Y7887D02*
X9247D01*
X9191D02*
X9206D01*
X9169D02*
X9174D01*
X9160D02*
X9167D01*
X9146D02*
X9158D01*
X9128D02*
X9144D01*
X9121D02*
X9126D01*
X9114D02*
X9120D01*
X9103D02*
X9107D01*
X9097D02*
X9099D01*
X9091D02*
X9093D01*
X9057D02*
X9080D01*
X8948D02*
X9054D01*
X9211Y7886D02*
X9247D01*
X9191D02*
X9206D01*
X9169D02*
X9171D01*
X9160D02*
X9167D01*
X9146D02*
X9158D01*
X9121D02*
X9144D01*
X9114D02*
X9120D01*
X9104D02*
X9107D01*
X9056D02*
X9081D01*
X8948D02*
X9054D01*
X9210Y7885D02*
X9247D01*
X9191D02*
X9206D01*
X9175D02*
X9183D01*
X9165D02*
X9174D01*
X9158D02*
X9163D01*
X9114D02*
X9156D01*
X9056D02*
X9081D01*
X8948D02*
X9054D01*
X9210Y7884D02*
X9247D01*
X9190D02*
X9205D01*
X9177D02*
X9183D01*
X9157D02*
X9173D01*
X9142D02*
X9156D01*
X9128D02*
X9140D01*
X9114D02*
X9126D01*
X9056D02*
X9081D01*
X8948D02*
X9053D01*
X9210Y7883D02*
X9247D01*
X9190D02*
X9205D01*
X9177D02*
X9187D01*
X9170D02*
X9173D01*
X9157D02*
X9168D01*
X9141D02*
X9155D01*
X9136D02*
X9139D01*
X9128D02*
X9135D01*
X9114D02*
X9126D01*
X9111D02*
X9112D01*
X9058D02*
X9081D01*
X8948D02*
X9052D01*
X9209Y7882D02*
X9247D01*
X9190D02*
X9205D01*
X9177D02*
X9187D01*
X9169D02*
X9173D01*
X9157D02*
X9165D01*
X9151D02*
X9155D01*
X9140D02*
X9150D01*
X9114D02*
X9138D01*
X9111D02*
X9112D01*
X9097D02*
X9099D01*
X9083D02*
X9086D01*
X9063D02*
X9081D01*
X9058D02*
X9061D01*
X8948D02*
X9052D01*
X9209Y7881D02*
X9247D01*
X9190D02*
X9204D01*
X9177D02*
X9187D01*
X9168D02*
X9172D01*
X9163D02*
X9164D01*
X9140D02*
X9161D01*
X9121D02*
X9138D01*
X9114D02*
X9119D01*
X9084D02*
X9086D01*
X9063D02*
X9081D01*
X8948D02*
X9052D01*
X9208Y7880D02*
X9247D01*
X9189D02*
X9204D01*
X9177D02*
X9187D01*
X9167D02*
X9172D01*
X9157D02*
X9165D01*
X9147D02*
X9154D01*
X9114D02*
X9144D01*
X9108D02*
X9110D01*
X9084D02*
X9086D01*
X9063D02*
X9081D01*
X8948D02*
X9052D01*
X9208Y7879D02*
X9247D01*
X9189D02*
X9203D01*
X9176D02*
X9187D01*
X9167D02*
X9171D01*
X9157D02*
X9166D01*
X9146D02*
X9153D01*
X9130D02*
X9144D01*
X9114D02*
X9128D01*
X9107D02*
X9109D01*
X9084D02*
X9086D01*
X9063D02*
X9082D01*
X8948D02*
X9052D01*
X9207Y7878D02*
X9247D01*
X9188D02*
X9203D01*
X9176D02*
X9186D01*
X9162D02*
X9171D01*
X9158D02*
X9160D01*
X9155D02*
X9157D01*
X9138D02*
X9152D01*
X9114D02*
X9136D01*
X9107D02*
X9109D01*
X9084D02*
X9085D01*
X9063D02*
X9082D01*
X8948D02*
X9052D01*
X9207Y7877D02*
X9247D01*
X9188D02*
X9203D01*
X9182D02*
X9186D01*
X9162D02*
X9170D01*
X9159D02*
X9160D01*
X9154D02*
X9156D01*
X9138D02*
X9151D01*
X9120D02*
X9136D01*
X9114D02*
X9119D01*
X9108D02*
X9110D01*
X9092D02*
X9097D01*
X9084D02*
X9085D01*
X9063D02*
X9082D01*
X8948D02*
X9052D01*
X9206Y7876D02*
X9247D01*
X9188D02*
X9202D01*
X9153D02*
X9170D01*
X9143D02*
X9151D01*
X9137D02*
X9141D01*
X9121D02*
X9136D01*
X9114D02*
X9119D01*
X9109D02*
X9111D01*
X9105D02*
X9106D01*
X9092D02*
X9098D01*
X9063D02*
X9082D01*
X8948D02*
X9052D01*
X9206Y7875D02*
X9247D01*
X9187D02*
X9202D01*
X9143D02*
X9169D01*
X9137D02*
X9141D01*
X9114D02*
X9136D01*
X9109D02*
X9111D01*
X9104D02*
X9107D01*
X9091D02*
X9100D01*
X9063D02*
X9083D01*
X9055D02*
X9057D01*
X8948D02*
X9052D01*
X9205Y7874D02*
X9247D01*
X9187D02*
X9201D01*
X9164D02*
X9169D01*
X9157D02*
X9162D01*
X9137D02*
X9155D01*
X9127D02*
X9135D01*
X9114D02*
X9125D01*
X9103D02*
X9110D01*
X9091D02*
X9099D01*
X9063D02*
X9083D01*
X8948D02*
X9052D01*
X9205Y7873D02*
X9247D01*
X9187D02*
X9201D01*
X9151D02*
X9168D01*
X9120D02*
X9149D01*
X9114D02*
X9119D01*
X9101D02*
X9109D01*
X9091D02*
X9096D01*
X9063D02*
X9083D01*
X8948D02*
X9053D01*
X9204Y7872D02*
X9247D01*
X9187D02*
X9200D01*
X9136D02*
X9168D01*
X9132D02*
X9134D01*
X9127D02*
X9130D01*
X9114D02*
X9125D01*
X9105D02*
X9108D01*
X9100D02*
X9103D01*
X9090D02*
X9096D01*
X9064D02*
X9083D01*
X9056D02*
X9058D01*
X8948D02*
X9053D01*
X9204Y7871D02*
X9247D01*
X9186D02*
X9200D01*
X9174D02*
X9175D01*
X9162D02*
X9167D01*
X9156D02*
X9160D01*
X9150D02*
X9154D01*
X9136D02*
X9148D01*
X9114D02*
X9134D01*
X9110D02*
X9112D01*
X9100D02*
X9108D01*
X9090D02*
X9097D01*
X9065D02*
X9083D01*
X9056D02*
X9058D01*
X8948D02*
X9053D01*
X9203Y7870D02*
X9247D01*
X9186D02*
X9199D01*
X9162D02*
X9166D01*
X9150D02*
X9160D01*
X9136D02*
X9148D01*
X9121D02*
X9134D01*
X9114D02*
X9119D01*
X9099D02*
X9108D01*
X9090D02*
X9096D01*
X9065D02*
X9084D01*
X9056D02*
X9058D01*
X8948D02*
X9053D01*
X9203Y7869D02*
X9247D01*
X9186D02*
X9199D01*
X9168D02*
X9170D01*
X9135D02*
X9165D01*
X9114D02*
X9134D01*
X9098D02*
X9107D01*
X9090D02*
X9096D01*
X9066D02*
X9084D01*
X9057D02*
X9059D01*
X8948D02*
X9054D01*
X9202Y7868D02*
X9247D01*
X9186D02*
X9199D01*
X9167D02*
X9173D01*
X9152D02*
X9165D01*
X9148D02*
X9150D01*
X9135D02*
X9147D01*
X9113D02*
X9133D01*
X9097D02*
X9111D01*
X9089D02*
X9095D01*
X9066D02*
X9084D01*
X9057D02*
X9059D01*
X8948D02*
X9054D01*
X9202Y7867D02*
X9247D01*
X9186D02*
X9198D01*
X9169D02*
X9174D01*
X9156D02*
X9164D01*
X9152D02*
X9154D01*
X9148D02*
X9150D01*
X9135D02*
X9144D01*
X9130D02*
X9133D01*
X9113D02*
X9128D01*
X9097D02*
X9112D01*
X9090D02*
X9094D01*
X9067D02*
X9084D01*
X9057D02*
X9062D01*
X8948D02*
X9054D01*
X9201Y7866D02*
X9247D01*
X9186D02*
X9198D01*
X9169D02*
X9175D01*
X9143D02*
X9163D01*
X9135D02*
X9140D01*
X9113D02*
X9133D01*
X9096D02*
X9105D01*
X9067D02*
X9085D01*
X9058D02*
X9061D01*
X8948D02*
X9055D01*
X9201Y7865D02*
X9247D01*
X9185D02*
X9197D01*
X9169D02*
X9179D01*
X9165D02*
X9167D01*
X9143D02*
X9162D01*
X9123D02*
X9132D01*
X9113D02*
X9122D01*
X9095D02*
X9107D01*
X9068D02*
X9085D01*
X9058D02*
X9060D01*
X8948D02*
X9055D01*
X9200Y7864D02*
X9247D01*
X9184D02*
X9197D01*
X9168D02*
X9180D01*
X9152D02*
X9162D01*
X9138D02*
X9150D01*
X9113D02*
X9132D01*
X9095D02*
X9110D01*
X9068D02*
X9085D01*
X9058D02*
X9062D01*
X8948D02*
X9055D01*
X9200Y7863D02*
X9247D01*
X9184D02*
X9196D01*
X9167D02*
X9181D01*
X9158D02*
X9160D01*
X9113D02*
X9155D01*
X9094D02*
X9110D01*
X9069D02*
X9085D01*
X9058D02*
X9063D01*
X8948D02*
X9056D01*
X9199Y7862D02*
X9247D01*
X9183D02*
X9196D01*
X9166D02*
X9180D01*
X9131D02*
X9159D01*
X9113D02*
X9127D01*
X9104D02*
X9108D01*
X9093D02*
X9103D01*
X9070D02*
X9085D01*
X9059D02*
X9062D01*
X8948D02*
X9056D01*
X9199Y7861D02*
X9247D01*
X9182D02*
X9196D01*
X9165D02*
X9179D01*
X9152D02*
X9159D01*
X9119D02*
X9150D01*
X9113D02*
X9118D01*
X9092D02*
X9109D01*
X9070D02*
X9085D01*
X9059D02*
X9061D01*
X8948D02*
X9056D01*
X9198Y7860D02*
X9247D01*
X9181D02*
X9195D01*
X9167D02*
X9179D01*
X9147D02*
X9158D01*
X9113D02*
X9145D01*
X9096D02*
X9111D01*
X9091D02*
X9094D01*
X9070D02*
X9084D01*
X9059D02*
X9064D01*
X8948D02*
X9057D01*
X9198Y7859D02*
X9247D01*
X9181D02*
X9195D01*
X9167D02*
X9178D01*
X9151D02*
X9157D01*
X9147D02*
X9149D01*
X9114D02*
X9145D01*
X9103D02*
X9109D01*
X9091D02*
X9101D01*
X9071D02*
X9084D01*
X9060D02*
X9064D01*
X8948D02*
X9057D01*
X9197Y7858D02*
X9247D01*
X9180D02*
X9194D01*
X9168D02*
X9177D01*
X9151D02*
X9156D01*
X9134D02*
X9149D01*
X9125D02*
X9133D01*
X9115D02*
X9123D01*
X9102D02*
X9107D01*
X9090D02*
X9101D01*
X9071D02*
X9084D01*
X9060D02*
X9063D01*
X8948D02*
X9057D01*
X9197Y7857D02*
X9247D01*
X9179D02*
X9194D01*
X9168D02*
X9177D01*
X9163D02*
X9167D01*
X9112D02*
X9155D01*
X9109D02*
X9110D01*
X9089D02*
X9108D01*
X9072D02*
X9083D01*
X9061D02*
X9064D01*
X8948D02*
X9058D01*
X9197Y7856D02*
X9247D01*
X9178D02*
X9193D01*
X9170D02*
X9176D01*
X9149D02*
X9154D01*
X9145D02*
X9147D01*
X9134D02*
X9143D01*
X9112D02*
X9132D01*
X9093D02*
X9108D01*
X9088D02*
X9092D01*
X9072D02*
X9083D01*
X9061D02*
X9064D01*
X8948D02*
X9058D01*
X9196Y7855D02*
X9247D01*
X9178D02*
X9193D01*
X9171D02*
X9175D01*
X9134D02*
X9153D01*
X9112D02*
X9132D01*
X9100D02*
X9108D01*
X9087D02*
X9098D01*
X9072D02*
X9083D01*
X9062D02*
X9065D01*
X8948D02*
X9058D01*
X9196Y7854D02*
X9247D01*
X9177D02*
X9192D01*
X9162D02*
X9166D01*
X9112D02*
X9152D01*
X9107D02*
X9109D01*
X9087D02*
X9105D01*
X9073D02*
X9083D01*
X9062D02*
X9067D01*
X8948D02*
X9059D01*
X9195Y7853D02*
X9247D01*
X9176D02*
X9192D01*
X9154D02*
X9156D01*
X9149D02*
X9151D01*
X9143D02*
X9147D01*
X9122D02*
X9142D01*
X9116D02*
X9120D01*
X9112D02*
X9114D01*
X9107D02*
X9109D01*
X9091D02*
X9105D01*
X9086D02*
X9089D01*
X9073D02*
X9083D01*
X9063D02*
X9066D01*
X8948D02*
X9059D01*
X9195Y7852D02*
X9247D01*
X9175D02*
X9191D01*
X9134D02*
X9150D01*
X9121D02*
X9132D01*
X9115D02*
X9119D01*
X9112D02*
X9114D01*
X9098D02*
X9110D01*
X9091D02*
X9096D01*
X9085D02*
X9089D01*
X9073D02*
X9082D01*
X9063D02*
X9065D01*
X8948D02*
X9059D01*
X9194Y7851D02*
X9247D01*
X9175D02*
X9191D01*
X9165D02*
X9169D01*
X9161D02*
X9163D01*
X9155D02*
X9159D01*
X9112D02*
X9146D01*
X9104D02*
X9107D01*
X9089D02*
X9102D01*
X9084D02*
X9087D01*
X9074D02*
X9081D01*
X9064D02*
X9065D01*
X8948D02*
X9060D01*
X9194Y7850D02*
X9247D01*
X9174D02*
X9191D01*
X9161D02*
X9163D01*
X9155D02*
X9157D01*
X9124D02*
X9149D01*
X9112D02*
X9122D01*
X9104D02*
X9110D01*
X9083D02*
X9102D01*
X9074D02*
X9080D01*
X9064D02*
X9066D01*
X8948D02*
X9061D01*
X9194Y7849D02*
X9247D01*
X9173D02*
X9190D01*
X9153D02*
X9158D01*
X9120D02*
X9148D01*
X9111D02*
X9118D01*
X9096D02*
X9108D01*
X9082D02*
X9094D01*
X9074D02*
X9079D01*
X9064D02*
X9066D01*
X8948D02*
X9061D01*
X9193Y7848D02*
X9247D01*
X9172D02*
X9190D01*
X9153D02*
X9158D01*
X9134D02*
X9147D01*
X9111D02*
X9132D01*
X9102D02*
X9108D01*
X9086D02*
X9100D01*
X9081D02*
X9084D01*
X9074D02*
X9078D01*
X8948D02*
X9061D01*
X9193Y7847D02*
X9247D01*
X9171D02*
X9189D01*
X9153D02*
X9164D01*
X9150D02*
X9151D01*
X9111D02*
X9146D01*
X9101D02*
X9108D01*
X9080D02*
X9100D01*
X9074D02*
X9077D01*
X8948D02*
X9062D01*
X9192Y7846D02*
X9247D01*
X9170D02*
X9189D01*
X9150D02*
X9158D01*
X9143D02*
X9145D01*
X9132D02*
X9142D01*
X9119D02*
X9130D01*
X9111D02*
X9117D01*
X9099D02*
X9107D01*
X9079D02*
X9098D01*
X9075D02*
X9076D01*
X8948D02*
X9062D01*
X9192Y7845D02*
X9247D01*
X9170D02*
X9189D01*
X9150D02*
X9160D01*
X9123D02*
X9144D01*
X9111D02*
X9121D01*
X9083D02*
X9106D01*
X9079D02*
X9082D01*
X8948D02*
X9063D01*
X9192Y7844D02*
X9247D01*
X9169D02*
X9188D01*
X9149D02*
X9160D01*
X9110D02*
X9143D01*
X9091D02*
X9105D01*
X9078D02*
X9089D01*
X8948D02*
X9063D01*
X9191Y7843D02*
X9247D01*
X9168D02*
X9188D01*
X9152D02*
X9160D01*
X9140D02*
X9142D01*
X9130D02*
X9138D01*
X9118D02*
X9128D01*
X9110D02*
X9116D01*
X9106D02*
X9108D01*
X9076D02*
X9104D01*
X8948D02*
X9064D01*
X9191Y7842D02*
X9247D01*
X9167D02*
X9187D01*
X9153D02*
X9160D01*
X9139D02*
X9141D01*
X9117D02*
X9137D01*
X9110D02*
X9116D01*
X9105D02*
X9108D01*
X9088D02*
X9101D01*
X9075D02*
X9086D01*
X8948D02*
X9065D01*
X9190Y7841D02*
X9247D01*
X9166D02*
X9187D01*
X9153D02*
X9160D01*
X9138D02*
X9140D01*
X9110D02*
X9135D01*
X9104D02*
X9108D01*
X9088D02*
X9100D01*
X9075D02*
X9086D01*
X8948D02*
X9065D01*
X9190Y7840D02*
X9247D01*
X9179D02*
X9187D01*
X9165D02*
X9177D01*
X9152D02*
X9161D01*
X9109D02*
X9139D01*
X9102D02*
X9107D01*
X9085D02*
X9098D01*
X9074D02*
X9084D01*
X8948D02*
X9066D01*
X9189Y7839D02*
X9247D01*
X9179D02*
X9186D01*
X9164D02*
X9176D01*
X9152D02*
X9161D01*
X9134D02*
X9138D01*
X9128D02*
X9132D01*
X9116D02*
X9126D01*
X9109D02*
X9115D01*
X9100D02*
X9107D01*
X9084D02*
X9095D01*
X9073D02*
X9081D01*
X8948D02*
X9067D01*
X9189Y7838D02*
X9247D01*
X9182D02*
X9186D01*
X9163D02*
X9173D01*
X9153D02*
X9159D01*
X9134D02*
X9137D01*
X9128D02*
X9131D01*
X9116D02*
X9126D01*
X9109D02*
X9114D01*
X9099D02*
X9105D01*
X9084D02*
X9091D01*
X9077D02*
X9081D01*
X9072D02*
X9075D01*
X8948D02*
X9067D01*
X9189Y7837D02*
X9247D01*
X9153D02*
X9158D01*
X9146D02*
X9148D01*
X9127D02*
X9136D01*
X9116D02*
X9124D01*
X9109D02*
X9114D01*
X9096D02*
X9105D01*
X9071D02*
X9087D01*
X8948D02*
X9067D01*
X9188Y7836D02*
X9247D01*
X9154D02*
X9157D01*
X9116D02*
X9135D01*
X9109D02*
X9114D01*
X9092D02*
X9103D01*
X9070D02*
X9083D01*
X8948D02*
X9066D01*
X9188Y7835D02*
X9247D01*
X9137D02*
X9139D01*
X9123D02*
X9133D01*
X9116D02*
X9122D01*
X9108D02*
X9114D01*
X9089D02*
X9101D01*
X9068D02*
X9080D01*
X8948D02*
X9066D01*
X9187Y7834D02*
X9247D01*
X9137D02*
X9140D01*
X9115D02*
X9132D01*
X9108D02*
X9113D01*
X9100D02*
X9106D01*
X9085D02*
X9097D01*
X9070D02*
X9078D01*
X8948D02*
X9063D01*
X9210Y7833D02*
X9247D01*
X9186D02*
X9207D01*
X9136D02*
X9139D01*
X9128D02*
X9131D01*
X9121D02*
X9126D01*
X9115D02*
X9119D01*
X9108D02*
X9113D01*
X9098D02*
X9105D01*
X9083D02*
X9094D01*
X9072D02*
X9076D01*
X8948D02*
X9062D01*
X9215Y7832D02*
X9247D01*
X9186D02*
X9205D01*
X9136D02*
X9140D01*
X9115D02*
X9131D01*
X9107D02*
X9113D01*
X9102D02*
X9105D01*
X9095D02*
X9100D01*
X9080D02*
X9091D01*
X8948D02*
X9062D01*
X9218Y7831D02*
X9247D01*
X9185D02*
X9201D01*
X9132D02*
X9142D01*
X9126D02*
X9129D01*
X9119D02*
X9124D01*
X9107D02*
X9117D01*
X9102D02*
X9105D01*
X9078D02*
X9100D01*
X8948D02*
X9061D01*
X9219Y7830D02*
X9247D01*
X9184D02*
X9200D01*
X9162D02*
X9164D01*
X9132D02*
X9141D01*
X9107D02*
X9128D01*
X9096D02*
X9104D01*
X9088D02*
X9094D01*
X9078D02*
X9086D01*
X8948D02*
X9061D01*
X9220Y7829D02*
X9247D01*
X9205D02*
X9208D01*
X9182D02*
X9199D01*
X9159D02*
X9164D01*
X9132D02*
X9140D01*
X9117D02*
X9127D01*
X9107D02*
X9115D01*
X9095D02*
X9104D01*
X9083D02*
X9093D01*
X9079D02*
X9081D01*
X8948D02*
X9061D01*
X9221Y7828D02*
X9247D01*
X9205D02*
X9216D01*
X9179D02*
X9198D01*
X9156D02*
X9161D01*
X9131D02*
X9140D01*
X9114D02*
X9126D01*
X9106D02*
X9112D01*
X9101D02*
X9104D01*
X9083D02*
X9099D01*
X8948D02*
X9061D01*
X9221Y7827D02*
X9247D01*
X9204D02*
X9217D01*
X9176D02*
X9196D01*
X9131D02*
X9138D01*
X9114D02*
X9125D01*
X9106D02*
X9112D01*
X9082D02*
X9104D01*
X8948D02*
X9061D01*
X9204Y7826D02*
X9247D01*
X9172D02*
X9195D01*
X9106D02*
X9123D01*
X9092D02*
X9104D01*
X9084D02*
X9090D01*
X8948D02*
X9060D01*
X9203Y7825D02*
X9247D01*
X9169D02*
X9194D01*
X9106D02*
X9123D01*
X9101D02*
X9103D01*
X9092D02*
X9099D01*
X9085D02*
X9090D01*
X8948D02*
X9061D01*
X9202Y7824D02*
X9247D01*
X9165D02*
X9193D01*
X9113D02*
X9119D01*
X9105D02*
X9111D01*
X9101D02*
X9103D01*
X9087D02*
X9099D01*
X9071D02*
X9074D01*
X8948D02*
X9061D01*
X9200Y7823D02*
X9247D01*
X9156D02*
X9191D01*
X9105D02*
X9119D01*
X9096D02*
X9103D01*
X9088D02*
X9094D01*
X9072D02*
X9076D01*
X8948D02*
X9061D01*
X9199Y7822D02*
X9247D01*
X9128D02*
X9190D01*
X9105D02*
X9119D01*
X9100D02*
X9103D01*
X9096D02*
X9099D01*
X9089D02*
X9094D01*
X8948D02*
X9061D01*
X9197Y7821D02*
X9247D01*
X9124D02*
X9189D01*
X9105D02*
X9116D01*
X9090D02*
X9103D01*
X9077D02*
X9079D01*
X9069D02*
X9072D01*
X8948D02*
X9061D01*
X9195Y7820D02*
X9247D01*
X9121D02*
X9187D01*
X9105D02*
X9114D01*
X9091D02*
X9102D01*
X9066D02*
X9071D01*
X8948D02*
X9061D01*
X9194Y7819D02*
X9247D01*
X9119D02*
X9186D01*
X9105D02*
X9115D01*
X9093D02*
X9102D01*
X9075D02*
X9079D01*
X9066D02*
X9068D01*
X8948D02*
X9061D01*
X9192Y7818D02*
X9247D01*
X9118D02*
X9185D01*
X9104D02*
X9115D01*
X9094D02*
X9102D01*
X9074D02*
X9080D01*
X8948D02*
X9061D01*
X9191Y7817D02*
X9247D01*
X9117D02*
X9184D01*
X9104D02*
X9114D01*
X9095D02*
X9102D01*
X9074D02*
X9075D01*
X9068D02*
X9070D01*
X8948D02*
X9051D01*
X9189Y7816D02*
X9247D01*
X9116D02*
X9183D01*
X9104D02*
X9113D01*
X9096D02*
X9102D01*
X9074D02*
X9078D01*
X9071D02*
X9073D01*
X8948D02*
X9047D01*
X9187Y7815D02*
X9247D01*
X9116D02*
X9181D01*
X9104D02*
X9109D01*
X9100D02*
X9102D01*
X9097D02*
X9098D01*
X9071D02*
X9081D01*
X8948D02*
X9044D01*
X9186Y7814D02*
X9247D01*
X9115D02*
X9180D01*
X9104D02*
X9110D01*
X9098D02*
X9102D01*
X9080D02*
X9081D01*
X9072D02*
X9077D01*
X8948D02*
X9041D01*
X9185Y7813D02*
X9247D01*
X9114D02*
X9179D01*
X9104D02*
X9111D01*
X9098D02*
X9102D01*
X9083D02*
X9088D01*
X9072D02*
X9074D01*
X9066D02*
X9068D01*
X9049D02*
X9057D01*
X8948D02*
X9038D01*
X9183Y7812D02*
X9247D01*
X9113D02*
X9177D01*
X9104D02*
X9110D01*
X9099D02*
X9102D01*
X9082D02*
X9085D01*
X9072D02*
X9074D01*
X9046D02*
X9054D01*
X8948D02*
X9036D01*
X9182Y7811D02*
X9247D01*
X9112D02*
X9176D01*
X9104D02*
X9109D01*
X9100D02*
X9102D01*
X9081D02*
X9085D01*
X9072D02*
X9079D01*
X9066D02*
X9070D01*
X9044D02*
X9048D01*
X8948D02*
X9034D01*
X9181Y7810D02*
X9247D01*
X9112D02*
X9175D01*
X9104D02*
X9109D01*
X9086D02*
X9090D01*
X9082D02*
X9085D01*
X9077D02*
X9078D01*
X9069D02*
X9073D01*
X8948D02*
X9032D01*
X9180Y7809D02*
X9247D01*
X9116D02*
X9173D01*
X9104D02*
X9108D01*
X9082D02*
X9089D01*
X9069D02*
X9073D01*
X8948D02*
X9030D01*
X9178Y7808D02*
X9247D01*
X9122D02*
X9172D01*
X9105D02*
X9107D01*
X9090D02*
X9094D01*
X9079D02*
X9081D01*
X9070D02*
X9074D01*
X9065D02*
X9066D01*
X9052D02*
X9056D01*
X8948D02*
X9028D01*
X9177Y7807D02*
X9247D01*
X9125D02*
X9170D01*
X9105D02*
X9106D01*
X9090D02*
X9093D01*
X9078D02*
X9081D01*
X9071D02*
X9074D01*
X9064D02*
X9066D01*
X9047D02*
X9056D01*
X8948D02*
X9026D01*
X9176Y7806D02*
X9247D01*
X9128D02*
X9169D01*
X9085D02*
X9087D01*
X9078D02*
X9083D01*
X9064D02*
X9065D01*
X9044D02*
X9056D01*
X8948D02*
X9025D01*
X9174Y7805D02*
X9247D01*
X9129D02*
X9167D01*
X9093D02*
X9096D01*
X9081D02*
X9089D01*
X9041D02*
X9055D01*
X8948D02*
X9024D01*
X9173Y7804D02*
X9247D01*
X9131D02*
X9166D01*
X9095D02*
X9097D01*
X9082D02*
X9088D01*
X9069D02*
X9071D01*
X9066D02*
X9067D01*
X9061D02*
X9064D01*
X9037D02*
X9055D01*
X8948D02*
X9024D01*
X9171Y7803D02*
X9247D01*
X9133D02*
X9165D01*
X9106D02*
X9108D01*
X9090D02*
X9092D01*
X9075D02*
X9088D01*
X9066D02*
X9071D01*
X9035D02*
X9054D01*
X8948D02*
X9023D01*
X9170Y7802D02*
X9247D01*
X9135D02*
X9163D01*
X9106D02*
X9108D01*
X9089D02*
X9095D01*
X9074D02*
X9085D01*
X9067D02*
X9070D01*
X9033D02*
X9054D01*
X8948D02*
X9023D01*
X9169Y7801D02*
X9247D01*
X9136D02*
X9161D01*
X9116D02*
X9119D01*
X9106D02*
X9109D01*
X9088D02*
X9092D01*
X9081D02*
X9085D01*
X9077D02*
X9079D01*
X9073D02*
X9075D01*
X9028D02*
X9054D01*
X9024D02*
X9025D01*
X8948D02*
X9022D01*
X9167Y7800D02*
X9247D01*
X9139D02*
X9159D01*
X9117D02*
X9122D01*
X9106D02*
X9110D01*
X9074D02*
X9083D01*
X9064D02*
X9067D01*
X9027D02*
X9054D01*
X8948D02*
X9021D01*
X9166Y7799D02*
X9247D01*
X9146D02*
X9158D01*
X9119D02*
X9123D01*
X9106D02*
X9112D01*
X9078D02*
X9083D01*
X9075D02*
X9076D01*
X9065D02*
X9068D01*
X9059D02*
X9062D01*
X9026D02*
X9053D01*
X8948D02*
X9021D01*
X9164Y7798D02*
X9247D01*
X9146D02*
X9156D01*
X9122D02*
X9126D01*
X9105D02*
X9115D01*
X9089D02*
X9091D01*
X9085D02*
X9087D01*
X9067D02*
X9081D01*
X9025D02*
X9053D01*
X8948D02*
X9021D01*
X9162Y7797D02*
X9247D01*
X9146D02*
X9155D01*
X9125D02*
X9133D01*
X9104D02*
X9117D01*
X9084D02*
X9087D01*
X9074D02*
X9081D01*
X9063D02*
X9072D01*
X9025D02*
X9053D01*
X8948D02*
X9020D01*
X9160Y7796D02*
X9247D01*
X9148D02*
X9153D01*
X9129D02*
X9132D01*
X9100D02*
X9119D01*
X9082D02*
X9087D01*
X9076D02*
X9078D01*
X9062D02*
X9075D01*
X9025D02*
X9053D01*
X8948D02*
X9020D01*
X9158Y7795D02*
X9247D01*
X9096D02*
X9122D01*
X9081D02*
X9084D01*
X9073D02*
X9078D01*
X9068D02*
X9070D01*
X9024D02*
X9053D01*
X8948D02*
X9019D01*
X9156Y7794D02*
X9247D01*
X9136D02*
X9141D01*
X9094D02*
X9126D01*
X9081D02*
X9085D01*
X9073D02*
X9078D01*
X9024D02*
X9052D01*
X8948D02*
X9019D01*
X9155Y7793D02*
X9247D01*
X9093D02*
X9128D01*
X9079D02*
X9085D01*
X9070D02*
X9075D01*
X9067D02*
X9068D01*
X9023D02*
X9050D01*
X8948D02*
X9019D01*
X9152Y7792D02*
X9247D01*
X9092D02*
X9131D01*
X9078D02*
X9080D01*
X9070D02*
X9072D01*
X9055D02*
X9057D01*
X9023D02*
X9050D01*
X8948D02*
X9018D01*
X9151Y7791D02*
X9247D01*
X9091D02*
X9134D01*
X9077D02*
X9079D01*
X9070D02*
X9073D01*
X9054D02*
X9057D01*
X9022D02*
X9050D01*
X8948D02*
X9018D01*
X9150Y7790D02*
X9247D01*
X9091D02*
X9138D01*
X9077D02*
X9078D01*
X9022D02*
X9050D01*
X8948D02*
X9018D01*
X9149Y7789D02*
X9247D01*
X9092D02*
X9144D01*
X9074D02*
X9079D01*
X9022D02*
X9051D01*
X8948D02*
X9018D01*
X9092Y7788D02*
X9247D01*
X9021D02*
X9052D01*
X8948D02*
X9017D01*
X9092Y7787D02*
X9247D01*
X9070D02*
X9072D01*
X9021D02*
X9053D01*
X8948D02*
X9017D01*
X9092Y7786D02*
X9247D01*
X9021D02*
X9054D01*
X8948D02*
X9017D01*
X9092Y7785D02*
X9247D01*
X9020D02*
X9054D01*
X8948D02*
X9016D01*
X9092Y7784D02*
X9247D01*
X9020D02*
X9053D01*
X8948D02*
X9016D01*
X9092Y7783D02*
X9247D01*
X9084D02*
X9086D01*
X9055D02*
X9058D01*
X9019D02*
X9049D01*
X8948D02*
X9016D01*
X9092Y7782D02*
X9247D01*
X9084D02*
X9086D01*
X9078D02*
X9081D01*
X9065D02*
X9069D01*
X9053D02*
X9059D01*
X9019D02*
X9045D01*
X8948D02*
X9016D01*
X9092Y7781D02*
X9247D01*
X9084D02*
X9086D01*
X9075D02*
X9081D01*
X9065D02*
X9068D01*
X9051D02*
X9061D01*
X9019D02*
X9044D01*
X8948D02*
X9016D01*
X9092Y7780D02*
X9247D01*
X9084D02*
X9086D01*
X9071D02*
X9080D01*
X9053D02*
X9061D01*
X9019D02*
X9043D01*
X8963D02*
X9015D01*
X8948D02*
X8960D01*
X9092Y7779D02*
X9247D01*
X9084D02*
X9086D01*
X9071D02*
X9080D01*
X9053D02*
X9060D01*
X9019D02*
X9038D01*
X8964D02*
X9015D01*
X8948D02*
X8961D01*
X9091Y7778D02*
X9247D01*
X9084D02*
X9086D01*
X9070D02*
X9080D01*
X9061D02*
X9064D01*
X9054D02*
X9059D01*
X9018D02*
X9041D01*
X8965D02*
X9015D01*
X8948D02*
X8962D01*
X9091Y7777D02*
X9247D01*
X9084D02*
X9086D01*
X9070D02*
X9080D01*
X9061D02*
X9065D01*
X9057D02*
X9059D01*
X9038D02*
X9042D01*
X9018D02*
X9036D01*
X8967D02*
X9015D01*
X8948D02*
X8964D01*
X9091Y7776D02*
X9247D01*
X9084D02*
X9086D01*
X9070D02*
X9079D01*
X9060D02*
X9066D01*
X9038D02*
X9041D01*
X9018D02*
X9036D01*
X8968D02*
X9015D01*
X8948D02*
X8965D01*
X9091Y7775D02*
X9247D01*
X9069D02*
X9079D01*
X9061D02*
X9067D01*
X9038D02*
X9041D01*
X9018D02*
X9036D01*
X8969D02*
X9014D01*
X8948D02*
X8966D01*
X9091Y7774D02*
X9247D01*
X9061D02*
X9079D01*
X9018D02*
X9036D01*
X8971D02*
X9014D01*
X8948D02*
X8968D01*
X9090Y7773D02*
X9247D01*
X9083D02*
X9085D01*
X9061D02*
X9079D01*
X9017D02*
X9035D01*
X8972D02*
X9014D01*
X8948D02*
X8969D01*
X9090Y7772D02*
X9247D01*
X9083D02*
X9084D01*
X9061D02*
X9079D01*
X9046D02*
X9048D01*
X9017D02*
X9035D01*
X8973D02*
X9013D01*
X8948D02*
X8970D01*
X9090Y7771D02*
X9247D01*
X9083D02*
X9085D01*
X9061D02*
X9079D01*
X9045D02*
X9048D01*
X9017D02*
X9034D01*
X8974D02*
X9012D01*
X8948D02*
X8972D01*
X9090Y7770D02*
X9247D01*
X9061D02*
X9079D01*
X9043D02*
X9048D01*
X9015D02*
X9034D01*
X8976D02*
X9011D01*
X8948D02*
X8973D01*
X9089Y7769D02*
X9247D01*
X9060D02*
X9079D01*
X9042D02*
X9048D01*
X9013D02*
X9033D01*
X8978D02*
X9009D01*
X8948D02*
X8975D01*
X9089Y7768D02*
X9247D01*
X9059D02*
X9078D01*
X9042D02*
X9045D01*
X9011D02*
X9032D01*
X8979D02*
X9007D01*
X8948D02*
X8977D01*
X9089Y7767D02*
X9247D01*
X9059D02*
X9078D01*
X9041D02*
X9044D01*
X9010D02*
X9032D01*
X8981D02*
X9003D01*
X8948D02*
X8979D01*
X9088Y7766D02*
X9247D01*
X9082D02*
X9084D01*
X9058D02*
X9078D01*
X9040D02*
X9045D01*
X9008D02*
X9031D01*
X8983D02*
X9003D01*
X8948D02*
X8980D01*
X9088Y7765D02*
X9247D01*
X9082D02*
X9083D01*
X9058D02*
X9078D01*
X9053D02*
X9056D01*
X9040D02*
X9045D01*
X8984D02*
X9030D01*
X8948D02*
X8982D01*
X9088Y7764D02*
X9247D01*
X9082D02*
X9083D01*
X9058D02*
X9078D01*
X9052D02*
X9056D01*
X9040D02*
X9044D01*
X8986D02*
X9030D01*
X8948D02*
X8984D01*
X9087Y7763D02*
X9247D01*
X9081D02*
X9083D01*
X9058D02*
X9078D01*
X9052D02*
X9056D01*
X9039D02*
X9041D01*
X8996D02*
X9029D01*
X8948D02*
X8987D01*
X9087Y7762D02*
X9247D01*
X9081D02*
X9083D01*
X9057D02*
X9078D01*
X9037D02*
X9041D01*
X9006D02*
X9028D01*
X8948D02*
X8987D01*
X9086Y7761D02*
X9247D01*
X9057D02*
X9077D01*
X9011D02*
X9025D01*
X8948D02*
X8995D01*
X9086Y7760D02*
X9247D01*
X9055D02*
X9077D01*
X9015D02*
X9019D01*
X8948D02*
X9007D01*
X9085Y7759D02*
X9247D01*
X9053D02*
X9076D01*
X9025D02*
X9029D01*
X8948D02*
X9013D01*
X9085Y7758D02*
X9247D01*
X9052D02*
X9076D01*
X8948D02*
X9029D01*
X9085Y7757D02*
X9247D01*
X9050D02*
X9075D01*
X8948D02*
X9029D01*
X9084Y7756D02*
X9247D01*
X9050D02*
X9074D01*
X8948D02*
X9029D01*
X9083Y7755D02*
X9247D01*
X9049D02*
X9073D01*
X8948D02*
X9029D01*
X9083Y7754D02*
X9247D01*
X9047D02*
X9071D01*
X8948D02*
X9028D01*
X9082Y7753D02*
X9247D01*
X9047D02*
X9070D01*
X8948D02*
X9028D01*
X9081Y7752D02*
X9247D01*
X9045D02*
X9069D01*
X8948D02*
X9027D01*
X9079Y7751D02*
X9247D01*
X9045D02*
X9067D01*
X8948D02*
X9027D01*
X9077Y7750D02*
X9247D01*
X9044D02*
X9065D01*
X8948D02*
X9027D01*
X9075Y7749D02*
X9247D01*
X9043D02*
X9064D01*
X9035D02*
X9040D01*
X8948D02*
X9026D01*
X9073Y7748D02*
X9247D01*
X9043D02*
X9062D01*
X9034D02*
X9040D01*
X8948D02*
X9026D01*
X9071Y7747D02*
X9247D01*
X9042D02*
X9060D01*
X9033D02*
X9040D01*
X8948D02*
X9026D01*
X9069Y7746D02*
X9247D01*
X9042D02*
X9058D01*
X9032D02*
X9040D01*
X8948D02*
X9026D01*
X9067Y7745D02*
X9247D01*
X9042D02*
X9055D01*
X8948D02*
X9040D01*
X9064Y7744D02*
X9247D01*
X9042D02*
X9053D01*
X8948D02*
X9039D01*
X9062Y7743D02*
X9247D01*
X9041D02*
X9051D01*
X8948D02*
X9039D01*
X9059Y7742D02*
X9247D01*
X9041D02*
X9050D01*
X8948D02*
X9039D01*
X9056Y7741D02*
X9247D01*
X9041D02*
X9050D01*
X8948D02*
X9039D01*
X9053Y7740D02*
X9247D01*
X9041D02*
X9050D01*
X8948D02*
X9038D01*
X9053Y7739D02*
X9247D01*
X9040D02*
X9050D01*
X8948D02*
X9038D01*
X9052Y7738D02*
X9247D01*
X9040D02*
X9050D01*
X8948D02*
X9039D01*
X9051Y7737D02*
X9247D01*
X9041D02*
X9050D01*
X8948D02*
X9039D01*
X9052Y7736D02*
X9247D01*
X9041D02*
X9049D01*
X8948D02*
X9039D01*
X9052Y7735D02*
X9247D01*
X9041D02*
X9049D01*
X8948D02*
X9039D01*
X9052Y7734D02*
X9247D01*
X9041D02*
X9049D01*
X8948D02*
X9040D01*
X9051Y7733D02*
X9247D01*
X9041D02*
X9048D01*
X8948D02*
X9040D01*
X9051Y7732D02*
X9247D01*
X9042D02*
X9049D01*
X8948D02*
X9040D01*
X9051Y7731D02*
X9247D01*
X8948D02*
X9048D01*
X9051Y7730D02*
X9247D01*
X8948D02*
X9048D01*
X9051Y7729D02*
X9247D01*
X9042D02*
X9048D01*
X8948D02*
X9041D01*
X9051Y7728D02*
X9247D01*
X9042D02*
X9047D01*
X8948D02*
X9041D01*
X9051Y7727D02*
X9247D01*
X9043D02*
X9047D01*
X8948D02*
X9041D01*
X9051Y7726D02*
X9247D01*
X8948D02*
X9048D01*
X9043Y7725D02*
X9247D01*
X8948D02*
X9042D01*
X9043Y7724D02*
X9247D01*
X8948D02*
X9042D01*
X9044Y7723D02*
X9247D01*
X8948D02*
X9042D01*
X9044Y7722D02*
X9247D01*
X8948D02*
X9042D01*
X9044Y7721D02*
X9247D01*
X8948D02*
X9042D01*
X9044Y7720D02*
X9247D01*
X8948D02*
X9042D01*
X9045Y7719D02*
X9247D01*
X8948D02*
X9042D01*
X9045Y7718D02*
X9247D01*
X8948D02*
X9043D01*
X9045Y7717D02*
X9247D01*
X8948D02*
X9043D01*
X9045Y7716D02*
X9247D01*
X8948D02*
X9043D01*
X9046Y7715D02*
X9247D01*
X8948D02*
X9043D01*
X9046Y7714D02*
X9247D01*
X8948D02*
X9043D01*
X9046Y7713D02*
X9247D01*
X8948D02*
X9044D01*
X8948Y7712D02*
X9247D01*
X9048Y7711D02*
X9247D01*
X8948D02*
X9046D01*
X9048Y7710D02*
X9247D01*
X8948D02*
X9047D01*
X9050Y7709D02*
X9247D01*
X8948D02*
X9047D01*
X9051Y7708D02*
X9247D01*
X8948D02*
X9048D01*
X9052Y7707D02*
X9247D01*
X8948D02*
X9049D01*
X9053Y7706D02*
X9247D01*
X8948D02*
X9051D01*
X9054Y7705D02*
X9247D01*
X8948D02*
X9052D01*
X9055Y7704D02*
X9247D01*
X8948D02*
X9053D01*
X9056Y7703D02*
X9247D01*
X8948D02*
X9054D01*
X9057Y7702D02*
X9247D01*
X8948D02*
X9055D01*
X9058Y7701D02*
X9247D01*
X8948D02*
X9056D01*
X9060Y7700D02*
X9247D01*
X8948D02*
X9057D01*
X9061Y7699D02*
X9247D01*
X8948D02*
X9058D01*
X9063Y7698D02*
X9247D01*
X8948D02*
X9059D01*
X9064Y7697D02*
X9247D01*
X8948D02*
X9061D01*
X9065Y7696D02*
X9247D01*
X8948D02*
X9062D01*
X9067Y7695D02*
X9247D01*
X8948D02*
X9063D01*
X9068Y7694D02*
X9247D01*
X8948D02*
X9065D01*
X9069Y7693D02*
X9247D01*
X8948D02*
X9066D01*
X9072Y7692D02*
X9247D01*
X8948D02*
X9067D01*
X9073Y7691D02*
X9247D01*
X8948D02*
X9068D01*
X9072Y7690D02*
X9247D01*
X8948D02*
X9069D01*
X8948Y7689D02*
X9247D01*
X8948Y7688D02*
X9247D01*
X8948Y7687D02*
X9247D01*
X8948Y7686D02*
X9247D01*
X8948Y7685D02*
X9247D01*
X8948Y7684D02*
X9247D01*
X8948Y7683D02*
X9247D01*
X8948Y7682D02*
X9247D01*
X8948Y7681D02*
X9247D01*
D33*
X8930Y8169D02*
Y8559D01*
D34*
X8814Y7995D02*
X8804Y8005D01*
Y8025D01*
X8814Y8035D01*
X8824D01*
X8834Y8025D01*
Y8015D01*
Y8025D01*
X8844Y8035D01*
X8854D01*
X8864Y8025D01*
Y8005D01*
X8854Y7995D01*
X8814Y8055D02*
X8804Y8065D01*
Y8085D01*
X8814Y8095D01*
X8854D01*
X8864Y8085D01*
Y8065D01*
X8854Y8055D01*
X8814D01*
X8864Y8115D02*
X8854D01*
Y8125D01*
X8864D01*
Y8115D01*
X8804Y8205D02*
Y8165D01*
X8834D01*
X8824Y8185D01*
Y8195D01*
X8834Y8205D01*
X8854D01*
X8864Y8195D01*
Y8175D01*
X8854Y8165D01*
X8804Y8265D02*
Y8225D01*
X8834D01*
X8824Y8245D01*
Y8255D01*
X8834Y8265D01*
X8854D01*
X8864Y8255D01*
Y8235D01*
X8854Y8225D01*
X8804Y8325D02*
X8814Y8305D01*
X8834Y8285D01*
X8854D01*
X8864Y8295D01*
Y8315D01*
X8854Y8325D01*
X8844D01*
X8834Y8315D01*
Y8285D01*
X8864Y8385D02*
Y8345D01*
X8824Y8385D01*
X8814D01*
X8804Y8375D01*
Y8355D01*
X8814Y8345D01*
X8864Y8405D02*
X8824D01*
Y8415D01*
X8834Y8425D01*
X8864D01*
X8834D01*
X8824Y8435D01*
X8834Y8445D01*
X8864D01*
Y8465D02*
X8824D01*
Y8475D01*
X8834Y8485D01*
X8864D01*
X8834D01*
X8824Y8495D01*
X8834Y8505D01*
X8864D01*
X9541Y7562D02*
Y7622D01*
X9511Y7592D01*
X9551D01*
X9611Y7562D02*
X9571D01*
X9611Y7602D01*
Y7612D01*
X9601Y7622D01*
X9581D01*
X9571Y7612D01*
X9631Y7562D02*
Y7572D01*
X9641D01*
Y7562D01*
X9631D01*
X9721Y7622D02*
X9701Y7612D01*
X9681Y7592D01*
Y7572D01*
X9691Y7562D01*
X9711D01*
X9721Y7572D01*
Y7582D01*
X9711Y7592D01*
X9681D01*
X9781Y7562D02*
X9741D01*
X9781Y7602D01*
Y7612D01*
X9771Y7622D01*
X9751D01*
X9741Y7612D01*
X9801Y7562D02*
X9821D01*
X9811D01*
Y7622D01*
X9801Y7612D01*
X9891Y7562D02*
X9851D01*
X9891Y7602D01*
Y7612D01*
X9881Y7622D01*
X9861D01*
X9851Y7612D01*
X9911Y7562D02*
Y7602D01*
X9921D01*
X9931Y7592D01*
Y7562D01*
Y7592D01*
X9941Y7602D01*
X9951Y7592D01*
Y7562D01*
X9971D02*
Y7602D01*
X9981D01*
X9991Y7592D01*
Y7562D01*
Y7592D01*
X10001Y7602D01*
X10011Y7592D01*
Y7562D01*
D35*
X8913Y8523D02*
X8922D01*
Y8518D01*
X8921Y8517D01*
X8917D01*
X8916Y8518D01*
Y8523D01*
X8921Y8507D02*
X8922Y8508D01*
Y8512D01*
X8921Y8513D01*
X8914D01*
X8913Y8512D01*
Y8508D01*
X8914Y8507D01*
X8922Y8504D02*
X8913D01*
Y8499D01*
X8914Y8497D01*
X8916D01*
X8917Y8499D01*
Y8504D01*
Y8499D01*
X8919Y8497D01*
X8921D01*
X8922Y8499D01*
Y8504D01*
Y8477D02*
Y8484D01*
X8913D01*
Y8477D01*
X8917Y8484D02*
Y8481D01*
X8922Y8467D02*
X8913D01*
Y8472D01*
X8914Y8474D01*
X8917D01*
X8919Y8472D01*
Y8467D01*
X8909Y8461D02*
Y8459D01*
X8911Y8458D01*
X8919D01*
Y8463D01*
X8917Y8464D01*
X8914D01*
X8913Y8463D01*
Y8458D01*
Y8449D02*
Y8453D01*
X8914Y8454D01*
X8917D01*
X8919Y8453D01*
Y8449D01*
X8917Y8448D01*
X8916D01*
Y8454D01*
D36*
X9477Y8767D02*
D03*
D37*
X9136Y8278D02*
D03*
Y8451D02*
D03*
D38*
X9643Y8699D02*
D03*
D39*
X9643Y8799D02*
D03*
X9743Y8699D02*
D03*
Y8799D02*
D03*
X9843Y8699D02*
D03*
Y8799D02*
D03*
X9943Y8699D02*
D03*
Y8799D02*
D03*
X10043Y8699D02*
D03*
X10043Y8799D02*
D03*
X10143Y8699D02*
D03*
X10143Y8799D02*
D03*
X10243Y8699D02*
D03*
Y8799D02*
D03*
X10343Y8699D02*
D03*
Y8799D02*
D03*
X10443Y8699D02*
D03*
Y8799D02*
D03*
X10543Y8699D02*
D03*
X10543Y8799D02*
D03*
D40*
X10507Y8141D02*
D03*
X10557D02*
D03*
X10507Y8091D02*
D03*
X10557D02*
D03*
X10507Y8041D02*
D03*
X10557D02*
D03*
X10507Y7991D02*
D03*
Y8557D02*
D03*
X10557D02*
D03*
X10507Y8507D02*
D03*
X10557D02*
D03*
X10507Y8457D02*
D03*
X10557D02*
D03*
X10507Y8407D02*
D03*
X10557D02*
D03*
X10507Y8357D02*
D03*
D41*
X10557Y7991D02*
D03*
Y8357D02*
D03*
D42*
X10054Y8203D02*
D03*
X10034Y8185D02*
D03*
X10188Y8092D02*
D03*
X9873Y8519D02*
D03*
X9842Y8213D02*
D03*
X9905Y8130D02*
D03*
X9876Y8180D02*
D03*
X10440Y8168D02*
D03*
Y8253D02*
D03*
X9989Y8529D02*
D03*
X10013Y8511D02*
D03*
X10381Y8577D02*
D03*
X10383Y8230D02*
D03*
X9729Y8576D02*
D03*
X9783Y8552D02*
D03*
X10006Y8346D02*
D03*
X9990Y8373D02*
D03*
X9994Y8322D02*
D03*
X9699Y8395D02*
D03*
X9407Y8670D02*
D03*
X10453Y7680D02*
D03*
X10059Y7682D02*
D03*
X10013Y7812D02*
D03*
X9363Y8670D02*
D03*
X9185Y8064D02*
D03*
X10197Y8213D02*
D03*
X10050Y8112D02*
D03*
X9687Y7941D02*
D03*
X10156Y8189D02*
D03*
X10278Y8126D02*
D03*
X10440Y7850D02*
D03*
X9791Y8186D02*
D03*
X10375Y8111D02*
D03*
X10558Y7889D02*
D03*
X9034Y8750D02*
D03*
X9219Y8257D02*
D03*
X9267D02*
D03*
X9309D02*
D03*
Y8291D02*
D03*
X10381Y7822D02*
D03*
X10354Y7814D02*
D03*
X10414Y7907D02*
D03*
X9589Y8027D02*
D03*
X10451Y7735D02*
D03*
X10034Y7863D02*
D03*
X10150Y7889D02*
D03*
X10162Y7944D02*
D03*
X10166Y7812D02*
D03*
X10148Y7787D02*
D03*
X10229Y7838D02*
D03*
X10355Y7979D02*
D03*
X9426Y8457D02*
D03*
X9758Y8192D02*
D03*
X9533Y8175D02*
D03*
X9493D02*
D03*
X9454Y8174D02*
D03*
X9623Y7967D02*
D03*
X9823Y7761D02*
D03*
X9931Y7774D02*
D03*
X9374Y7943D02*
D03*
X9817Y8319D02*
D03*
X10272Y8061D02*
D03*
X10218Y8011D02*
D03*
X10164Y8033D02*
D03*
X9622Y7883D02*
D03*
X9212Y8019D02*
D03*
X9817Y8221D02*
D03*
X9992Y7876D02*
D03*
X9935Y7855D02*
D03*
X9947Y8156D02*
D03*
X9671Y8547D02*
D03*
X9699Y8207D02*
D03*
X9867Y8361D02*
D03*
X9794D02*
D03*
X9699Y8266D02*
D03*
X9790Y7944D02*
D03*
Y7874D02*
D03*
X9873Y7950D02*
D03*
X9934Y7897D02*
D03*
X10011Y8010D02*
D03*
D43*
X9699Y8207D02*
Y8266D01*
X9794Y8361D01*
X9867D01*
X9790Y7874D02*
Y7944D01*
D44*
X10178Y8493D02*
D03*
M02*
