%FSLAX23Y23*%
%MOIN*%
G70*
G01*
G75*
G04 Layer_Color=255*
%ADD10C,0.010*%
%ADD11C,0.012*%
%ADD12C,0.015*%
%ADD13C,0.025*%
%ADD14R,0.030X0.030*%
%ADD15R,0.100X0.070*%
%ADD16R,0.030X0.030*%
%ADD17R,0.050X0.030*%
%ADD18O,0.067X0.014*%
%ADD19R,0.070X0.100*%
%ADD20R,0.098X0.079*%
%ADD21R,0.091X0.020*%
%ADD22O,0.012X0.071*%
%ADD23O,0.071X0.012*%
%ADD24R,0.039X0.094*%
%ADD25R,0.130X0.094*%
%ADD26R,0.083X0.051*%
%ADD27O,0.087X0.024*%
%ADD28R,0.087X0.055*%
%ADD29C,0.008*%
%ADD30C,0.001*%
%ADD31R,0.188X0.076*%
%ADD32R,0.107X0.104*%
%ADD33C,0.004*%
%ADD34C,0.006*%
%ADD35C,0.001*%
%ADD36C,0.098*%
%ADD37C,0.024*%
%ADD38R,0.059X0.059*%
%ADD39C,0.059*%
%ADD40C,0.039*%
%ADD41R,0.039X0.039*%
%ADD42C,0.020*%
%ADD43C,0.020*%
%ADD44R,0.283X0.202*%
D10*
X8828Y7654D02*
Y7985D01*
Y8527D02*
Y8857D01*
X8808Y7714D02*
X8828Y7654D01*
X8848Y7714D01*
X8808Y8797D02*
X8828Y8857D01*
X8848Y8797D01*
X8818Y7654D02*
X8838D01*
X8818Y8857D02*
X8838D01*
X8928Y7598D02*
X9501D01*
X10033D02*
X10606D01*
X8928D02*
X8988Y7618D01*
X8928Y7598D02*
X8988Y7578D01*
X10546Y7618D02*
X10606Y7598D01*
X10546Y7578D02*
X10606Y7598D01*
X8928Y7588D02*
Y7608D01*
X10606Y7588D02*
Y7608D01*
D29*
X8928Y7654D02*
X10607D01*
X8928D02*
Y8857D01*
X10607D01*
Y7654D02*
Y8857D01*
D33*
X8930Y8169D02*
Y8559D01*
D34*
X8814Y7995D02*
X8804Y8005D01*
Y8025D01*
X8814Y8035D01*
X8824D01*
X8834Y8025D01*
Y8015D01*
Y8025D01*
X8844Y8035D01*
X8854D01*
X8864Y8025D01*
Y8005D01*
X8854Y7995D01*
X8814Y8055D02*
X8804Y8065D01*
Y8085D01*
X8814Y8095D01*
X8854D01*
X8864Y8085D01*
Y8065D01*
X8854Y8055D01*
X8814D01*
X8864Y8115D02*
X8854D01*
Y8125D01*
X8864D01*
Y8115D01*
X8804Y8205D02*
Y8165D01*
X8834D01*
X8824Y8185D01*
Y8195D01*
X8834Y8205D01*
X8854D01*
X8864Y8195D01*
Y8175D01*
X8854Y8165D01*
X8804Y8265D02*
Y8225D01*
X8834D01*
X8824Y8245D01*
Y8255D01*
X8834Y8265D01*
X8854D01*
X8864Y8255D01*
Y8235D01*
X8854Y8225D01*
X8804Y8325D02*
X8814Y8305D01*
X8834Y8285D01*
X8854D01*
X8864Y8295D01*
Y8315D01*
X8854Y8325D01*
X8844D01*
X8834Y8315D01*
Y8285D01*
X8864Y8385D02*
Y8345D01*
X8824Y8385D01*
X8814D01*
X8804Y8375D01*
Y8355D01*
X8814Y8345D01*
X8864Y8405D02*
X8824D01*
Y8415D01*
X8834Y8425D01*
X8864D01*
X8834D01*
X8824Y8435D01*
X8834Y8445D01*
X8864D01*
Y8465D02*
X8824D01*
Y8475D01*
X8834Y8485D01*
X8864D01*
X8834D01*
X8824Y8495D01*
X8834Y8505D01*
X8864D01*
X9541Y7562D02*
Y7622D01*
X9511Y7592D01*
X9551D01*
X9611Y7562D02*
X9571D01*
X9611Y7602D01*
Y7612D01*
X9601Y7622D01*
X9581D01*
X9571Y7612D01*
X9631Y7562D02*
Y7572D01*
X9641D01*
Y7562D01*
X9631D01*
X9721Y7622D02*
X9701Y7612D01*
X9681Y7592D01*
Y7572D01*
X9691Y7562D01*
X9711D01*
X9721Y7572D01*
Y7582D01*
X9711Y7592D01*
X9681D01*
X9781Y7562D02*
X9741D01*
X9781Y7602D01*
Y7612D01*
X9771Y7622D01*
X9751D01*
X9741Y7612D01*
X9801Y7562D02*
X9821D01*
X9811D01*
Y7622D01*
X9801Y7612D01*
X9891Y7562D02*
X9851D01*
X9891Y7602D01*
Y7612D01*
X9881Y7622D01*
X9861D01*
X9851Y7612D01*
X9911Y7562D02*
Y7602D01*
X9921D01*
X9931Y7592D01*
Y7562D01*
Y7592D01*
X9941Y7602D01*
X9951Y7592D01*
Y7562D01*
X9971D02*
Y7602D01*
X9981D01*
X9991Y7592D01*
Y7562D01*
Y7592D01*
X10001Y7602D01*
X10011Y7592D01*
Y7562D01*
D35*
X8913Y8523D02*
X8922D01*
Y8518D01*
X8921Y8517D01*
X8917D01*
X8916Y8518D01*
Y8523D01*
X8921Y8507D02*
X8922Y8508D01*
Y8512D01*
X8921Y8513D01*
X8914D01*
X8913Y8512D01*
Y8508D01*
X8914Y8507D01*
X8922Y8504D02*
X8913D01*
Y8499D01*
X8914Y8497D01*
X8916D01*
X8917Y8499D01*
Y8504D01*
Y8499D01*
X8919Y8497D01*
X8921D01*
X8922Y8499D01*
Y8504D01*
Y8477D02*
Y8484D01*
X8913D01*
Y8477D01*
X8917Y8484D02*
Y8481D01*
X8922Y8467D02*
X8913D01*
Y8472D01*
X8914Y8474D01*
X8917D01*
X8919Y8472D01*
Y8467D01*
X8909Y8461D02*
Y8459D01*
X8911Y8458D01*
X8919D01*
Y8463D01*
X8917Y8464D01*
X8914D01*
X8913Y8463D01*
Y8458D01*
Y8449D02*
Y8453D01*
X8914Y8454D01*
X8917D01*
X8919Y8453D01*
Y8449D01*
X8917Y8448D01*
X8916D01*
Y8454D01*
D36*
X9477Y8767D02*
D03*
D37*
X9136Y8278D02*
D03*
Y8451D02*
D03*
D38*
X9643Y8699D02*
D03*
D39*
X9643Y8799D02*
D03*
X9743Y8699D02*
D03*
Y8799D02*
D03*
X9843Y8699D02*
D03*
Y8799D02*
D03*
X9943Y8699D02*
D03*
Y8799D02*
D03*
X10043Y8699D02*
D03*
X10043Y8799D02*
D03*
X10143Y8699D02*
D03*
X10143Y8799D02*
D03*
X10243Y8699D02*
D03*
Y8799D02*
D03*
X10343Y8699D02*
D03*
Y8799D02*
D03*
X10443Y8699D02*
D03*
Y8799D02*
D03*
X10543Y8699D02*
D03*
X10543Y8799D02*
D03*
D40*
X10507Y8141D02*
D03*
X10557D02*
D03*
X10507Y8091D02*
D03*
X10557D02*
D03*
X10507Y8041D02*
D03*
X10557D02*
D03*
X10507Y7991D02*
D03*
Y8557D02*
D03*
X10557D02*
D03*
X10507Y8507D02*
D03*
X10557D02*
D03*
X10507Y8457D02*
D03*
X10557D02*
D03*
X10507Y8407D02*
D03*
X10557D02*
D03*
X10507Y8357D02*
D03*
D41*
X10557Y7991D02*
D03*
Y8357D02*
D03*
M02*
