M48
;Layer_Color=0
;FILE_FORMAT=2:4
INCH,LZ
;TYPE=PLATED
T1F00S00C0.0080
T2F00S00C0.0236
T3F00S00C0.0354
%
T01
X002843Y003653
X00257Y0041
X00106Y01096
X004347Y010156
X00479Y01016
X00498Y00803
X00381Y00637
Y00603
X00339
X00291
X00526Y0052
X00565Y00521
X00605
X00771Y00553
Y00612
Y00741
X00866Y00707
X008892Y006648
X00939Y00707
X01062Y00719
X01078Y00692
X01066Y00668
X01106Y00531
X01126Y00549
X01122Y00458
X01083Y00356
X01064Y00222
X01106Y002092
X01085Y00158
X01003Y0012
X01007Y00201
X01006Y00243
X00945Y00296
X00862Y0029
Y0022
X008948Y001068
X01131Y00028
X012194Y001324
X012376Y00158
X013004Y001836
X012218Y002348
X01234Y0029
X01236Y00379
X0129Y003568
X01344Y00407
X0135Y00472
X014473Y004573
X01512Y00514
Y00599
X01455Y00576
X01269Y00559
X01228Y00535
X0126Y00438
X01427Y00325
X014859Y002526
X015121Y00196
X01453Y00168
X014255Y001595
X01523Y00081
X01525Y00026
X016302Y002348
X01453Y00923
X01085Y00857
X01061Y00875
X00945Y00865
X00855Y00898
X00801Y00922
X00743Y00893
X008302Y005378
X008629Y005321
X00889Y00567
X00914Y00559
X00948Y00526
X00977Y004756
X01019Y00502
X00759Y00287
X00695Y00313
X006934Y002286
X00661Y00373
X00446Y00289
T02
X01579Y00337
Y00387
Y00437
Y00487
X01629
Y00437
Y00387
Y00337
Y00703
Y00753
Y00803
Y00853
Y00903
X01579
Y00853
Y00803
Y00753
Y00703
T03
X00715Y01045
X00815
X00915
Y01145
X01015
Y01045
X01115
X01215
X01315
Y01145
X01415
Y01045
X01515
X01615
X01615Y01145
X01515
X01215
X01115
X00815
X00715Y01145
M30
